<?xml version="1.0" encoding="UTF-8"?>
<svg xmlns="http://www.w3.org/2000/svg" viewBox="0 0 1200 600" width="1200" height="600" data-state="loading">
  <style><![CDATA[

    /* ============ FOUNDATION MOTION VOCAB ============ */
    .brand-mark { transform-box: fill-box; transform-origin: center;
                  animation: brand-pulse 3.6s ease-in-out infinite; }
    @keyframes brand-pulse {
      0%, 100% { transform: scale(1);    opacity: 0.92; }
      50%      { transform: scale(1.05); opacity: 1; }
    }
    .brand-word { animation: brand-word-breath 6s ease-in-out infinite; }
    @keyframes brand-word-breath {
      0%, 100% { opacity: 0.78; }
      50%      { opacity: 1; }
    }
    .sky-shimmer { animation: sky-drift 14s linear infinite; transform-box: fill-box; }
    @keyframes sky-drift {
      from { transform: translateX(-40px); opacity: 0.12; }
      50%  { opacity: 0.22; }
      to   { transform: translateX(40px);  opacity: 0.12; }
    }
    .load-pill { transform-box: fill-box; transform-origin: center;
                 animation: load-pill-pulse 2.4s ease-in-out infinite; }
    @keyframes load-pill-pulse {
      0%, 100% { opacity: 0.85; transform: scale(1); }
      50%      { opacity: 1;    transform: scale(1.04); }
    }
    .progress-fill { transition: width 0.4s ease-out; }
    .chevron { animation: chevron-pulse 2.2s ease-in-out infinite; }
    @keyframes chevron-pulse {
      0%, 100% { opacity: 0.3; }
      50%      { opacity: 0.65; }
    }

    /* ============ END-DUMP-LOADING-SPECIFIC MOTION ============
       7s cycle, master rhythm (AGGREGATE top-load by a wheel loader from a
       stockpile — bed stays flat, level rises):
         0  - 26% : the wheel loader rolls in, raises its full bucket over
                    the open top and tips it (bucket-curl decel settle).
         18 - 88% : a stream of gravel falls from the tipped bucket into the
                    open tub (dashed product flow); the aggregate level rises
                    inside the body; the stockpile shrinks in step; the
                    load-scale ticks up net tons.
         26 - 34% : (loader holds at dump) bucket curled, dust puff at impact.
         88 - 100%: load level holds full, the loader bucket rolls back level
                    and lowers, dust settles, then loop.
       ============================================================ */

    /* Wheel-loader bucket lifts, tips to dump, then returns. */
    .loader-arm { transform-box: view-box; transform-origin: 196px 392px;
                  animation: loader-arm 7s cubic-bezier(0.4,0,0.2,1) infinite; }
    @keyframes loader-arm {
      0%        { transform: rotate(12deg); }
      26%, 88%  { transform: rotate(-20deg); }
      100%      { transform: rotate(12deg); }
    }
    /* Bucket curls open to release the load at the top of the lift. */
    .bucket-curl { transform-box: fill-box; transform-origin: center;
                   animation: bucket-curl 7s cubic-bezier(0.4,0,0.2,1) infinite; }
    @keyframes bucket-curl {
      0%, 18%   { transform: rotate(0deg); }
      30%, 84%  { transform: rotate(-46deg); }
      100%      { transform: rotate(0deg); }
    }

    /* Falling gravel stream from the bucket into the open top (fill phase). */
    .product-flow { animation: product-flow 0.7s linear infinite;
                    stroke-dasharray: 6 8; }
    @keyframes product-flow {
      from { stroke-dashoffset: 0; }
      to   { stroke-dashoffset: 28; }
    }
    .product-flow-fade { animation: product-flow-fade 7s ease-in-out infinite; }
    @keyframes product-flow-fade {
      0%, 18%   { opacity: 0; }
      30%, 84%  { opacity: 0.92; }
      100%      { opacity: 0; }
    }

    /* Aggregate level rises in the dump body. */
    .level-rise { transform-box: fill-box; transform-origin: bottom;
                  animation: level-rise 7s ease-in-out infinite; }
    @keyframes level-rise {
      0%, 18%   { transform: scaleY(0.16); }
      88%, 100% { transform: scaleY(1); }
    }
    .level-crown { animation: level-crown 7s ease-in-out infinite; }
    @keyframes level-crown {
      0%, 18%   { transform: translateY(96px); opacity: 0.9; }
      88%, 100% { transform: translateY(0);    opacity: 0.95; }
    }

    /* Stockpile source shrinks in step (what leaves the pile arrives in bed). */
    .pile-shrink { transform-box: fill-box; transform-origin: bottom;
                   animation: pile-shrink 7s ease-in-out infinite; }
    @keyframes pile-shrink {
      0%, 18%   { transform: scale(1); }
      88%, 100% { transform: scale(0.78); }
    }

    /* Scale / load-cell readout bar ticks up. */
    .scale-bar { transform-box: fill-box; transform-origin: left center;
                 animation: scale-bar 7s ease-in-out infinite; }
    @keyframes scale-bar {
      0%, 18%   { transform: scaleX(0.08); }
      88%, 100% { transform: scaleX(0.95); }
    }

    /* Dust puff at the load impact point during fill. */
    .dust-puff { animation: dust-puff 2.6s ease-out infinite; }
    .dust-puff.p2 { animation-delay: -0.9s; }
    .dust-puff.p3 { animation-delay: -1.8s; }
    @keyframes dust-puff {
      0%   { opacity: 0;    transform: translateY(0)    scale(0.4); }
      30%  { opacity: 0.4;  transform: translateY(-8px) scale(0.9); }
      70%  { opacity: 0.18; transform: translateY(-18px) scale(1.3); }
      100% { opacity: 0;    transform: translateY(-26px) scale(1.6); }
    }

    /* Operator subtle breathe on the platform. */
    .operator-bob { transform-box: fill-box; transform-origin: center bottom;
                    animation: operator-bob 4.4s ease-in-out infinite; }
    @keyframes operator-bob {
      0%, 100% { transform: translateY(0); }
      50%      { transform: translateY(-0.8px); }
    }

    /* Stowed hoist chrome glint (cylinder folded flat under the bed, idle). */
    .hoist-glint { transform-box: fill-box; transform-origin: center;
                   animation: hoist-glint 4.6s ease-in-out infinite; }
    @keyframes hoist-glint {
      0%, 100% { opacity: 0.35; }
      50%      { opacity: 0.8; }
    }

    @media (prefers-reduced-motion: reduce) {
      .brand-lockup, .brand-mark, .brand-word,
      .chevron,
      .loader-arm, .bucket-curl,
      .product-flow, .product-flow-fade,
      .level-rise, .level-crown,
      .pile-shrink,
      .scale-bar,
      .dust-puff,
      .operator-bob,
      .hoist-glint,
      .load-pill,
      .progress-fill,
      .sky-shimmer {
        animation: none !important;
      }
      .dust-puff { opacity: 0 !important; }
    }

  ]]></style>

  <defs>
    <linearGradient id="brandIridescent" x1="0" y1="0" x2="1" y2="1">
      <stop offset="0%" stop-color="#1473FF"/>
      <stop offset="50%" stop-color="#6E4DFF"/>
      <stop offset="100%" stop-color="#BE01FF"/>
    </linearGradient>

    <!-- Cool open quarry / aggregate-yard sky -->
    <linearGradient id="plantSky" x1="0" y1="0" x2="0" y2="1">
      <stop offset="0%"  stop-color="#D7DEE7"/>
      <stop offset="55%" stop-color="#CAD2DD"/>
      <stop offset="100%" stop-color="#A8B0BE"/>
    </linearGradient>
    <linearGradient id="plantPad" x1="0" y1="0" x2="0" y2="1">
      <stop offset="0%" stop-color="#5C6068"/>
      <stop offset="100%" stop-color="#2E3138"/>
    </linearGradient>
    <!-- Dump-body steel (matches hero 37) -->
    <linearGradient id="dumpBody" x1="0" y1="0" x2="0" y2="1">
      <stop offset="0%"  stop-color="#5E6470"/>
      <stop offset="45%" stop-color="#454B57"/>
      <stop offset="100%" stop-color="#23262F"/>
    </linearGradient>
    <linearGradient id="dumpBelly" x1="0" y1="0" x2="0" y2="1">
      <stop offset="0%" stop-color="#3A3F4A"/>
      <stop offset="100%" stop-color="#15181F"/>
    </linearGradient>
    <!-- Aggregate / gravel fill colour (warm dun) -->
    <linearGradient id="aggFill" x1="0" y1="0" x2="0" y2="1">
      <stop offset="0%"  stop-color="#C9BFA8"/>
      <stop offset="55%" stop-color="#A1957B"/>
      <stop offset="100%" stop-color="#766B53"/>
    </linearGradient>
    <!-- Wheel-loader body (construction yellow) -->
    <linearGradient id="loaderBody" x1="0" y1="0" x2="0" y2="1">
      <stop offset="0%"  stop-color="#FFD23A"/>
      <stop offset="55%" stop-color="#F2A714"/>
      <stop offset="100%" stop-color="#B9760A"/>
    </linearGradient>
    <linearGradient id="hoistChrome" x1="0" y1="0" x2="0" y2="1">
      <stop offset="0%" stop-color="#EEF1F6"/>
      <stop offset="45%" stop-color="#AEB4C0"/>
      <stop offset="100%" stop-color="#6E747F"/>
    </linearGradient>
    <radialGradient id="rim" cx="0.5" cy="0.5" r="0.5">
      <stop offset="0%" stop-color="#5A606D"/>
      <stop offset="80%" stop-color="#3A3F4A"/>
      <stop offset="100%" stop-color="#1F2330"/>
    </radialGradient>
    <radialGradient id="dustPuff" cx="0.5" cy="0.5" r="0.5">
      <stop offset="0%" stop-color="#CFC4AB" stop-opacity="0.85"/>
      <stop offset="100%" stop-color="#CFC4AB" stop-opacity="0"/>
    </radialGradient>
    <filter id="rigShadow" x="-10%" y="-10%" width="120%" height="130%">
      <feGaussianBlur in="SourceAlpha" stdDeviation="6"/>
      <feOffset dx="0" dy="4" result="offsetBlur"/>
      <feComponentTransfer><feFuncA type="linear" slope="0.18"/></feComponentTransfer>
      <feMerge><feMergeNode/><feMergeNode in="SourceGraphic"/></feMerge>
    </filter>
    <filter id="softBlur" x="-50%" y="-50%" width="200%" height="200%">
      <feGaussianBlur stdDeviation="3"/>
    </filter>

    <!-- Trailer wheel (matches set wheel pattern) -->
    <symbol id="trailerWheel" overflow="visible">
      <circle cx="0" cy="0" r="24" fill="#1A1A1A"/>
      <circle cx="0" cy="0" r="16" fill="url(#rim)"/>
      <circle cx="0" cy="0" r="5"  fill="#7A7F88"/>
      <circle cx="0" cy="0" r="2"  fill="#1A1F2E"/>
      <g stroke="#3A3F4A" stroke-width="2" stroke-linecap="round" opacity="0.85">
        <line x1="0" y1="-21" x2="0" y2="-17"/>
        <line x1="15" y1="-15" x2="12" y2="-12"/>
        <line x1="21" y1="0"  x2="17" y2="0"/>
        <line x1="15" y1="15" x2="12" y2="12"/>
        <line x1="0"  y1="21" x2="0"  y2="17"/>
        <line x1="-15" y1="15" x2="-12" y2="12"/>
        <line x1="-21" y1="0"  x2="-17" y2="0"/>
        <line x1="-15" y1="-15" x2="-12" y2="-12"/>
      </g>
      <ellipse cx="-5" cy="-9" rx="4" ry="2.4" fill="#FFFFFF" opacity="0.32"/>
    </symbol>

    <!-- Wheel chock (parked-load safety) -->
    <symbol id="wheelChock" overflow="visible">
      <polygon points="-14,0 14,0 4,-12" fill="#FF7A1F" stroke="#A35200" stroke-width="0.6"/>
      <polygon points="-14,0 14,0 4,-12" fill="none" stroke="#FFFFFF" stroke-width="0.4" opacity="0.5"/>
      <ellipse cx="0" cy="1" rx="14" ry="1.4" fill="#1A1F2E" opacity="0.4"/>
    </symbol>
  </defs>


  <!-- ============================================================
       CARD BACKGROUND
       ============================================================ -->
  <rect class="card-bg" x="20" y="20" width="1160" height="560" rx="22" fill="#FAFBFD"/>


  <!-- ============================================================
       AGGREGATE-YARD ATMOSPHERE (background)
       ============================================================ -->
  <rect x="20" y="220" width="1160" height="240" fill="url(#plantSky)" opacity="0.85"/>
  <rect class="sky-shimmer" x="20" y="370" width="1160" height="60" fill="#FFFFFF" opacity="0.14"/>

  <!-- Distant quarry skyline (crusher tower + radial stacker conveyor) -->
  <g opacity="0.5">
    <rect x="70"  y="250" width="46" height="210" fill="#9098A8"/>
    <rect x="66"  y="242" width="54" height="12" fill="#6E747F"/>
    <!-- Radial stacker conveyor + cone stockpile -->
    <path d="M 120 300 L 250 250" stroke="#7A8089" stroke-width="6"/>
    <polygon points="190,460 320,460 255,360" fill="#B5BCC8"/>
    <!-- Distant screen plant -->
    <rect x="330" y="300" width="60" height="160" fill="#9098A8"/>
    <rect x="326" y="292" width="68" height="10" fill="#6E747F"/>
  </g>

  <!-- Faint horizon line -->
  <line x1="20" y1="378" x2="1180" y2="378" stroke="#5C6068" stroke-width="0.7" opacity="0.32"/>


  <!-- ============================================================
       LOADING PAD (compacted gravel + lane line)
       ============================================================ -->
  <rect x="20" y="478" width="1160" height="102" fill="url(#plantPad)"/>
  <rect x="60" y="476" width="1080" height="4" fill="#2A2D33"/>
  <rect x="60" y="478" width="1080" height="2" fill="#FFFFFF" opacity="0.16"/>
  <!-- Painted dashed lane line -->
  <line x1="80" y1="540" x2="1120" y2="540" stroke="#FFD200" stroke-width="1.6"
        stroke-dasharray="22 14" opacity="0.5"/>
  <!-- Light aggregate dust film on pad -->
  <g opacity="0.16">
    <ellipse cx="360" cy="548" rx="40" ry="3.4" fill="#CFC4AB"/>
    <ellipse cx="760" cy="552" rx="48" ry="3.6" fill="#CFC4AB"/>
  </g>


  <!-- ============================================================
       SOURCE STOCKPILE (the gravel pile the loader digs from)
       Placed on the left; shrinks in step as the bed fills.
       ============================================================ -->
  <g filter="url(#rigShadow)">
    <g class="pile-shrink" transform="translate(120 478)">
      <polygon points="-10,0 230,0 150,-150 60,-150" fill="url(#aggFill)"/>
      <polygon points="-10,0 96,0 70,-150 60,-150" fill="#8B8067" opacity="0.4"/>
      <g fill="#5E5640" opacity="0.5">
        <circle cx="40" cy="-30" r="3"/><circle cx="120" cy="-50" r="2.6"/><circle cx="170" cy="-40" r="3"/>
        <circle cx="80" cy="-90" r="2.4"/><circle cx="130" cy="-100" r="2.8"/><circle cx="105" cy="-130" r="2.2"/>
      </g>
    </g>
    <text x="200" y="466" text-anchor="middle" font-family="Inter, system-ui, sans-serif"
          font-weight="900" font-size="11" fill="#5A606D" letter-spacing="1.2">STOCKPILE · 3/4" CRUSHED</text>
  </g>


  <!-- ============================================================
       WHEEL LOADER (the source machine; arm lifts + bucket tips)
       ============================================================ -->
  <g filter="url(#rigShadow)" transform="translate(40 0)">
    <!-- Loader body / cab -->
    <path d="M 96 410 L 96 460 L 232 460 L 232 410 Q 232 388 210 388 L 174 388 L 174 360 Q 174 348 162 348 L 120 348 Q 108 348 108 362 L 108 392 Q 96 394 96 410 Z" fill="url(#loaderBody)"/>
    <rect x="118" y="356" width="48" height="30" rx="4" fill="#7E9DDB" opacity="0.85"/>
    <rect x="96" y="410" width="136" height="5" fill="#FFFFFF" opacity="0.35"/>
    <text x="200" y="436" text-anchor="middle" font-family="Inter, system-ui, sans-serif" font-weight="900" font-size="9" fill="#1A1F2E" opacity="0.6" letter-spacing="0.6">LOADER</text>
    <!-- Loader wheels -->
    <g transform="translate(128 460)"><circle cx="0" cy="0" r="26" fill="#1A1A1A"/><circle cx="0" cy="0" r="15" fill="url(#rim)"/><circle cx="0" cy="0" r="4" fill="#7A7F88"/></g>
    <g transform="translate(206 460)"><circle cx="0" cy="0" r="26" fill="#1A1A1A"/><circle cx="0" cy="0" r="15" fill="url(#rim)"/><circle cx="0" cy="0" r="4" fill="#7A7F88"/></g>

    <!-- Lift arm + bucket (raises and tips toward the open top) -->
    <g class="loader-arm">
      <!-- Boom arm -->
      <rect x="196" y="384" width="200" height="16" rx="8" fill="#E5A50A" transform="rotate(-18 196 392)"/>
      <rect x="196" y="384" width="200" height="4" rx="2" fill="#FFFFFF" opacity="0.4" transform="rotate(-18 196 392)"/>
      <!-- Bucket at the boom tip -->
      <g class="bucket-curl" transform="translate(388 326)">
        <path d="M -6 -22 L 40 -22 L 40 6 Q 40 22 22 22 L 2 22 Q -10 22 -10 8 Z" fill="#3A3F4A"/>
        <path d="M -6 -22 L 40 -22 L 40 -16 L -6 -16 Z" fill="#5A606D"/>
        <!-- Bucket teeth -->
        <g fill="#1A1F2E">
          <polygon points="-10,8 -4,8 -7,16"/>
          <polygon points="2,16 8,16 5,24"/>
          <polygon points="16,18 22,18 19,26"/>
        </g>
        <!-- Residual gravel in the bucket (empties as it tips) -->
        <path d="M -4 -20 Q 18 -26 38 -20 L 38 -8 L -4 -8 Z" fill="url(#aggFill)"/>
      </g>
    </g>
  </g>


  <!-- ============================================================
       OPERATOR ON GROUND (spotter, hi-vis + hard hat)
       ============================================================ -->
  <g transform="translate(470 508)">
    <g class="operator-bob" filter="url(#rigShadow)">
      <rect x="-7" y="42" width="6" height="3" fill="#1A1F2E"/>
      <rect x="1"  y="42" width="6" height="3" fill="#1A1F2E"/>
      <rect x="-7" y="22" width="6" height="22" fill="#1B2840"/>
      <rect x="1"  y="22" width="6" height="22" fill="#1B2840"/>
      <path d="M -10 4 Q -10 0 -7 0 L 7 0 Q 10 0 10 4 L 11 24 L -11 24 Z"
            fill="#C4F036" stroke="#1A1F2E" stroke-width="0.5"/>
      <rect x="-11" y="14" width="22" height="2" fill="#FFFFFF" opacity="0.85"/>
      <!-- Arm raised, directing the loader -->
      <path d="M 8 4 L 18 -4 L 22 4 L 13 10 Z" fill="#C4F036" stroke="#1A1F2E" stroke-width="0.4"/>
      <rect x="20" y="-2" width="4" height="8" fill="#D9A878"/>
      <circle cx="0" cy="-6" r="5" fill="#D9A878"/>
      <!-- Hard hat -->
      <path d="M -6 -10 Q -6 -14 0 -14 Q 6 -14 6 -10 L 7 -8 L -7 -8 Z" fill="#F1F4F9" stroke="#1A1F2E" stroke-width="0.5"/>
      <rect x="-7" y="-9" width="14" height="1.4" fill="#1A1F2E"/>
    </g>
  </g>


  <!-- ============================================================
       HALF-ROUND END-DUMP TRAILER — broadside profile
       (camera-side view; bed flat, open top receiving the load)
       ============================================================ -->

  <!-- Drop shadow under trailer -->
  <ellipse cx="700" cy="552" rx="360" ry="6" fill="#1A1F2E" opacity="0.32"/>

  <g filter="url(#rigShadow)">
    <!-- Tub shell: tall straight side wall sweeping into a curved belly -->
    <path d="M 520 322
             L 1018 322
             L 1018 446
             Q 1018 502 960 502
             L 578 502
             Q 520 502 520 446
             Z" fill="url(#dumpBody)"/>
    <!-- Curved-belly shading band (the half-round underside) -->
    <path d="M 528 446 Q 528 494 578 494 L 960 494 Q 1010 494 1010 446 L 1010 462 Q 1010 498 960 498 L 578 498 Q 528 498 528 462 Z"
          fill="url(#dumpBelly)" opacity="0.85"/>
    <!-- Top side-wall rail highlight -->
    <rect x="520" y="322" width="498" height="6" rx="2" fill="#FFFFFF" opacity="0.4"/>
    <rect x="520" y="490" width="498" height="6" fill="#1A1F2E" opacity="0.28"/>

    <!-- Vertical side stiffener ribs (dump-body hallmark) -->
    <g stroke="#15181F" stroke-width="3" opacity="0.6">
      <line x1="576" y1="328" x2="576" y2="486"/>
      <line x1="640" y1="328" x2="640" y2="490"/>
      <line x1="704" y1="328" x2="704" y2="494"/>
      <line x1="768" y1="328" x2="768" y2="494"/>
      <line x1="832" y1="328" x2="832" y2="494"/>
      <line x1="896" y1="328" x2="896" y2="490"/>
      <line x1="960" y1="328" x2="960" y2="484"/>
    </g>

    <!-- Top cap rail -->
    <rect x="520" y="316" width="498" height="8" rx="3" fill="#3A3F4A"/>
    <rect x="520" y="316" width="498" height="2" rx="1" fill="#6E747F"/>

    <!-- ===== Aggregate level RISES inside the open top (origin bottom) ===== -->
    <g>
      <!-- clip-free fill: rectangle grows up from belly; crown rides on top -->
      <g transform="translate(769 494)">
        <rect class="level-rise" x="-241" y="-160" width="482" height="160" rx="6" fill="url(#aggFill)"/>
      </g>
      <!-- Crowned surface that rides up with the fill -->
      <g class="level-crown">
        <path d="M 528 338
                 Q 600 322 690 330
                 Q 780 318 870 330
                 Q 950 322 1010 338
                 L 1010 348 L 528 348 Z" fill="#C9BFA8"/>
        <g fill="#5E5640" opacity="0.55">
          <circle cx="600" cy="334" r="2.4"/><circle cx="690" cy="330" r="2"/><circle cx="780" cy="332" r="2.4"/>
          <circle cx="870" cy="330" r="2"/><circle cx="950" cy="334" r="2.2"/>
        </g>
      </g>
    </g>

    <!-- Rear tailgate (latched closed during loading) -->
    <path d="M 1018 326 L 1038 326 L 1038 456 Q 1038 478 1022 490 L 1018 490 Z" fill="url(#dumpBody)"/>
    <circle cx="1026" cy="328" r="5" fill="#1F2330"/>
    <circle cx="1026" cy="328" r="2" fill="#7E8593"/>
    <rect x="1020" y="474" width="14" height="20" rx="3" fill="#3A3F4A"/>

    <!-- Commodity stencil -->
    <text x="769" y="430" text-anchor="middle" font-family="Inter, system-ui, sans-serif"
          font-weight="900" font-size="24" fill="#C8CDD8" opacity="0.5" letter-spacing="3">AGGREGATE</text>
    <text x="769" y="450" text-anchor="middle" font-family="Inter, system-ui, sans-serif"
          font-weight="700" font-size="10" fill="#5B3FBF" opacity="0.62" letter-spacing="2">HALF-ROUND END-DUMP &#183; 24 CU YD</text>

    <!-- ============================================================
         COUNTRY-SWITCHABLE END-DUMP MARKING GROUP
         Aggregate is NOT a DOT hazmat (no UN diamond). Regulated /
         industry-standard items: a GVWR weight-class data plate and a
         "RAISED BED — CHECK OVERHEAD LINES" caution (the signature
         tilting-dump-body hazard marking). Default = .country-US visible;
         renderer sets display:none on the two it does not want. Geometry
         identical so swapping is seamless.
           US — OSHA overhead-line CAUTION (yellow) + DOT GVWR plate (lbs).
           CA — bilingual EN/FR overhead caution + Transport Canada plate (kg).
           MX — NOM-012-SCT Spanish overhead caution + NOM weight plate (kg).
         ============================================================ -->
    <g class="marking-group">
      <g class="country-US">
        <g transform="translate(660 470)">
          <rect x="-44" y="-12" width="88" height="24" rx="4" fill="#FFD23A" stroke="#1A1F2E" stroke-width="1.4"/>
          <text x="0" y="-2" text-anchor="middle" font-family="Inter, system-ui, sans-serif" font-weight="900" font-size="7" fill="#1A1F2E" letter-spacing="0.4">CAUTION · RAISED BED</text>
          <text x="0" y="8" text-anchor="middle" font-family="Inter, system-ui, sans-serif" font-weight="800" font-size="5.2" fill="#1A1F2E" letter-spacing="0.3">CHECK OVERHEAD LINES</text>
        </g>
        <g transform="translate(880 470)">
          <rect x="-28" y="-10" width="56" height="20" rx="2" fill="#C2C8D2" stroke="#3A3F4A" stroke-width="1.2"/>
          <text x="0" y="-1" text-anchor="middle" font-family="Inter, system-ui, sans-serif" font-weight="900" font-size="5.4" fill="#1A1F2E" letter-spacing="0.4">DOT · GVWR</text>
          <text x="0" y="7" text-anchor="middle" font-family="Inter, system-ui, sans-serif" font-weight="700" font-size="4.8" fill="#3A3F4A" letter-spacing="0.3">80,000 LBS</text>
        </g>
      </g>
      <g class="country-MX" style="display:none">
        <g transform="translate(660 470)">
          <rect x="-44" y="-12" width="88" height="24" rx="4" fill="#FFD23A" stroke="#1A1F2E" stroke-width="1.4"/>
          <text x="0" y="-2" text-anchor="middle" font-family="Inter, system-ui, sans-serif" font-weight="900" font-size="6.4" fill="#1A1F2E" letter-spacing="0.3">PRECAUCIÓN · CAJA ALZADA</text>
          <text x="0" y="8" text-anchor="middle" font-family="Inter, system-ui, sans-serif" font-weight="800" font-size="5" fill="#1A1F2E" letter-spacing="0.3">REVISE LÍNEAS AÉREAS</text>
        </g>
        <g transform="translate(880 470)">
          <rect x="-28" y="-10" width="56" height="20" rx="2" fill="#C2C8D2" stroke="#3A3F4A" stroke-width="1.2"/>
          <text x="0" y="-1" text-anchor="middle" font-family="Inter, system-ui, sans-serif" font-weight="900" font-size="5.4" fill="#1A1F2E" letter-spacing="0.4">NOM-SCT</text>
          <text x="0" y="7" text-anchor="middle" font-family="Inter, system-ui, sans-serif" font-weight="700" font-size="4.8" fill="#3A3F4A" letter-spacing="0.3">PBV 36 287 kg</text>
        </g>
      </g>
      <g class="country-CA" style="display:none">
        <g transform="translate(660 470)">
          <rect x="-44" y="-12" width="88" height="24" rx="4" fill="#FFD23A" stroke="#1A1F2E" stroke-width="1.4"/>
          <text x="0" y="-2" text-anchor="middle" font-family="Inter, system-ui, sans-serif" font-weight="900" font-size="5.8" fill="#1A1F2E" letter-spacing="0.3">RAISED BED · BENNE LEVÉE</text>
          <text x="0" y="8" text-anchor="middle" font-family="Inter, system-ui, sans-serif" font-weight="800" font-size="4.8" fill="#1A1F2E" letter-spacing="0.3">OVERHEAD · LIGNES</text>
        </g>
        <g transform="translate(880 470)">
          <rect x="-28" y="-10" width="56" height="20" rx="2" fill="#C2C8D2" stroke="#3A3F4A" stroke-width="1.2"/>
          <text x="0" y="-1" text-anchor="middle" font-family="Inter, system-ui, sans-serif" font-weight="900" font-size="5.4" fill="#1A1F2E" letter-spacing="0.4">TC · PNBV</text>
          <text x="0" y="7" text-anchor="middle" font-family="Inter, system-ui, sans-serif" font-weight="700" font-size="4.8" fill="#3A3F4A" letter-spacing="0.3">36 287 kg</text>
        </g>
      </g>
    </g>
  </g>

  <!-- Stowed front telescoping hydraulic hoist (folded flat, idle during load) -->
  <g filter="url(#rigShadow)">
    <rect x="526" y="480" width="110" height="18" rx="8" fill="url(#hoistChrome)"/>
    <rect class="hoist-glint" x="530" y="483" width="102" height="4" rx="2" fill="#FFFFFF"/>
    <g stroke="#5A606D" stroke-width="1.4" opacity="0.7">
      <line x1="558" y1="480" x2="558" y2="498"/>
      <line x1="588" y1="480" x2="588" y2="498"/>
      <line x1="614" y1="480" x2="614" y2="498"/>
    </g>
    <rect x="518" y="490" width="20" height="14" rx="4" fill="#3A3F4A"/>
    <circle cx="528" cy="497" r="4" fill="#1F2330"/>
  </g>

  <!-- Chassis underframe + bogie -->
  <g filter="url(#rigShadow)"><rect x="520" y="498" width="510" height="12" rx="2" fill="#1A1F2E"/></g>
  <!-- Rear hinge pivot (bed rotates here when dumping) -->
  <circle cx="1010" cy="504" r="6" fill="#3A3F4A"/>
  <circle cx="1010" cy="504" r="2.6" fill="#7E8593"/>
  <use href="#wheelChock" x="572" y="540"/>

  <!-- Trailer bogie wheels -->
  <g transform="translate(620 540)"><use href="#trailerWheel"/></g>
  <g transform="translate(680 540)"><use href="#trailerWheel"/></g>
  <g transform="translate(900 540)"><use href="#trailerWheel"/></g>
  <g transform="translate(960 540)"><use href="#trailerWheel"/></g>
  <!-- Landing-gear legs (parked) -->
  <rect x="560" y="510" width="10" height="30" fill="#5A606D"/>
  <rect x="556" y="538" width="18" height="6" fill="#3A3F4A"/>


  <!-- ============================================================
       FALLING GRAVEL STREAM from the tipped bucket into the open top
       ============================================================ -->
  <g class="product-flow-fade">
    <line class="product-flow" x1="466" y1="318" x2="560" y2="338"
          stroke="url(#aggFill)" stroke-width="14" stroke-linecap="round"/>
    <line class="product-flow" x1="466" y1="318" x2="560" y2="338"
          stroke="#CFC4AB" stroke-width="5" stroke-linecap="round" opacity="0.5"/>
  </g>

  <!-- ============================================================
       DUST PUFFS at the load impact point (during fill)
       ============================================================ -->
  <g filter="url(#softBlur)">
    <circle class="dust-puff"    cx="560" cy="338" r="7" fill="url(#dustPuff)"/>
    <circle class="dust-puff p2" cx="582" cy="340" r="6" fill="url(#dustPuff)"/>
    <circle class="dust-puff p3" cx="570" cy="334" r="5" fill="url(#dustPuff)"/>
  </g>


  <!-- ============================================================
       SAFETY CONES
       ============================================================ -->
  <g>
    <g transform="translate(440 552)">
      <polygon points="-7,0 7,0 4.6,-12 -4.6,-12" fill="#FF7A1F"/>
      <polygon points="-5.4,-6 5.4,-6 4.6,-9 -4.6,-9" fill="#FFFFFF" opacity="0.85"/>
      <polygon points="-3.4,-12 3.4,-12 3,-15 -3,-15" fill="#FF7A1F"/>
      <ellipse cx="0" cy="0" rx="9" ry="2" fill="#1A1F2E" opacity="0.35"/>
    </g>
    <g transform="translate(1050 552)">
      <polygon points="-7,0 7,0 4.6,-12 -4.6,-12" fill="#FF7A1F"/>
      <polygon points="-5.4,-6 5.4,-6 4.6,-9 -4.6,-9" fill="#FFFFFF" opacity="0.85"/>
      <polygon points="-3.4,-12 3.4,-12 3,-15 -3,-15" fill="#FF7A1F"/>
      <ellipse cx="0" cy="0" rx="9" ry="2" fill="#1A1F2E" opacity="0.35"/>
    </g>
  </g>


  <!-- ============================================================
       SCALE / LOAD-CELL READOUT (net tons loaded)
       ============================================================ -->
  <g filter="url(#rigShadow)" transform="translate(1056 360)">
    <rect x="0" y="0" width="96" height="70" rx="4" fill="#3A3F4A"/>
    <rect x="0" y="0" width="96" height="6"  fill="#5A606D"/>
    <rect x="6" y="12" width="84" height="26" fill="#0F1320"/>
    <text x="84" y="32" text-anchor="end" font-family="Courier New, ui-monospace, monospace"
          font-weight="900" font-size="18" fill="#43E26A" letter-spacing="1.2">22.4</text>
    <text x="10" y="50" font-family="Inter, system-ui, sans-serif" font-weight="700" font-size="7" fill="#43E26A" letter-spacing="0.6">NET TONS</text>
    <rect x="6" y="56" width="84" height="6" fill="#1A1F2E"/>
    <rect class="scale-bar" x="6" y="56" width="84" height="6" fill="#43E26A"/>
    <text x="48" y="5" text-anchor="middle" font-family="Inter, system-ui, sans-serif" font-weight="900" font-size="4.6" fill="#FFFFFF" letter-spacing="0.5">YARD LOAD-CELL</text>
  </g>


  <!-- ============================================================
       HUD OVERLAYS
       ============================================================ -->
  <g class="brand-lockup" transform="translate(50 40)">
    <g class="brand-mark">
      <circle cx="24" cy="14" r="15" fill="url(#brandIridescent)"/>
      <path d="M 24 6 C 22 10 19 13 20.4 17 C 19 16.2 18 14 18.8 12.4 C 17 14 16.6 17.4 19 20 C 17.8 19 17.8 16.6 17.8 19 C 19.4 21.6 22 22.2 24 22.2 C 26 22.2 28.6 21.6 30.2 19 C 30.2 16.6 30.2 19 29 20 C 31.4 17.4 31 14 29.2 12.4 C 30 14 29 16.2 27.6 17 C 29 13 26 10 24 6 Z" fill="#FFFFFF"/>
    </g>
    <text class="brand-word" x="48" y="14" font-family="Inter, system-ui, sans-serif"
          font-weight="800" font-size="18" letter-spacing="2.5" fill="#5B3FBF">EUSOTRIP</text>
    <text x="48" y="28" font-family="Inter, system-ui, sans-serif"
          font-weight="500" font-size="8" letter-spacing="3" fill="#9B7FD9" opacity="0.55">BY EUSORONE</text>
  </g>

  <g>
    <rect x="1052" y="58" width="100" height="32" rx="16" ry="16" fill="url(#brandIridescent)" stroke="#FFFFFF" stroke-width="1.5" stroke-opacity="0.5"/>
    <g transform="translate(1066 70)" fill="#FFFFFF"><rect x="0" y="2" width="8" height="6" rx="1"/><rect x="9" y="0" width="6" height="8" rx="1"/><circle cx="3" cy="10" r="1.5"/><circle cx="12" cy="10" r="1.5"/></g>
    <text x="1115" y="79" text-anchor="middle" font-family="Inter, system-ui, sans-serif"
          font-weight="800" font-size="14" letter-spacing="1.8" fill="#FFFFFF">TRUCK</text>
  </g>

  <g class="load-pill">
    <rect x="60" y="100" width="178" height="32" rx="16" ry="16" fill="#0AC2C2" opacity="0.95"/>
    <circle cx="80" cy="116" r="5" fill="#FFFFFF" opacity="0.95"/>
    <circle cx="80" cy="116" r="2.5" fill="#0AC2C2"/>
    <text x="100" y="122" font-family="Inter, system-ui, sans-serif"
          font-weight="800" font-size="13" letter-spacing="2.4"
          fill="#FFFFFF" data-bind="state_label">LOADING</text>
  </g>

  <g opacity="0.9">
    <text x="60" y="78" font-family="Inter, system-ui, sans-serif"
          font-weight="700" font-size="13" letter-spacing="2" fill="#5B3FBF"
          data-bind="equipment_label">END-DUMP</text>
    <line x1="60" y1="86" x2="240" y2="86" stroke="#9B7FD9" stroke-width="2" stroke-linecap="round"/>
    <text x="60" y="148" font-family="Inter, system-ui, sans-serif"
          font-weight="500" font-size="10" letter-spacing="1.2" fill="#7A5AB8"
          data-bind="equipment_subtitle">SAND &#183; GRAVEL &#183; AGGREGATE</text>
  </g>

  <g opacity="0.95">
    <rect x="60" y="160" width="320" height="22" rx="6" ry="6"
          fill="#FFFFFF" fill-opacity="0.95" stroke="#9B7FD9" stroke-width="1" stroke-opacity="0.45"/>
    <text data-bind="dock_id" x="72" y="176" font-family="Inter, system-ui, sans-serif"
          font-weight="700" font-size="11" letter-spacing="1.4" fill="#5B3FBF">QUARRY BAY 4 &#183; TOP-LOAD</text>
    <text data-bind="eta_minutes" x="370" y="176" text-anchor="end"
          font-family="Inter, system-ui, sans-serif"
          font-weight="600" font-size="10" letter-spacing="0.8" fill="#7A5AB8">ETA 8 MIN</text>
  </g>
  <g opacity="0.95">
    <rect x="60" y="190" width="320" height="22" rx="6" ry="6"
          fill="#FFFFFF" fill-opacity="0.95" stroke="#9B7FD9" stroke-width="1" stroke-opacity="0.45"/>
    <text data-bind="commodity_label" x="72" y="206" font-family="Inter, system-ui, sans-serif"
          font-weight="700" font-size="11" letter-spacing="1.4" fill="#5B3FBF">3/4" CRUSHED STONE</text>
  </g>

  <g>
    <rect x="60" y="555" width="1080" height="6" rx="3" fill="#E5E2EF" opacity="0.6"/>
    <rect class="progress-fill" x="60" y="555" width="540" height="6" rx="3"
          fill="#0AC2C2"
          style="--load-progress: 0.5;"/>
    <text x="1140" y="548" text-anchor="end"
          font-family="Inter, system-ui, sans-serif"
          font-weight="700" font-size="10" letter-spacing="1.4"
          fill="#5B3FBF" opacity="0.85"><tspan data-bind="weight_label">44,800 LBS</tspan> &#183; <tspan data-bind="progress_pct">50</tspan>%</text>
  </g>

  <g class="chevron">
    <path d="M 70 540 L 55 525 L 55 555 Z" fill="#9B7FD9"/>
  </g>

  <!-- Iridescent rounded card border -->
  <rect class="card-border" x="20" y="20" width="1160" height="560" rx="22"
        fill="none" stroke="url(#brandIridescent)" stroke-width="2.5" pointer-events="none"/>
</svg>
