<?xml version="1.0" encoding="UTF-8"?>
<svg xmlns="http://www.w3.org/2000/svg" viewBox="0 0 1200 600" width="1200" height="600">
  <style><![CDATA[
    /* ========== CHASSIS BOB — the body floats on suspension ========== */
    .chassis-bob   { animation: chassis-bob 0.5s ease-in-out infinite; }
    @keyframes chassis-bob {
      0%, 100% { transform: translateY(0); }
      50%      { transform: translateY(-1.5px); }
    }
    .cab-sway      { animation: cab-sway 0.5s ease-in-out infinite -0.12s; }
    @keyframes cab-sway {
      0%, 100% { transform: translateY(0)    rotate(0deg); }
      50%      { transform: translateY(-0.8px) rotate(-0.15deg); }
    }
    .mudflap       { transform-origin: 1075px 440px;
                      animation: mudflap-flutter 0.42s ease-in-out infinite; }
    @keyframes mudflap-flutter {
      0%, 100% { transform: rotate(0deg)   translateX(0); }
      50%      { transform: rotate(-4deg)  translateX(0.4px); }
    }
    .streak        { animation: streak-drift 1.2s linear infinite; opacity: 0; }
    .streak.s2     { animation-delay: -0.4s; }
    .streak.s3     { animation-delay: -0.8s; }
    @keyframes streak-drift {
      0%   { transform: translateX(0);    opacity: 0; }
      15%  { opacity: 0.45; }
      85%  { opacity: 0.45; }
      100% { transform: translateX(180px); opacity: 0; }
    }
    .bow-air       { animation: bow-air-pulse 1.4s ease-in-out infinite;
                      transform-origin: 180px 410px; }
    @keyframes bow-air-pulse {
      0%, 100% { transform: scale(1)   translateX(0);   opacity: 0.18; }
      50%      { transform: scale(1.1) translateX(-3px); opacity: 0.32; }
    }
    .tire-dust     { animation: tire-dust 1.6s ease-out infinite; }
    @keyframes tire-dust {
      0%, 80%, 100% { opacity: 0; transform: translateX(0) scale(0.4); }
      8%, 18%       { opacity: 0.45; transform: translateX(0) scale(0.4); }
      35%           { opacity: 0;    transform: translateX(14px) scale(1); }
    }

    /* ========== ORIGINAL MOTION VOCAB ========== */
    .sheen        { animation: sheen-sweep 5s ease-in-out infinite;
                      transform-box: fill-box; }
    @keyframes sheen-sweep {
      0%   { transform: translateX(-220px); opacity: 0; }
      30%  { opacity: 0.5; }
      70%  { opacity: 0.5; }
      100% { transform: translateX(220px); opacity: 0; }
    }
    .wordmark     { animation: wordmark-breath 6s ease-in-out infinite; }
    @keyframes wordmark-breath {
      0%, 100% { opacity: 0.14; }
      50%      { opacity: 0.24; }
    }
    .badge-e      { transform-box: fill-box; transform-origin: center;
                      animation: badge-pulse 3.2s ease-in-out infinite; }
    @keyframes badge-pulse {
      0%, 100% { transform: scale(1);    opacity: 0.85; }
      50%      { transform: scale(1.06); opacity: 1; }
    }
    .headlight-glow { animation: headlight-pulse 4s ease-in-out infinite; }
    @keyframes headlight-pulse {
      0%, 100% { opacity: 0.85; }
      50%      { opacity: 1; }
    }
    .airlines     { animation: airlines-vibrate 0.55s ease-in-out infinite;
                      transform-box: fill-box; }
    @keyframes airlines-vibrate {
      0%, 100% { transform: translateY(0); }
      50%      { transform: translateY(0.6px); }
    }
    .chevron      { animation: chevron-pulse 2.2s ease-in-out infinite; }
    @keyframes chevron-pulse {
      0%, 100% { opacity: 0.3; }
      50%      { opacity: 0.65; }
    }
    .sky-shimmer  { animation: sky-drift 14s linear infinite;
                      transform-box: fill-box; }
    @keyframes sky-drift {
      from { transform: translateX(-40px); opacity: 0.12; }
      50%  { opacity: 0.22; }
      to   { transform: translateX(40px); opacity: 0.12; }
    }
    .ground-line  { stroke-dasharray: 14 9;
                      animation: ground-dash 1.6s linear infinite; }
    @keyframes ground-dash {
      from { stroke-dashoffset: 0; }
      to   { stroke-dashoffset: -46; }
    }
    /* ========== BRAND LOCKUP ========== */
    .brand-mark {
      transform-box: fill-box; transform-origin: center;
      animation: brand-pulse 3.6s ease-in-out infinite;
    }
    @keyframes brand-pulse {
      0%, 100% { transform: scale(1);    opacity: 0.92; }
      50%      { transform: scale(1.05); opacity: 1; }
    }
    .brand-word { animation: brand-word-breath 6s ease-in-out infinite; }
    @keyframes brand-word-breath {
      0%, 100% { opacity: 0.78; }
      50%      { opacity: 1; }
    }

    @media (prefers-reduced-motion: reduce) {
      .chassis-bob, .cab-sway, .mudflap, .streak, .bow-air, .tire-dust,
      .sheen, .wordmark, .badge-e, .headlight-glow, .airlines, .chevron,
      .sky-shimmer, .ground-line, .brand-mark, .brand-word { animation: none !important; }
    }
  ]]></style>

  <!--
    EusoTrip Animation Design System
    02 · 53' Reefer · Idle silhouette
    EquipmentKind: reefer
    Mode: TRUCK · Unit: PLT (pallets) · Cargo: refrigerated
  -->
  <defs>
    <linearGradient id="brandIridescent" x1="0" y1="0" x2="1" y2="1">
      <stop offset="0%" stop-color="#1473FF"/>
      <stop offset="50%" stop-color="#6E4DFF"/>
      <stop offset="100%" stop-color="#BE01FF"/>
    </linearGradient>
    <linearGradient id="sky" x1="0" y1="0" x2="0" y2="1">
      <stop offset="0%" stop-color="#EEF1FA"/><stop offset="55%" stop-color="#F5EEFC"/><stop offset="100%" stop-color="#EFF8FA"/>
    </linearGradient>
    <linearGradient id="cab" x1="0" y1="0" x2="0" y2="1">
      <stop offset="0%" stop-color="#2B85FF"/><stop offset="55%" stop-color="#6E4DFF"/><stop offset="100%" stop-color="#A726E8"/>
    </linearGradient>
    <linearGradient id="cabRoof" x1="0" y1="0" x2="0" y2="1">
      <stop offset="0%" stop-color="#FFFFFF" stop-opacity="0.55"/><stop offset="100%" stop-color="#FFFFFF" stop-opacity="0"/>
    </linearGradient>
    <!-- Reefer body: cyan-tinged white-grey -->
    <linearGradient id="reeferBody" x1="0" y1="0" x2="0" y2="1">
      <stop offset="0%" stop-color="#F5FBFD"/>
      <stop offset="65%" stop-color="#E6F4FB"/>
      <stop offset="100%" stop-color="#BFE0EE"/>
    </linearGradient>
    <linearGradient id="trailerSheen" x1="0" y1="0" x2="1" y2="0">
      <stop offset="0%" stop-color="#FFFFFF" stop-opacity="0"/><stop offset="40%" stop-color="#FFFFFF" stop-opacity="0.45"/><stop offset="60%" stop-color="#FFFFFF" stop-opacity="0.45"/><stop offset="100%" stop-color="#FFFFFF" stop-opacity="0"/>
    </linearGradient>
    <linearGradient id="windowGlass" x1="0" y1="0" x2="0" y2="1">
      <stop offset="0%" stop-color="#BFD3FF"/><stop offset="100%" stop-color="#7E9DDB"/>
    </linearGradient>
    <linearGradient id="reeferUnit" x1="0" y1="0" x2="0" y2="1">
      <stop offset="0%" stop-color="#3DD4D4"/>
      <stop offset="100%" stop-color="#0AC2C2"/>
    </linearGradient>
    <radialGradient id="rim" cx="0.5" cy="0.5" r="0.5">
      <stop offset="0%" stop-color="#5A606D"/><stop offset="80%" stop-color="#3A3F4A"/><stop offset="100%" stop-color="#1F2330"/>
    </radialGradient>
    <filter id="rigShadow" x="-10%" y="-10%" width="120%" height="130%">
      <feGaussianBlur in="SourceAlpha" stdDeviation="6"/><feOffset dx="0" dy="4" result="offsetBlur"/>
      <feComponentTransfer><feFuncA type="linear" slope="0.18"/></feComponentTransfer>
      <feMerge><feMergeNode/><feMergeNode in="SourceGraphic"/></feMerge>
    </filter>
      <linearGradient id="bowHazeGrad" x1="0" y1="0" x2="0" y2="1">
      <stop offset="0%" stop-color="#FFFFFF" stop-opacity="0.75"/>
      <stop offset="100%" stop-color="#FFFFFF" stop-opacity="0"/>
    </linearGradient>
    <radialGradient id="bowHaze" cx="0.5" cy="0.5" r="0.5">
      <stop offset="0%" stop-color="#FFFFFF" stop-opacity="0.75"/>
      <stop offset="100%" stop-color="#FFFFFF" stop-opacity="0"/>
    </radialGradient>
    <radialGradient id="dustCloud" cx="0.5" cy="0.5" r="0.5">
      <stop offset="0%" stop-color="#C8B89A" stop-opacity="0.55"/>
      <stop offset="100%" stop-color="#C8B89A" stop-opacity="0"/>
    </radialGradient>
    <filter id="softBlur" x="-50%" y="-50%" width="200%" height="200%">
      <feGaussianBlur stdDeviation="3"/>
    </filter>
  </defs>
  <g class="chassis-bob">

  <rect width="1200" height="600" fill="url(#sky)"/>
  <rect x="0" y="380" width="1200" height="70" fill="#FFFFFF" opacity="0.18"/>
  <line x1="60" y1="475" x2="1140" y2="475" stroke="#9B7FD9" stroke-width="4" stroke-dasharray="14 9" stroke-linecap="round" opacity="0.55"/>
  <ellipse cx="640" cy="486" rx="430" ry="7" fill="#1A1F2E" opacity="0.13"/>

  <!-- ========== TRACTOR (CAB) — canonical Class-8 template ========== -->
  <g filter="url(#rigShadow)">
    <path d="M 460 250 L 460 460 L 295 460 L 295 240 Q 295 230 305 230 L 450 230 Q 460 230 460 240 Z" fill="url(#cab)"/>
    <path d="M 295 240 L 295 460 L 195 460 L 195 320 Q 195 300 205 290 L 245 245 Q 255 235 265 235 L 290 235 Q 295 235 295 240 Z" fill="url(#cab)"/>
    <rect x="295" y="232" width="160" height="6" rx="3" fill="url(#cabRoof)"/>
    <path d="M 283 252 Q 267 248 253 252 L 213 295 Q 213 312 230 312 L 283 312 Z" fill="url(#windowGlass)" opacity="0.95"/>
    <rect x="205" y="320" width="74" height="58" rx="6" fill="url(#windowGlass)" opacity="0.85"/>
    <line x1="279" y1="320" x2="279" y2="378" stroke="#0A1F3F" stroke-width="1.5" opacity="0.4"/>
    <rect x="315" y="262" width="120" height="22" rx="4" fill="url(#windowGlass)" opacity="0.7"/>
    <rect x="211" y="345" width="6" height="22" rx="2" fill="#1A1F2E" opacity="0.7"/>
    <ellipse cx="200" cy="345" rx="8" ry="6" fill="#FFE680"/>
    <ellipse cx="200" cy="345" rx="4" ry="3" fill="#FFFFFF"/>
    <rect x="195" y="365" width="14" height="55" rx="3" fill="#0A1F3F" opacity="0.85"/>
    <g stroke="#3A3F4A" stroke-width="1.5">
      <line x1="197" y1="372" x2="207" y2="372"/><line x1="197" y1="380" x2="207" y2="380"/><line x1="197" y1="388" x2="207" y2="388"/><line x1="197" y1="396" x2="207" y2="396"/><line x1="197" y1="404" x2="207" y2="404"/><line x1="197" y1="412" x2="207" y2="412"/>
    </g>
    <rect x="191" y="435" width="26" height="22" rx="4" fill="#1A1F2E"/>
    <rect x="271" y="438" width="22" height="20" rx="2" fill="#1A1F2E" opacity="0.85"/>
    <line x1="205" y1="328" x2="225" y2="326" stroke="#1A1F2E" stroke-width="2.5" stroke-linecap="round"/>
    <line x1="205" y1="378" x2="225" y2="376" stroke="#1A1F2E" stroke-width="2.5" stroke-linecap="round"/>
    <rect x="222" y="320" width="14" height="64" rx="3" fill="#1A1F2E"/>
    <rect x="225" y="324" width="8" height="42" rx="1.5" fill="url(#windowGlass)" opacity="0.9"/>
    <rect x="225" y="370" width="8" height="10" rx="1.5" fill="url(#windowGlass)" opacity="0.75"/>
    <rect x="288" y="200" width="8" height="60" rx="3" fill="#7A7F88"/>
    <rect x="288" y="200" width="8" height="6" rx="3" fill="#3A3F4A"/>
    <circle cx="377" cy="395" r="9" fill="#FFFFFF" opacity="0.85"/>
    <text x="377" y="399" text-anchor="middle" font-family="Inter, system-ui, sans-serif" font-weight="800" font-size="9" fill="#5B3FBF">E</text>
  </g>

  <!-- ========== REEFER UNIT (front of trailer — refrigeration nose) ========== -->
  <g filter="url(#rigShadow)">
    <rect x="475" y="170" width="80" height="100" rx="6" fill="url(#reeferUnit)"/>
    <rect x="475" y="170" width="80" height="4" rx="2" fill="#FFFFFF" opacity="0.5"/>
    <!-- Vent grille -->
    <g stroke="#FFFFFF" stroke-width="1.5" opacity="0.7">
      <line x1="488" y1="195" x2="540" y2="195"/>
      <line x1="488" y1="205" x2="540" y2="205"/>
      <line x1="488" y1="215" x2="540" y2="215"/>
      <line x1="488" y1="225" x2="540" y2="225"/>
      <line x1="488" y1="235" x2="540" y2="235"/>
      <line x1="488" y1="245" x2="540" y2="245"/>
    </g>
    <!-- Snowflake icon -->
    <g transform="translate(515 180)" stroke="#FFFFFF" stroke-width="1.5" stroke-linecap="round" fill="none" opacity="0.9">
      <line x1="0" y1="-6" x2="0" y2="6"/>
      <line x1="-6" y1="0" x2="6" y2="0"/>
      <line x1="-4" y1="-4" x2="4" y2="4"/>
      <line x1="-4" y1="4" x2="4" y2="-4"/>
    </g>
  </g>

  <!-- ========== REEFER TRAILER BODY ========== -->
  <g filter="url(#rigShadow)">
    <rect x="555" y="170" width="520" height="290" rx="10" fill="url(#reeferBody)" stroke="#A8C8D8" stroke-width="1"/>
    <rect x="555" y="170" width="520" height="6" rx="3" fill="#FFFFFF" opacity="0.55"/>
    <rect x="555" y="172" width="520" height="286" rx="9" fill="url(#trailerSheen)" opacity="0.4"/>
    <!-- Reefer body has insulation seams (less than dry van) -->
    <g stroke="#A8C8D8" stroke-width="1" opacity="0.6">
      <line x1="700" y1="180" x2="700" y2="450"/>
      <line x1="830" y1="180" x2="830" y2="450"/>
      <line x1="960" y1="180" x2="960" y2="450"/>
    </g>
    <rect x="555" y="445" width="520" height="15" rx="3" fill="#3A3F4A"/>
    <!-- Rear door -->
    <rect x="1058" y="180" width="14" height="270" fill="#BFE0EE"/>
    <rect x="1058" y="180" width="3" height="270" fill="#1A1F2E" opacity="0.4"/>
    <rect x="1063" y="220" width="6" height="14" rx="1" fill="#3A3F4A"/>
    <rect x="1063" y="290" width="6" height="14" rx="1" fill="#3A3F4A"/>
    <rect x="1063" y="360" width="6" height="14" rx="1" fill="#3A3F4A"/>
    <circle cx="1066" cy="328" r="4" fill="#1A1F2E"/>
    <!-- Snowflake watermark inside body (tells the cargo story) -->
    <g transform="translate(815 315)" stroke="#0AC2C2" stroke-width="2" stroke-linecap="round" fill="none" opacity="0.22">
      <line x1="0" y1="-32" x2="0" y2="32"/>
      <line x1="-32" y1="0" x2="32" y2="0"/>
      <line x1="-22" y1="-22" x2="22" y2="22"/>
      <line x1="-22" y1="22" x2="22" y2="-22"/>
      <!-- branches -->
      <line x1="0" y1="-32" x2="-6" y2="-26"/><line x1="0" y1="-32" x2="6" y2="-26"/>
      <line x1="0" y1="32" x2="-6" y2="26"/><line x1="0" y1="32" x2="6" y2="26"/>
      <line x1="-32" y1="0" x2="-26" y2="-6"/><line x1="-32" y1="0" x2="-26" y2="6"/>
      <line x1="32" y1="0" x2="26" y2="-6"/><line x1="32" y1="0" x2="26" y2="6"/>
    </g>
    <!-- Drifting snow particles inside body -->
    <g fill="#0AC2C2" opacity="0.5">
      <circle cx="650" cy="240" r="3"/><circle cx="730" cy="280" r="2.5"/><circle cx="690" cy="350" r="3"/>
      <circle cx="900" cy="260" r="2.5"/><circle cx="970" cy="320" r="3"/><circle cx="940" cy="400" r="2.5"/>
    </g>
    <!-- Temperature display (prominent — the reefer signature) -->
    <g>
      <rect x="588" y="200" width="80" height="44" rx="6" fill="#FFFFFF" stroke="#0AC2C2" stroke-width="1.5"/>
      <text x="628" y="226" text-anchor="middle" font-family="Inter, system-ui, sans-serif" font-weight="800" font-size="20" fill="#0AC2C2">7°F</text>
      <text x="628" y="238" text-anchor="middle" font-family="Inter, system-ui, sans-serif" font-weight="600" font-size="8" fill="#5B3FBF" letter-spacing="1">SETPOINT</text>
    </g>
    <!-- DOT reflective strips -->
    <g>
      <rect x="558" y="438" width="20" height="6" fill="#E5350D"/><rect x="578" y="438" width="20" height="6" fill="#FFFFFF"/><rect x="598" y="438" width="20" height="6" fill="#E5350D"/>
      <rect x="990" y="438" width="20" height="6" fill="#FFFFFF"/><rect x="1010" y="438" width="20" height="6" fill="#E5350D"/><rect x="1030" y="438" width="20" height="6" fill="#FFFFFF"/><rect x="1050" y="438" width="20" height="6" fill="#E5350D"/>
    </g>
    <rect x="1072" y="440" width="6" height="32" rx="1" fill="#1A1A1A"/>
  </g>

  <!-- King pin -->
  <rect x="455" y="445" width="25" height="15" fill="#3A3F4A"/>
  <circle cx="467" cy="453" r="5" fill="#1A1F2E"/>

  <!-- Wheels (group definition) -->
  
  </g>
  <g id="wheelGroup">
    <circle cx="0" cy="0" r="32" fill="#1A1A1A"/>
    <circle cx="0" cy="0" r="22" fill="url(#rim)"/>
    <circle cx="0" cy="0" r="7" fill="#7A7F88"/>
    <g stroke="#3A3F4A" stroke-width="2.5" stroke-linecap="round">
      <line x1="0" y1="-19" x2="0" y2="-9"/><line x1="18" y1="-6" x2="9" y2="-3"/>
      <line x1="11" y1="16" x2="6" y2="8"/><line x1="-11" y1="16" x2="-6" y2="8"/>
      <line x1="-18" y1="-6" x2="-9" y2="-3"/>
    </g>
    <ellipse cx="-6" cy="-12" rx="6" ry="3" fill="#FFFFFF" opacity="0.35"/>
  </g>
  <g transform="translate(420 460)">
    <g><use href="#wheelGroup"/><animateTransform attributeName="transform" type="rotate" from="0" to="-360" dur="1.6s" repeatCount="indefinite"/></g>
  </g>
  <g transform="translate(280 460)">
    <g><use href="#wheelGroup"/><animateTransform attributeName="transform" type="rotate" from="0" to="-360" dur="1.6s" repeatCount="indefinite"/></g>
  </g>
  <g transform="translate(950 460)">
    <g><use href="#wheelGroup"/><animateTransform attributeName="transform" type="rotate" from="0" to="-360" dur="1.6s" repeatCount="indefinite"/></g>
  </g>
  <g transform="translate(1020 460)">
    <g><use href="#wheelGroup"/><animateTransform attributeName="transform" type="rotate" from="0" to="-360" dur="1.6s" repeatCount="indefinite"/></g>
  </g>

  <!-- Air lines -->
  <path d="M 458 380 Q 470 370 482 358" stroke="#FF8C00" stroke-width="3" fill="none" stroke-linecap="round" opacity="0.85"/>
  <path d="M 458 388 Q 470 380 482 370" stroke="#1473FF" stroke-width="3" fill="none" stroke-linecap="round" opacity="0.85"/>

  <!-- Mode badge -->
  <g><rect x="1052" y="58" width="100" height="32" rx="16" ry="16" fill="#1473FF"/>
    <g transform="translate(1066 70)" fill="#FFFFFF"><rect x="0" y="2" width="8" height="6" rx="1"/><rect x="9" y="0" width="6" height="8" rx="1"/><circle cx="3" cy="10" r="1.5"/><circle cx="12" cy="10" r="1.5"/></g>
    <text x="1115" y="79" text-anchor="middle" font-family="Inter, system-ui, sans-serif" font-weight="800" font-size="14" letter-spacing="1.8" fill="#FFFFFF">TRUCK</text></g>
  <!-- Unit badge -->
  <g><rect x="1062" y="100" width="80" height="28" rx="14" ry="14" fill="#FFFFFF" stroke="#9B7FD9" stroke-width="1.5"/>
    <text x="1102" y="119" text-anchor="middle" font-family="Inter, system-ui, sans-serif" font-weight="800" font-size="13" letter-spacing="1.8" fill="#5B3FBF">PLT</text></g>
  <!-- Equipment label -->
  <g opacity="0.75">
    <text x="60" y="78" font-family="Inter, system-ui, sans-serif" font-weight="700" font-size="13" letter-spacing="2" fill="#5B3FBF">53' REEFER</text>
    <line x1="60" y1="86" x2="170" y2="86" stroke="#9B7FD9" stroke-width="2" stroke-linecap="round"/>
    <text x="60" y="106" font-family="Inter, system-ui, sans-serif" font-weight="500" font-size="11" letter-spacing="1" fill="#5B3FBF" opacity="0.7">REFRIGERATED · COLD CHAIN</text>
  </g>
  <g opacity="0.4"><path d="M 70 540 L 55 525 L 55 555 Z" fill="#9B7FD9"/></g>
  <!-- ========== SPEED STREAKS ========== -->
  <g stroke="#9B7FD9" stroke-width="2.5" stroke-linecap="round" opacity="0.5">
    <line class="streak"    x1="1090" y1="445" x2="1145" y2="445"/>
    <line class="streak s2" x1="1085" y1="455" x2="1150" y2="455"/>
    <line class="streak s3" x1="1095" y1="468" x2="1145" y2="468"/>
  </g>
  <!-- ========== BOW AIR DISPLACEMENT ========== -->
  <ellipse class="bow-air" cx="180" cy="410" rx="38" ry="55" fill="url(#bowHaze)"/>
  <!-- ========== EXHAUST PUFFS ========== -->
  <g filter="url(#softBlur)" opacity="0.5">
    <circle cx="292" cy="200" r="6" fill="#C8CDD8">
      <animate attributeName="cy" from="200" to="120" dur="2.6s" repeatCount="indefinite"/>
      <animate attributeName="r"  from="6" to="14" dur="2.6s" repeatCount="indefinite"/>
      <animate attributeName="opacity" values="0;0.55;0.55;0" keyTimes="0;0.15;0.7;1" dur="2.6s" repeatCount="indefinite"/>
    </circle>
    <circle cx="294" cy="200" r="5" fill="#C8CDD8">
      <animate attributeName="cy" from="200" to="120" dur="2.6s" begin="-0.9s" repeatCount="indefinite"/>
      <animate attributeName="r"  from="5" to="12" dur="2.6s" begin="-0.9s" repeatCount="indefinite"/>
      <animate attributeName="opacity" values="0;0.55;0.55;0" keyTimes="0;0.15;0.7;1" dur="2.6s" begin="-0.9s" repeatCount="indefinite"/>
    </circle>
    <circle cx="290" cy="200" r="4" fill="#C8CDD8">
      <animate attributeName="cy" from="200" to="120" dur="2.6s" begin="-1.7s" repeatCount="indefinite"/>
      <animate attributeName="r"  from="4" to="10" dur="2.6s" begin="-1.7s" repeatCount="indefinite"/>
      <animate attributeName="opacity" values="0;0.55;0.55;0" keyTimes="0;0.15;0.7;1" dur="2.6s" begin="-1.7s" repeatCount="indefinite"/>
    </circle>
  </g>
  <!-- ========== TIRE CONTACT DUST ========== -->
  <g filter="url(#softBlur)">
    <ellipse class="tire-dust" cx="420.0" cy="492.0" rx="14" ry="5" fill="url(#dustCloud)"/>
    <ellipse class="tire-dust" cx="280.0" cy="492.0" rx="14" ry="5" fill="url(#dustCloud)" style="animation-delay:-0.4s"/>
    <ellipse class="tire-dust" cx="950.0" cy="492.0" rx="14" ry="5" fill="url(#dustCloud)" style="animation-delay:-0.7s"/>
    <ellipse class="tire-dust" cx="1020.0" cy="492.0" rx="14" ry="5" fill="url(#dustCloud)" style="animation-delay:-1.1s"/>
  </g>

  <!-- ========== EUSOTRIP BRAND LOCKUP ========== -->
  <g class="brand-lockup" filter="url(#rigShadow)" transform="translate(490 26)">
    <!-- Iridescent E mark -->
    <g class="brand-mark">
      <circle cx="19" cy="19" r="18" fill="url(#brandIridescent)"/>
      <circle cx="19" cy="19" r="18" fill="none" stroke="#FFFFFF" stroke-width="1.5" opacity="0.4"/>
      <text x="19" y="26" text-anchor="middle" font-family="Inter, system-ui, sans-serif"
            font-weight="900" font-size="20" fill="#FFFFFF" letter-spacing="-1">E</text>
    </g>
    <!-- Wordmark -->
    <text class="brand-word" x="48" y="22" font-family="Inter, system-ui, sans-serif"
          font-weight="800" font-size="18" letter-spacing="2.5" fill="#5B3FBF">EUSOTRIP</text>
    <!-- Tagline -->
    <text x="48" y="36" font-family="Inter, system-ui, sans-serif"
          font-weight="500" font-size="8" letter-spacing="3" fill="#9B7FD9" opacity="0.55">BY EUSORONE</text>
  </g>
</svg>
