<?xml version="1.0" encoding="UTF-8"?>
<svg xmlns="http://www.w3.org/2000/svg"  width="1200" height="600" viewBox="0 50 1200 480" preserveAspectRatio="xMidYMid slice">
  <style><![CDATA[
    /* ========== CHASSIS BOB — the body floats on suspension ========== */
    .chassis-bob   { animation: chassis-bob 0.5s ease-in-out infinite; }
    @keyframes chassis-bob {
      0%, 100% { transform: translateY(0); }
      50%      { transform: translateY(-1.5px); }
    }
    .cab-sway      { animation: cab-sway 0.5s ease-in-out infinite -0.12s; }
    @keyframes cab-sway {
      0%, 100% { transform: translateY(0)    rotate(0deg); }
      50%      { transform: translateY(-0.8px) rotate(-0.15deg); }
    }
    /* The chained cars rock micro-amounts on their tie-downs as the rig rolls —
       each deck phase-offset so the load never moves as one rigid mass. */
    .car-rock-a    { transform-box: fill-box; transform-origin: bottom center;
                     animation: car-rock 0.62s ease-in-out infinite; }
    .car-rock-b    { transform-box: fill-box; transform-origin: bottom center;
                     animation: car-rock 0.62s ease-in-out infinite -0.21s; }
    .car-rock-c    { transform-box: fill-box; transform-origin: bottom center;
                     animation: car-rock 0.62s ease-in-out infinite -0.4s; }
    @keyframes car-rock {
      0%, 100% { transform: rotate(0deg) translateY(0); }
      50%      { transform: rotate(0.25deg) translateY(-0.5px); }
    }
    .mudflap       { transform-origin: 1075px 440px;
                      animation: mudflap-flutter 0.42s ease-in-out infinite; }
    @keyframes mudflap-flutter {
      0%, 100% { transform: rotate(0deg)   translateX(0); }
      50%      { transform: rotate(-4deg)  translateX(0.4px); }
    }
    .streak        { animation: streak-drift 1.2s linear infinite; opacity: 0; }
    .streak.s2     { animation-delay: -0.4s; }
    .streak.s3     { animation-delay: -0.8s; }
    @keyframes streak-drift {
      0%   { transform: translateX(0);    opacity: 0; }
      15%  { opacity: 0.45; }
      85%  { opacity: 0.45; }
      100% { transform: translateX(180px); opacity: 0; }
    }
    .bow-air       { animation: bow-air-pulse 1.4s ease-in-out infinite;
                      transform-origin: 180px 410px; }
    @keyframes bow-air-pulse {
      0%, 100% { transform: scale(1)   translateX(0);   opacity: 0.18; }
      50%      { transform: scale(1.1) translateX(-3px); opacity: 0.32; }
    }
    .tire-dust     { animation: tire-dust 1.6s ease-out infinite; }
    @keyframes tire-dust {
      0%, 80%, 100% { opacity: 0; transform: translateX(0) scale(0.4); }
      8%, 18%       { opacity: 0.45; transform: translateX(0) scale(0.4); }
      35%           { opacity: 0;    transform: translateX(14px) scale(1); }
    }

    /* ========== ORIGINAL MOTION VOCAB ========== */
    .sheen        { animation: sheen-sweep 5s ease-in-out infinite;
                      transform-box: fill-box; }
    @keyframes sheen-sweep {
      0%   { transform: translateX(-220px); opacity: 0; }
      30%  { opacity: 0.5; }
      70%  { opacity: 0.5; }
      100% { transform: translateX(220px); opacity: 0; }
    }
    .wordmark     { animation: wordmark-breath 6s ease-in-out infinite; }
    @keyframes wordmark-breath {
      0%, 100% { opacity: 0.14; }
      50%      { opacity: 0.24; }
    }
    .badge-e      { transform-box: fill-box; transform-origin: center;
                      animation: badge-pulse 3.2s ease-in-out infinite; }
    @keyframes badge-pulse {
      0%, 100% { transform: scale(1);    opacity: 0.85; }
      50%      { transform: scale(1.06); opacity: 1; }
    }
    .headlight-glow { animation: headlight-pulse 4s ease-in-out infinite; }
    @keyframes headlight-pulse {
      0%, 100% { opacity: 0.85; }
      50%      { opacity: 1; }
    }
    .airlines     { animation: airlines-vibrate 0.55s ease-in-out infinite;
                      transform-box: fill-box; }
    @keyframes airlines-vibrate {
      0%, 100% { transform: translateY(0); }
      50%      { transform: translateY(0.6px); }
    }
    .chevron      { animation: chevron-pulse 2.2s ease-in-out infinite; }
    @keyframes chevron-pulse {
      0%, 100% { opacity: 0.3; }
      50%      { opacity: 0.65; }
    }
    .sky-shimmer  { animation: sky-drift 14s linear infinite;
                      transform-box: fill-box; }
    @keyframes sky-drift {
      from { transform: translateX(-40px); opacity: 0.12; }
      50%  { opacity: 0.22; }
      to   { transform: translateX(40px); opacity: 0.12; }
    }
    .ground-line  { stroke-dasharray: 14 9;
                      animation: ground-dash 1.6s linear infinite; }
    @keyframes ground-dash {
      from { stroke-dashoffset: 0; }
      to   { stroke-dashoffset: -46; }
    }
    /* ========== BRAND LOCKUP ========== */
    .brand-mark {
      transform-box: fill-box; transform-origin: center;
      animation: brand-pulse 3.6s ease-in-out infinite;
    }
    @keyframes brand-pulse {
      0%, 100% { transform: scale(1);    opacity: 0.92; }
      50%      { transform: scale(1.05); opacity: 1; }
    }
    .brand-word { animation: brand-word-breath 6s ease-in-out infinite; }
    @keyframes brand-word-breath {
      0%, 100% { opacity: 0.78; }
      50%      { opacity: 1; }
    }

    @media (prefers-reduced-motion: reduce) {
      .chassis-bob, .cab-sway, .car-rock-a, .car-rock-b, .car-rock-c,
      .mudflap, .streak, .bow-air, .tire-dust,
      .sheen, .wordmark, .badge-e, .headlight-glow, .airlines, .chevron,
      .sky-shimmer, .ground-line, .brand-mark, .brand-word { animation: none !important; }
    }

    /* ========== DARK-MODE OVERRIDES (2026-05-16) ========== */
    @media (prefers-color-scheme: dark) {
      .sky-bg          { fill: url(#skyDark) !important; }
      .ground-line     { stroke: #5E4FC6 !important; opacity: 0.55 !important; }
      .ground-shadow   { fill: #060912 !important; opacity: 0.55 !important; }
      .brand-word      { fill: #C9B6FF !important; }
      .brand-tagline   { fill: #8B7FE3 !important; }
      .equipment-label { fill: #C9B6FF !important; }
      .equipment-sub   { fill: #8B7FE3 !important; }
      .equipment-rule  { stroke: #6E4DFF !important; }
    }
  ]]></style>

  <!-- 35 · Auto Carrier · Idle silhouette · EquipmentKind: autoCarrier · TRUCK / LBS
       Open multi-level car-hauler (7-9 car capacity): hydraulic upper + lower decks
       on a skeletal frame, cars chained at staggered angles, head ramp over the cab. -->
  <defs>
    <linearGradient id="skyDark" x1="0" y1="0" x2="0" y2="1">
      <stop offset="0%"  stop-color="#0A0F1F"/>
      <stop offset="55%" stop-color="#141A2E"/>
      <stop offset="100%" stop-color="#0B0F1B"/>
    </linearGradient>
    <linearGradient id="brandIridescent" x1="0" y1="0" x2="1" y2="1">
      <stop offset="0%" stop-color="#1473FF"/>
      <stop offset="50%" stop-color="#6E4DFF"/>
      <stop offset="100%" stop-color="#BE01FF"/>
    </linearGradient>
    <linearGradient id="sky" x1="0" y1="0" x2="0" y2="1"><stop offset="0%" stop-color="#EEF1FA"/><stop offset="55%" stop-color="#F5EEFC"/><stop offset="100%" stop-color="#EFF8FA"/></linearGradient>
    <linearGradient id="cab" x1="0" y1="0" x2="0" y2="1"><stop offset="0%" stop-color="#2B85FF"/><stop offset="55%" stop-color="#6E4DFF"/><stop offset="100%" stop-color="#A726E8"/></linearGradient>
    <linearGradient id="cabRoof" x1="0" y1="0" x2="0" y2="1"><stop offset="0%" stop-color="#FFFFFF" stop-opacity="0.55"/><stop offset="100%" stop-color="#FFFFFF" stop-opacity="0"/></linearGradient>
    <linearGradient id="windowGlass" x1="0" y1="0" x2="0" y2="1"><stop offset="0%" stop-color="#BFD3FF"/><stop offset="100%" stop-color="#7E9DDB"/></linearGradient>
    <linearGradient id="deckTop" x1="0" y1="0" x2="0" y2="1"><stop offset="0%" stop-color="#6A707A"/><stop offset="50%" stop-color="#4A4F58"/><stop offset="100%" stop-color="#3A3F4A"/></linearGradient>
    <linearGradient id="frameSteel" x1="0" y1="0" x2="0" y2="1"><stop offset="0%" stop-color="#7A818C"/><stop offset="100%" stop-color="#3A3F4A"/></linearGradient>
    <!-- Hauled cars — three distinct paints so the load reads as a real mixed consignment -->
    <linearGradient id="carRed" x1="0" y1="0" x2="0" y2="1"><stop offset="0%" stop-color="#FF6B5C"/><stop offset="55%" stop-color="#E5350D"/><stop offset="100%" stop-color="#A81C06"/></linearGradient>
    <linearGradient id="carWhite" x1="0" y1="0" x2="0" y2="1"><stop offset="0%" stop-color="#FFFFFF"/><stop offset="100%" stop-color="#D2D8E2"/></linearGradient>
    <linearGradient id="carBlue" x1="0" y1="0" x2="0" y2="1"><stop offset="0%" stop-color="#5BA8F5"/><stop offset="55%" stop-color="#2B6FD6"/><stop offset="100%" stop-color="#184A9C"/></linearGradient>
    <linearGradient id="carSilver" x1="0" y1="0" x2="0" y2="1"><stop offset="0%" stop-color="#E1E5EC"/><stop offset="55%" stop-color="#A8AFBC"/><stop offset="100%" stop-color="#6A707D"/></linearGradient>
    <linearGradient id="carGlass" x1="0" y1="0" x2="0" y2="1"><stop offset="0%" stop-color="#CFE0F5"/><stop offset="100%" stop-color="#6F8BB5"/></linearGradient>
    <radialGradient id="rim" cx="0.5" cy="0.5" r="0.5"><stop offset="0%" stop-color="#5A606D"/><stop offset="80%" stop-color="#3A3F4A"/><stop offset="100%" stop-color="#1F2330"/></radialGradient>
    <radialGradient id="carRim" cx="0.5" cy="0.5" r="0.5"><stop offset="0%" stop-color="#D8DCE4"/><stop offset="65%" stop-color="#8A909C"/><stop offset="100%" stop-color="#4A4F58"/></radialGradient>
    <filter id="rigShadow" x="-10%" y="-10%" width="120%" height="130%"><feGaussianBlur in="SourceAlpha" stdDeviation="6"/><feOffset dx="0" dy="4" result="offsetBlur"/><feComponentTransfer><feFuncA type="linear" slope="0.18"/></feComponentTransfer><feMerge><feMergeNode/><feMergeNode in="SourceGraphic"/></feMerge></filter>
    <linearGradient id="bowHazeGrad" x1="0" y1="0" x2="0" y2="1">
      <stop offset="0%" stop-color="#FFFFFF" stop-opacity="0.75"/>
      <stop offset="100%" stop-color="#FFFFFF" stop-opacity="0"/>
    </linearGradient>
    <radialGradient id="bowHaze" cx="0.5" cy="0.5" r="0.5">
      <stop offset="0%" stop-color="#FFFFFF" stop-opacity="0.75"/>
      <stop offset="100%" stop-color="#FFFFFF" stop-opacity="0"/>
    </radialGradient>
    <radialGradient id="dustCloud" cx="0.5" cy="0.5" r="0.5">
      <stop offset="0%" stop-color="#C8B89A" stop-opacity="0.55"/>
      <stop offset="100%" stop-color="#C8B89A" stop-opacity="0"/>
    </radialGradient>
    <filter id="softBlur" x="-50%" y="-50%" width="200%" height="200%">
      <feGaussianBlur stdDeviation="3"/>
    </filter>
    <!-- A single hauled car, drawn at the origin so it can be placed + scaled per deck slot.
         Use href + a transform; fill set by overriding the body class. -->
    <symbol id="haulCar" overflow="visible">
      <!-- Lower body — paint via per-instance `color` (currentColor inherits into use) -->
      <path d="M -52 0 L -52 -16 Q -52 -22 -44 -23 L -30 -24 L -20 -38 Q -16 -43 -8 -43 L 18 -43 Q 28 -43 34 -36 L 44 -25 L 50 -24 Q 56 -23 56 -16 L 56 0 Z" fill="currentColor"/>
      <!-- Roof + greenhouse highlight -->
      <path d="M -18 -38 L -8 -42 L 16 -42 Q 24 -42 29 -36 L 36 -27 L -24 -27 Z" fill="url(#carGlass)" opacity="0.92"/>
      <line x1="6" y1="-42" x2="6" y2="-27" stroke="#2A2F3A" stroke-width="1.2" opacity="0.5"/>
      <!-- Belt-line chrome -->
      <rect x="-50" y="-25" width="104" height="2.4" rx="1" fill="#FFFFFF" opacity="0.35"/>
      <!-- Wheel arches -->
      <circle cx="-34" cy="0" r="13" fill="#0F1118"/>
      <circle cx="38" cy="0" r="13" fill="#0F1118"/>
      <circle cx="-34" cy="0" r="9" fill="url(#carRim)"/>
      <circle cx="38" cy="0" r="9" fill="url(#carRim)"/>
      <circle cx="-34" cy="0" r="3" fill="#3A3F4A"/>
      <circle cx="38" cy="0" r="3" fill="#3A3F4A"/>
      <!-- Lamps -->
      <ellipse cx="54" cy="-12" rx="3" ry="4" fill="#FFE9A8" opacity="0.9"/>
      <ellipse cx="-50" cy="-12" rx="2.4" ry="4" fill="#E5350D" opacity="0.85"/>
      <!-- Body top sheen -->
      <path d="M -44 -22 Q 0 -27 50 -22" stroke="#FFFFFF" stroke-width="1.6" fill="none" opacity="0.3"/>
    </symbol>
  </defs>
  <g class="chassis-bob">

  <rect class="sky-bg" width="1200" height="600" fill="url(#sky)"/>
  <rect x="0" y="380" width="1200" height="70" fill="#FFFFFF" opacity="0.18"/>
  <line x1="60" y1="475" x2="1140" y2="475" stroke="#9B7FD9" stroke-width="4" stroke-dasharray="14 9" stroke-linecap="round" opacity="0.55"/>
  <ellipse cx="640" cy="486" rx="470" ry="7" fill="#1A1F2E" opacity="0.13"/>

  <!-- CAB -->
  <g filter="url(#rigShadow)">
    <path d="M 460 250 L 460 460 L 295 460 L 295 240 Q 295 230 305 230 L 450 230 Q 460 230 460 240 Z" fill="url(#cab)"/>
    <path d="M 295 240 L 295 460 L 195 460 L 195 320 Q 195 300 205 290 L 245 245 Q 255 235 265 235 L 290 235 Q 295 235 295 240 Z" fill="url(#cab)"/>
    <rect x="295" y="232" width="160" height="6" rx="3" fill="url(#cabRoof)"/>
    <path d="M 283 252 Q 267 248 253 252 L 213 295 Q 213 312 230 312 L 283 312 Z" fill="url(#windowGlass)" opacity="0.95"/>
    <rect x="205" y="320" width="74" height="58" rx="6" fill="url(#windowGlass)" opacity="0.85"/>
    <line x1="279" y1="320" x2="279" y2="378" stroke="#0A1F3F" stroke-width="1.5" opacity="0.4"/>
    <rect x="315" y="262" width="120" height="22" rx="4" fill="url(#windowGlass)" opacity="0.7"/>
    <rect x="211" y="345" width="6" height="22" rx="2" fill="#1A1F2E" opacity="0.7"/>
    <ellipse class="headlight-glow" cx="200" cy="345" rx="8" ry="6" fill="#FFE680"/><ellipse cx="200" cy="345" rx="4" ry="3" fill="#FFFFFF"/>
    <rect x="195" y="365" width="14" height="55" rx="3" fill="#0A1F3F" opacity="0.85"/>
    <g stroke="#3A3F4A" stroke-width="1.5"><line x1="197" y1="372" x2="207" y2="372"/><line x1="197" y1="380" x2="207" y2="380"/><line x1="197" y1="388" x2="207" y2="388"/><line x1="197" y1="396" x2="207" y2="396"/><line x1="197" y1="404" x2="207" y2="404"/><line x1="197" y1="412" x2="207" y2="412"/></g>
    <rect x="191" y="435" width="26" height="22" rx="4" fill="#1A1F2E"/><rect x="271" y="438" width="22" height="20" rx="2" fill="#1A1F2E" opacity="0.85"/>
    <line x1="205" y1="328" x2="225" y2="326" stroke="#1A1F2E" stroke-width="2.5" stroke-linecap="round"/><line x1="205" y1="378" x2="225" y2="376" stroke="#1A1F2E" stroke-width="2.5" stroke-linecap="round"/>
    <rect x="222" y="320" width="14" height="64" rx="3" fill="#1A1F2E"/><rect x="225" y="324" width="8" height="42" rx="1.5" fill="url(#windowGlass)" opacity="0.9"/><rect x="225" y="370" width="8" height="10" rx="1.5" fill="url(#windowGlass)" opacity="0.75"/>
    <rect x="288" y="200" width="8" height="60" rx="3" fill="#7A7F88"/><rect x="288" y="200" width="8" height="6" rx="3" fill="#3A3F4A"/>
    <circle class="badge-e" cx="377" cy="395" r="9" fill="#FFFFFF" opacity="0.85"/><text x="377" y="399" text-anchor="middle" font-family="Inter, system-ui, sans-serif" font-weight="800" font-size="9" fill="#5B3FBF">E</text>
  </g>

  <!-- ========== HEAD RAMP over the cab (upper deck cantilevers forward above the tractor) ========== -->
  <g filter="url(#rigShadow)">
    <path d="M 250 210 L 470 232 L 470 246 L 250 224 Z" fill="url(#frameSteel)"/>
    <g stroke="#2A2F3A" stroke-width="0.8" opacity="0.5">
      <line x1="280" y1="216" x2="280" y2="228"/><line x1="330" y1="220" x2="330" y2="232"/>
      <line x1="380" y1="225" x2="380" y2="237"/><line x1="430" y1="229" x2="430" y2="241"/>
    </g>
    <!-- Head-ramp support posts down to cab roof -->
    <rect x="252" y="210" width="6" height="26" rx="1" fill="#3A3F4A"/>
  </g>

  <!-- ========== OPEN MULTI-LEVEL CAR-HAULER FRAME (skeletal, hydraulic upper + lower decks) ========== -->
  <g filter="url(#rigShadow)">
    <!-- Rear vertical mast / gantry posts -->
    <rect x="1066" y="222" width="10" height="248" rx="2" fill="url(#frameSteel)"/>
    <rect x="1066" y="222" width="3" height="248" fill="#7A818C" opacity="0.6"/>
    <!-- Mid support post -->
    <rect x="760" y="248" width="8" height="200" rx="2" fill="url(#frameSteel)"/>
    <!-- Front upper post (behind head ramp) -->
    <rect x="478" y="232" width="8" height="180" rx="2" fill="url(#frameSteel)"/>

    <!-- UPPER DECK — staggered: front segment high over cab, stepping down toward rear -->
    <path d="M 470 232 L 770 254 L 1072 240 L 1072 256 L 770 270 L 470 248 Z" fill="url(#deckTop)"/>
    <path d="M 470 232 L 770 254 L 1072 240" stroke="#FFFFFF" stroke-width="1.4" opacity="0.35" fill="none"/>
    <!-- Upper-deck skeletal cross members -->
    <g stroke="#2A2F3A" stroke-width="1" opacity="0.55">
      <line x1="520" y1="236" x2="520" y2="252"/><line x1="600" y1="242" x2="600" y2="258"/>
      <line x1="680" y1="248" x2="680" y2="264"/><line x1="850" y1="259" x2="850" y2="268"/>
      <line x1="940" y1="251" x2="940" y2="263"/><line x1="1020" y1="244" x2="1020" y2="258"/>
    </g>

    <!-- LOWER DECK — slung low between the wheels on the skeletal frame -->
    <path d="M 470 418 L 1072 410 L 1072 430 L 470 438 Z" fill="url(#deckTop)"/>
    <path d="M 470 418 L 1072 410" stroke="#FFFFFF" stroke-width="1.4" opacity="0.35" fill="none"/>
    <!-- Lower deck skeletal runners -->
    <g stroke="#2A2F3A" stroke-width="1" opacity="0.5">
      <line x1="520" y1="420" x2="520" y2="436"/><line x1="640" y1="418" x2="640" y2="434"/>
      <line x1="780" y1="416" x2="780" y2="432"/><line x1="920" y1="413" x2="920" y2="429"/>
      <line x1="1020" y1="411" x2="1020" y2="427"/>
    </g>

    <!-- Hydraulic deck-lift cylinders (between decks — the visual signature of the rig) -->
    <g class="airlines">
      <rect x="640" y="270" width="7" height="148" rx="2" fill="#2A2F3A"/>
      <rect x="641.5" y="270" width="2.4" height="148" fill="#C5CCD6" opacity="0.7"/>
      <rect x="900" y="266" width="7" height="146" rx="2" fill="#2A2F3A"/>
      <rect x="901.5" y="266" width="2.4" height="146" fill="#C5CCD6" opacity="0.7"/>
    </g>

    <!-- Main chassis I-beam under lower deck -->
    <rect x="470" y="438" width="606" height="12" rx="2" fill="#1A1F2E"/>
    <rect x="470" y="438" width="606" height="2.4" fill="#3A3F4A"/>
    <!-- DOT conspicuity tape on lower frame -->
    <g><rect x="478" y="441" width="20" height="5" fill="#E5350D"/><rect x="498" y="441" width="20" height="5" fill="#FFFFFF"/>
       <rect x="990" y="441" width="20" height="5" fill="#FFFFFF"/><rect x="1010" y="441" width="20" height="5" fill="#E5350D"/><rect x="1030" y="441" width="20" height="5" fill="#FFFFFF"/><rect x="1050" y="441" width="20" height="5" fill="#E5350D"/></g>
    <!-- Rear gantry tail with marker lights -->
    <rect x="1066" y="226" width="14" height="8" rx="1" fill="#FFC72C" opacity="0.85"/>
    <rect x="1066" y="458" width="14" height="10" rx="1" fill="#E5350D"/>
  </g>

  <!-- ========== HAULED CARS — staggered angles, chained down (mixed consignment) ========== -->
  <!-- Upper deck: 3 cars climbing the stagger, nose-up. color= sets each car's paint. -->
  <g class="car-rock-a"><g transform="translate(560 250) rotate(-4) scale(0.92)" color="#E5350D"><use href="#haulCar"/></g></g>
  <g class="car-rock-b"><g transform="translate(720 262) rotate(-3) scale(0.92)" color="#E2E6EE"><use href="#haulCar"/></g></g>
  <g class="car-rock-c"><g transform="translate(880 268) rotate(-2.5) scale(0.92)" color="#2B6FD6"><use href="#haulCar"/></g></g>
  <!-- Lower deck: 3 cars, gentle stagger -->
  <g class="car-rock-b"><g transform="translate(560 418) rotate(-2) scale(0.96)" color="#A8AFBC"><use href="#haulCar"/></g></g>
  <g class="car-rock-c"><g transform="translate(740 416) rotate(-1.5) scale(0.96)" color="#3A3F4A"><use href="#haulCar"/></g></g>
  <g class="car-rock-a"><g transform="translate(930 414) rotate(-1) scale(0.96)" color="#C77818"><use href="#haulCar"/></g></g>

  <!-- Tie-down chains over each car at staggered angles -->
  <g stroke="#1A1F2E" stroke-width="1.6" opacity="0.7" fill="none">
    <line x1="528" y1="252" x2="540" y2="234"/><line x1="592" y1="250" x2="580" y2="234"/>
    <line x1="688" y1="264" x2="700" y2="246"/><line x1="752" y1="262" x2="740" y2="246"/>
    <line x1="848" y1="270" x2="860" y2="252"/><line x1="912" y1="268" x2="900" y2="252"/>
    <line x1="528" y1="420" x2="540" y2="402"/><line x1="592" y1="418" x2="580" y2="402"/>
    <line x1="708" y1="418" x2="720" y2="400"/><line x1="772" y1="416" x2="760" y2="400"/>
    <line x1="898" y1="416" x2="910" y2="398"/><line x1="962" y1="414" x2="950" y2="398"/>
  </g>

  <rect x="455" y="445" width="25" height="15" fill="#3A3F4A"/><circle cx="467" cy="453" r="5" fill="#1A1F2E"/>

  </g>
  <g id="wheelGroup">
    <circle cx="0" cy="0" r="32" fill="#1A1A1A"/><circle cx="0" cy="0" r="22" fill="url(#rim)"/><circle cx="0" cy="0" r="7" fill="#7A7F88"/>
    <g stroke="#3A3F4A" stroke-width="2.5" stroke-linecap="round"><line x1="0" y1="-19" x2="0" y2="-9"/><line x1="18" y1="-6" x2="9" y2="-3"/><line x1="11" y1="16" x2="6" y2="8"/><line x1="-11" y1="16" x2="-6" y2="8"/><line x1="-18" y1="-6" x2="-9" y2="-3"/></g>
    <ellipse cx="-6" cy="-12" rx="6" ry="3" fill="#FFFFFF" opacity="0.35"/>
  </g>
  <g transform="translate(420 460)">
    <g><use href="#wheelGroup"/><animateTransform attributeName="transform" type="rotate" from="0" to="-360" dur="1.6s" repeatCount="indefinite"/></g>
  </g><g transform="translate(280 460)">
    <g><use href="#wheelGroup"/><animateTransform attributeName="transform" type="rotate" from="0" to="-360" dur="1.6s" repeatCount="indefinite"/></g>
  </g>
  <!-- Car-hauler trailer rides on a rear tandem/tridem -->
  <g transform="translate(840 460)">
    <g><use href="#wheelGroup"/><animateTransform attributeName="transform" type="rotate" from="0" to="-360" dur="1.6s" repeatCount="indefinite"/></g>
  </g><g transform="translate(920 460)">
    <g><use href="#wheelGroup"/><animateTransform attributeName="transform" type="rotate" from="0" to="-360" dur="1.6s" repeatCount="indefinite"/></g>
  </g>
  <g transform="translate(1000 460)">
    <g><use href="#wheelGroup"/><animateTransform attributeName="transform" type="rotate" from="0" to="-360" dur="1.6s" repeatCount="indefinite"/></g>
  </g>

  <path d="M 458 380 Q 470 370 482 358" stroke="#FF8C00" stroke-width="3" fill="none" stroke-linecap="round" opacity="0.85"/>
  <path d="M 458 388 Q 470 380 482 370" stroke="#1473FF" stroke-width="3" fill="none" stroke-linecap="round" opacity="0.85"/>

  <g opacity="0.75">
  </g>
  <!-- ========== SPEED STREAKS ========== -->
  <g stroke="#9B7FD9" stroke-width="2.5" stroke-linecap="round" opacity="0.5">
    <line class="streak"    x1="1090" y1="445" x2="1145" y2="445"/>
    <line class="streak s2" x1="1085" y1="455" x2="1150" y2="455"/>
    <line class="streak s3" x1="1095" y1="468" x2="1145" y2="468"/>
  </g>
  <!-- ========== BOW AIR DISPLACEMENT ========== -->
  <ellipse class="bow-air" cx="180" cy="410" rx="38" ry="55" fill="url(#bowHaze)"/>
  <!-- ========== EXHAUST PUFFS ========== -->
  <g filter="url(#softBlur)" opacity="0.5">
    <circle cx="292" cy="200" r="6" fill="#C8CDD8">
      <animate attributeName="cy" from="200" to="120" dur="2.6s" repeatCount="indefinite"/>
      <animate attributeName="r"  from="6" to="14" dur="2.6s" repeatCount="indefinite"/>
      <animate attributeName="opacity" values="0;0.55;0.55;0" keyTimes="0;0.15;0.7;1" dur="2.6s" repeatCount="indefinite"/>
    </circle>
    <circle cx="294" cy="200" r="5" fill="#C8CDD8">
      <animate attributeName="cy" from="200" to="120" dur="2.6s" begin="-0.9s" repeatCount="indefinite"/>
      <animate attributeName="r"  from="5" to="12" dur="2.6s" begin="-0.9s" repeatCount="indefinite"/>
      <animate attributeName="opacity" values="0;0.55;0.55;0" keyTimes="0;0.15;0.7;1" dur="2.6s" begin="-0.9s" repeatCount="indefinite"/>
    </circle>
    <circle cx="290" cy="200" r="4" fill="#C8CDD8">
      <animate attributeName="cy" from="200" to="120" dur="2.6s" begin="-1.7s" repeatCount="indefinite"/>
      <animate attributeName="r"  from="4" to="10" dur="2.6s" begin="-1.7s" repeatCount="indefinite"/>
      <animate attributeName="opacity" values="0;0.55;0.55;0" keyTimes="0;0.15;0.7;1" dur="2.6s" begin="-1.7s" repeatCount="indefinite"/>
    </circle>
  </g>
  <!-- ========== TIRE CONTACT DUST ========== -->
  <g filter="url(#softBlur)">
    <ellipse class="tire-dust" cx="420.0" cy="492.0" rx="14" ry="5" fill="url(#dustCloud)"/>
    <ellipse class="tire-dust" cx="280.0" cy="492.0" rx="14" ry="5" fill="url(#dustCloud)" style="animation-delay:-0.4s"/>
    <ellipse class="tire-dust" cx="840.0" cy="492.0" rx="14" ry="5" fill="url(#dustCloud)" style="animation-delay:-0.7s"/>
    <ellipse class="tire-dust" cx="920.0" cy="492.0" rx="14" ry="5" fill="url(#dustCloud)" style="animation-delay:-1.1s"/>
    <ellipse class="tire-dust" cx="1000.0" cy="492.0" rx="14" ry="5" fill="url(#dustCloud)" style="animation-delay:-1.4s"/>
  </g>

  <!-- ========== EUSOTRIP BRAND LOCKUP ========== -->


  <!-- EUSOTRIP-FIX-2026-05-17 -->
</svg>
