<?xml version="1.0" encoding="UTF-8"?>
<svg xmlns="http://www.w3.org/2000/svg" viewBox="0 0 1200 600" width="1200" height="600">
  <!--
    16 · Vessel · Container · ANIMATED v2 (vehicle in motion)

    PHYSICS UPGRADE — vessel is alive at sea, cutting through swell:
      • Hull pitches around amidships pivot (bow rises +falls through swell)
        — rotate ±0.4deg @ 7s, slow ocean cadence
      • Hull also rolls subtly (rotate Z ±0.18deg, 5.6s, opposite phase)
      • BOW WAVE — white foam surges outward at the cutwater (3 staggered
        animate elements pulsing radially, ~2.4s)
      • WAKE TRAIL — bubbles drift aft (right) from the stern, fading out
      • SPRAY mist over bow, fades and re-emits
      • Container stack settles with hull motion (-0.4s phase delay vs hull)
      • Antenna mast tip traces a slow arc (visible from the rolling motion)
      • Funnel smoke rises and dissipates (continued from v1)
      • Bridge windows warm pulse (interior lights at sea)
      • Antenna tip RED aircraft-warning blink
      • Wave dashes drift LEFT (parallax — vessel moves leftward)
      • Plus: container sheen, wordmark breath, badge pulse, sky shimmer,
        chevron pulse, bow stem cyan accent pulse
  -->

  <defs>
    <linearGradient id="brandIridescent" x1="0" y1="0" x2="1" y2="1">
      <stop offset="0%" stop-color="#1473FF"/>
      <stop offset="50%" stop-color="#6E4DFF"/>
      <stop offset="100%" stop-color="#BE01FF"/>
    </linearGradient>
    <linearGradient id="sky" x1="0" y1="0" x2="0" y2="1">
      <stop offset="0%" stop-color="#EEF1FA"/>
      <stop offset="55%" stop-color="#F5EEFC"/>
      <stop offset="100%" stop-color="#EFF8FA"/>
    </linearGradient>
    <linearGradient id="hull" x1="0" y1="0" x2="0" y2="1">
      <stop offset="0%" stop-color="#2A3045"/>
      <stop offset="100%" stop-color="#0F1320"/>
    </linearGradient>
    <linearGradient id="water" x1="0" y1="0" x2="0" y2="1">
      <stop offset="0%" stop-color="#0AC2C2" stop-opacity="0.35"/>
      <stop offset="100%" stop-color="#1473FF" stop-opacity="0.08"/>
    </linearGradient>
    <linearGradient id="conBlue" x1="0" y1="0" x2="0" y2="1">
      <stop offset="0%" stop-color="#7DBEEC"/><stop offset="100%" stop-color="#3D7CB8"/>
    </linearGradient>
    <linearGradient id="conRed" x1="0" y1="0" x2="0" y2="1">
      <stop offset="0%" stop-color="#E8807F"/><stop offset="100%" stop-color="#B33D3C"/>
    </linearGradient>
    <linearGradient id="conGreen" x1="0" y1="0" x2="0" y2="1">
      <stop offset="0%" stop-color="#7DD8A9"/><stop offset="100%" stop-color="#3DA86F"/>
    </linearGradient>
    <linearGradient id="conPurple" x1="0" y1="0" x2="0" y2="1">
      <stop offset="0%" stop-color="#A887E8"/><stop offset="100%" stop-color="#5B3FBF"/>
    </linearGradient>
    <linearGradient id="conOrange" x1="0" y1="0" x2="0" y2="1">
      <stop offset="0%" stop-color="#F2B27A"/><stop offset="100%" stop-color="#C77A3E"/>
    </linearGradient>
    <linearGradient id="bridge" x1="0" y1="0" x2="0" y2="1">
      <stop offset="0%" stop-color="#FAFBFD"/><stop offset="100%" stop-color="#C8CDD8"/>
    </linearGradient>
    <linearGradient id="windowGlass" x1="0" y1="0" x2="0" y2="1">
      <stop offset="0%" stop-color="#BFD3FF"/><stop offset="100%" stop-color="#7E9DDB"/>
    </linearGradient>
    <linearGradient id="sheen" x1="0" y1="0" x2="1" y2="0">
      <stop offset="0%"   stop-color="#FFFFFF" stop-opacity="0"/>
      <stop offset="45%"  stop-color="#FFFFFF" stop-opacity="0"/>
      <stop offset="50%"  stop-color="#FFFFFF" stop-opacity="0.4"/>
      <stop offset="55%"  stop-color="#FFFFFF" stop-opacity="0"/>
      <stop offset="100%" stop-color="#FFFFFF" stop-opacity="0"/>
    </linearGradient>
    <linearGradient id="skyShimmer" x1="0" y1="0" x2="1" y2="0">
      <stop offset="0%"   stop-color="#FFFFFF" stop-opacity="0"/>
      <stop offset="50%"  stop-color="#FFFFFF" stop-opacity="0.18"/>
      <stop offset="100%" stop-color="#FFFFFF" stop-opacity="0"/>
    </linearGradient>
    <radialGradient id="foam" cx="0.5" cy="0.5" r="0.5">
      <stop offset="0%"   stop-color="#FFFFFF" stop-opacity="0.85"/>
      <stop offset="60%"  stop-color="#FFFFFF" stop-opacity="0.35"/>
      <stop offset="100%" stop-color="#FFFFFF" stop-opacity="0"/>
    </radialGradient>
    <filter id="rigShadow" x="-10%" y="-10%" width="120%" height="130%">
      <feGaussianBlur in="SourceAlpha" stdDeviation="6"/>
      <feOffset dx="0" dy="4" result="offsetBlur"/>
      <feComponentTransfer><feFuncA type="linear" slope="0.18"/></feComponentTransfer>
      <feMerge><feMergeNode/><feMergeNode in="SourceGraphic"/></feMerge>
    </filter>
    <filter id="smokeBlur" x="-50%" y="-50%" width="200%" height="200%">
      <feGaussianBlur stdDeviation="3"/>
    </filter>
    <filter id="foamBlur" x="-50%" y="-50%" width="200%" height="200%">
      <feGaussianBlur stdDeviation="2"/>
    </filter>
    <clipPath id="stacksClip">
      <rect x="170" y="174" width="700" height="220"/>
    </clipPath>

    <style><![CDATA[
      /* ========== HULL PITCH — ocean swell, bow rises and falls ========== */
      .hull-pitch {
        transform-origin: 600px 470px;
        animation: hull-pitch 7s ease-in-out infinite;
      }
      @keyframes hull-pitch {
        0%, 100% { transform: rotate(0deg);     }
        25%      { transform: rotate(-0.4deg);  } /* bow rises */
        50%      { transform: rotate(0deg);     }
        75%      { transform: rotate(0.35deg);  } /* bow dips */
      }
      /* Hull roll — subtle, perpendicular cycle */
      .hull-roll {
        transform-origin: 600px 470px;
        animation: hull-roll 5.6s ease-in-out infinite;
      }
      @keyframes hull-roll {
        0%, 100% { transform: translateY(0)    skewX(0deg);   }
        50%      { transform: translateY(-1px) skewX(0.3deg); }
      }
      /* Container stack settles with phase delay */
      .stack-settle {
        animation: stack-settle 7s ease-in-out infinite -0.4s;
      }
      @keyframes stack-settle {
        0%, 100% { transform: translateY(0); }
        25%      { transform: translateY(0.6px); }
        75%      { transform: translateY(-0.6px); }
      }
      /* Antenna tip arcs — synced to hull pitch+roll */
      .antenna-arc {
        animation: antenna-arc 7s ease-in-out infinite;
      }
      @keyframes antenna-arc {
        0%, 100% { transform: translate(0,0); }
        25%      { transform: translate(-0.8px, 1px); }
        50%      { transform: translate(0,0); }
        75%      { transform: translate(0.8px, -1px); }
      }

      /* ========== BOW WAVE — foam surges outward at cutwater ========== */
      /* Three staggered foam blobs that grow and fade radially */
      .bow-wave-1 { animation: bow-wave 2.4s ease-out infinite; }
      .bow-wave-2 { animation: bow-wave 2.4s ease-out infinite -0.8s; }
      .bow-wave-3 { animation: bow-wave 2.4s ease-out infinite -1.6s; }
      @keyframes bow-wave {
        0%   { opacity: 0;    transform: translateX(0)    scale(0.5); }
        15%  { opacity: 0.85; }
        100% { opacity: 0;    transform: translateX(-32px) scale(1.6); }
      }
      /* Bow spray mist — small white wisps */
      .bow-spray {
        animation: bow-spray 1.6s ease-out infinite;
      }
      @keyframes bow-spray {
        0%   { opacity: 0;   transform: translate(0,0)      scale(0.5); }
        20%  { opacity: 0.6; }
        100% { opacity: 0;   transform: translate(-22px,-14px) scale(1.3); }
      }

      /* ========== WAKE TRAIL — bubbles drift aft (rightward) ========== */
      .wake-1 { animation: wake-drift 3.2s linear infinite; }
      .wake-2 { animation: wake-drift 3.2s linear infinite -0.7s; }
      .wake-3 { animation: wake-drift 3.2s linear infinite -1.4s; }
      .wake-4 { animation: wake-drift 3.2s linear infinite -2.1s; }
      @keyframes wake-drift {
        0%   { opacity: 0;    transform: translateX(0)   scale(0.6); }
        15%  { opacity: 0.7;  }
        85%  { opacity: 0.3;  }
        100% { opacity: 0;    transform: translateX(85px) scale(1.4); }
      }

      /* ========== ORIGINAL VOCAB ========== */
      .sheen-band { animation: sheen-sweep 5s ease-in-out infinite; }
      @keyframes sheen-sweep {
        0%   { transform: translateX(-740px); }
        60%  { transform: translateX(740px); }
        100% { transform: translateX(740px); }
      }
      .wordmark-breath { animation: wordmark-breath 6s ease-in-out infinite; }
      @keyframes wordmark-breath {
        0%, 100% { opacity: 0.55; }
        50%      { opacity: 0.85; }
      }
      .badge-pulse {
        transform-box: fill-box; transform-origin: center;
        animation: badge-pulse 3.2s ease-in-out infinite;
      }
      @keyframes badge-pulse {
        0%, 100% { transform: scale(1);    opacity: 0.95; }
        50%      { transform: scale(1.04); opacity: 1; }
      }
      .chevron-pulse { animation: chevron-pulse 2.2s ease-in-out infinite; }
      @keyframes chevron-pulse {
        0%, 100% { opacity: 0.30; transform: translateX(0); }
        50%      { opacity: 0.65; transform: translateX(-4px); }
      }
      .sky-drift { animation: sky-drift 14s ease-in-out infinite; }
      @keyframes sky-drift {
        0%   { transform: translateX(-200px); }
        100% { transform: translateX(1400px); }
      }
      .bridge-window-pulse { animation: bridge-window-pulse 4s ease-in-out infinite; }
      @keyframes bridge-window-pulse {
        0%, 100% { opacity: 0.78; }
        50%      { opacity: 0.95; }
      }
      .antenna-blink {
        animation: antenna-blink 1.4s ease-in-out infinite;
        transform-box: fill-box; transform-origin: center;
      }
      @keyframes antenna-blink {
        0%, 65%, 100% { opacity: 0.35; transform: scale(1); }
        70%, 80%      { opacity: 1;    transform: scale(1.25); }
      }
      .bow-pulse { animation: bow-pulse 2.6s ease-in-out infinite; }
      @keyframes bow-pulse {
        0%, 100% { opacity: 0.55; }
        50%      { opacity: 0.95; }
      }
      .draft-fade { animation: draft-fade 7s ease-in-out infinite; }
      @keyframes draft-fade {
        0%, 100% { opacity: 0.55; }
        50%      { opacity: 0.78; }
      }
    /* ========== BRAND LOCKUP ========== */
    .brand-mark {
      transform-box: fill-box; transform-origin: center;
      animation: brand-pulse 3.6s ease-in-out infinite;
    }
    @keyframes brand-pulse {
      0%, 100% { transform: scale(1);    opacity: 0.92; }
      50%      { transform: scale(1.05); opacity: 1; }
    }
    .brand-word { animation: brand-word-breath 6s ease-in-out infinite; }
    @keyframes brand-word-breath {
      0%, 100% { opacity: 0.78; }
      50%      { opacity: 1; }
    }

      @media (prefers-reduced-motion: reduce) {
        .hull-pitch, .hull-roll, .stack-settle, .antenna-arc,
        .bow-wave-1, .bow-wave-2, .bow-wave-3, .bow-spray,
        .wake-1, .wake-2, .wake-3, .wake-4,
        .sheen-band, .wordmark-breath, .badge-pulse, .chevron-pulse,
        .sky-drift, .bridge-window-pulse, .antenna-blink,
        .bow-pulse, .draft-fade, .brand-mark, .brand-word { animation: none !important; }
      }
    ]]></style>
  </defs>

  <!-- ========== BACKGROUND ========== -->
  <rect width="1200" height="600" fill="url(#sky)"/>
  <rect x="0" y="380" width="1200" height="70" fill="#FFFFFF" opacity="0.18"/>
  <g class="sky-drift" opacity="0.7">
    <rect x="-200" y="60" width="380" height="120" fill="url(#skyShimmer)"/>
  </g>

  <!-- ========== WATER ========== -->
  <rect x="0" y="470" width="1200" height="80" fill="url(#water)"/>

  <!-- Wave dashes drifting LEFT (vessel moves leftward over water) -->
  <g stroke="#0AC2C2" stroke-width="3" stroke-linecap="round" opacity="0.55">
    <line x1="60"   y1="490" x2="160"  y2="490" stroke-dasharray="14 9">
      <animate attributeName="stroke-dashoffset" from="0" to="-46" dur="2.2s" repeatCount="indefinite"/>
    </line>
    <line x1="200"  y1="510" x2="320"  y2="510" stroke-dasharray="14 9">
      <animate attributeName="stroke-dashoffset" from="0" to="-46" dur="2.6s" repeatCount="indefinite"/>
    </line>
    <line x1="380"  y1="495" x2="490"  y2="495" stroke-dasharray="14 9">
      <animate attributeName="stroke-dashoffset" from="0" to="-46" dur="2.0s" repeatCount="indefinite"/>
    </line>
    <line x1="540"  y1="515" x2="660"  y2="515" stroke-dasharray="14 9">
      <animate attributeName="stroke-dashoffset" from="0" to="-46" dur="2.4s" repeatCount="indefinite"/>
    </line>
    <line x1="710"  y1="500" x2="820"  y2="500" stroke-dasharray="14 9">
      <animate attributeName="stroke-dashoffset" from="0" to="-46" dur="2.1s" repeatCount="indefinite"/>
    </line>
    <line x1="870"  y1="520" x2="980"  y2="520" stroke-dasharray="14 9">
      <animate attributeName="stroke-dashoffset" from="0" to="-46" dur="2.7s" repeatCount="indefinite"/>
    </line>
    <line x1="1020" y1="495" x2="1140" y2="495" stroke-dasharray="14 9">
      <animate attributeName="stroke-dashoffset" from="0" to="-46" dur="2.3s" repeatCount="indefinite"/>
    </line>
  </g>

  <!-- ========== WAKE TRAIL — bubbles drift aft (right) from stern ========== -->
  <g filter="url(#foamBlur)">
    <ellipse class="wake-1" cx="1108" cy="488" rx="14" ry="4" fill="url(#foam)"/>
    <ellipse class="wake-2" cx="1108" cy="494" rx="12" ry="3" fill="url(#foam)"/>
    <ellipse class="wake-3" cx="1108" cy="482" rx="10" ry="3" fill="url(#foam)"/>
    <ellipse class="wake-4" cx="1108" cy="498" rx="13" ry="3" fill="url(#foam)"/>
  </g>

  <!-- ========== BOW WAVE — foam at the cutwater (left of bow) ========== -->
  <g filter="url(#foamBlur)">
    <ellipse class="bow-wave-1" cx="100" cy="475" rx="22" ry="6" fill="url(#foam)"/>
    <ellipse class="bow-wave-2" cx="100" cy="482" rx="18" ry="5" fill="url(#foam)"/>
    <ellipse class="bow-wave-3" cx="100" cy="488" rx="16" ry="4" fill="url(#foam)"/>
  </g>

  <!-- BOW SPRAY MIST — wisps rising up and back from bow -->
  <g filter="url(#foamBlur)" opacity="0.6">
    <circle class="bow-spray" cx="115" cy="455" r="5" fill="#FFFFFF"/>
    <circle class="bow-spray" cx="118" cy="450" r="4" fill="#FFFFFF" style="animation-delay:-0.5s"/>
    <circle class="bow-spray" cx="112" cy="458" r="3" fill="#FFFFFF" style="animation-delay:-1s"/>
  </g>

  <!-- ========== VESSEL — wraps in hull-pitch + hull-roll ========== -->
  <g class="hull-pitch">
    <g class="hull-roll">

      <!-- HULL — bow on LEFT, stern on RIGHT -->
      <g filter="url(#rigShadow)">
        <ellipse cx="92" cy="487" rx="28" ry="9" fill="url(#hull)"/>
        <path d="M 100 470 L 110 408 Q 120 395 145 392 L 1090 392 Q 1110 392 1110 410 L 1110 470 Z"
              fill="url(#hull)"/>
        <path d="M 110 408 Q 120 395 145 392 L 1090 392 Q 1110 392 1110 410"
              stroke="#3A4258" stroke-width="2" fill="none" opacity="0.7"/>
        <line x1="120" y1="430" x2="1108" y2="430" stroke="#3A4258" stroke-width="1.5" opacity="0.5"/>

        <line class="bow-pulse" x1="118" y1="395" x2="125" y2="465"
              stroke="#0AC2C2" stroke-width="2"/>

        <g transform="translate(135 425)">
          <line x1="0" y1="0" x2="0" y2="14" stroke="#0AC2C2" stroke-width="1.5"/>
          <path d="M -4 12 L 4 12 L 0 18 Z" fill="#0AC2C2" opacity="0.9"/>
        </g>

        <g class="draft-fade" fill="#FFFFFF" font-family="Inter, system-ui, sans-serif"
           font-weight="700" font-size="9">
          <text x="190" y="455">M</text>
          <text x="220" y="455">S</text>
          <text x="250" y="455">W</text>
        </g>

        <circle cx="148" cy="448" r="5" fill="#0F1320" stroke="#3A4258" stroke-width="1"/>
      </g>

      <!-- CONTAINER STACKS (with stack-settle phase delay) -->
      <g class="stack-settle">
        <g filter="url(#rigShadow)">
          <!-- Bay 1 -->
          <g transform="translate(170 0)">
            <rect x="0" y="350" width="100" height="42" rx="2" fill="url(#conBlue)"/>
            <rect x="0" y="306" width="100" height="42" rx="2" fill="url(#conRed)"/>
            <rect x="0" y="262" width="100" height="42" rx="2" fill="url(#conGreen)"/>
            <rect x="0" y="218" width="100" height="42" rx="2" fill="url(#conBlue)"/>
            <g stroke="#1A1F2E" stroke-width="0.8" opacity="0.4">
              <line x1="0" y1="218" x2="0" y2="392"/><line x1="100" y1="218" x2="100" y2="392"/>
              <line x1="0" y1="260" x2="100" y2="260"/><line x1="0" y1="304" x2="100" y2="304"/>
              <line x1="0" y1="348" x2="100" y2="348"/>
            </g>
            <rect x="0" y="218" width="100" height="3" fill="#FFFFFF" opacity="0.5"/>
            <rect x="0" y="262" width="100" height="3" fill="#FFFFFF" opacity="0.4"/>
            <rect x="0" y="306" width="100" height="3" fill="#FFFFFF" opacity="0.4"/>
            <rect x="0" y="350" width="100" height="3" fill="#FFFFFF" opacity="0.4"/>
          </g>
          <!-- Bay 2 -->
          <g transform="translate(290 0)">
            <rect x="0" y="350" width="100" height="42" rx="2" fill="url(#conPurple)"/>
            <rect x="0" y="306" width="100" height="42" rx="2" fill="url(#conBlue)"/>
            <rect x="0" y="262" width="100" height="42" rx="2" fill="url(#conOrange)"/>
            <rect x="0" y="218" width="100" height="42" rx="2" fill="url(#conRed)"/>
            <g stroke="#1A1F2E" stroke-width="0.8" opacity="0.4">
              <line x1="0" y1="218" x2="0" y2="392"/><line x1="100" y1="218" x2="100" y2="392"/>
              <line x1="0" y1="260" x2="100" y2="260"/><line x1="0" y1="304" x2="100" y2="304"/>
              <line x1="0" y1="348" x2="100" y2="348"/>
            </g>
            <rect x="0" y="218" width="100" height="3" fill="#FFFFFF" opacity="0.5"/>
            <rect x="0" y="262" width="100" height="3" fill="#FFFFFF" opacity="0.4"/>
            <rect x="0" y="306" width="100" height="3" fill="#FFFFFF" opacity="0.4"/>
            <rect x="0" y="350" width="100" height="3" fill="#FFFFFF" opacity="0.4"/>
          </g>
          <!-- Bay 3 (5-high) -->
          <g transform="translate(410 0)">
            <rect x="0" y="350" width="100" height="42" rx="2" fill="url(#conBlue)"/>
            <rect x="0" y="306" width="100" height="42" rx="2" fill="url(#conGreen)"/>
            <rect x="0" y="262" width="100" height="42" rx="2" fill="url(#conRed)"/>
            <rect x="0" y="218" width="100" height="42" rx="2" fill="url(#conPurple)"/>
            <rect x="0" y="174" width="100" height="42" rx="2" fill="url(#conBlue)"/>
            <g stroke="#1A1F2E" stroke-width="0.8" opacity="0.4">
              <line x1="0" y1="174" x2="0" y2="392"/><line x1="100" y1="174" x2="100" y2="392"/>
              <line x1="0" y1="216" x2="100" y2="216"/><line x1="0" y1="260" x2="100" y2="260"/>
              <line x1="0" y1="304" x2="100" y2="304"/><line x1="0" y1="348" x2="100" y2="348"/>
            </g>
            <rect x="0" y="174" width="100" height="3" fill="#FFFFFF" opacity="0.55"/>
            <rect x="0" y="218" width="100" height="3" fill="#FFFFFF" opacity="0.4"/>
            <rect x="0" y="262" width="100" height="3" fill="#FFFFFF" opacity="0.4"/>
            <rect x="0" y="306" width="100" height="3" fill="#FFFFFF" opacity="0.4"/>
            <rect x="0" y="350" width="100" height="3" fill="#FFFFFF" opacity="0.4"/>
          </g>
          <!-- Bay 4 -->
          <g transform="translate(530 0)">
            <rect x="0" y="350" width="100" height="42" rx="2" fill="url(#conRed)"/>
            <rect x="0" y="306" width="100" height="42" rx="2" fill="url(#conPurple)"/>
            <rect x="0" y="262" width="100" height="42" rx="2" fill="url(#conBlue)"/>
            <rect x="0" y="218" width="100" height="42" rx="2" fill="url(#conGreen)"/>
            <g stroke="#1A1F2E" stroke-width="0.8" opacity="0.4">
              <line x1="0" y1="218" x2="0" y2="392"/><line x1="100" y1="218" x2="100" y2="392"/>
              <line x1="0" y1="260" x2="100" y2="260"/><line x1="0" y1="304" x2="100" y2="304"/>
              <line x1="0" y1="348" x2="100" y2="348"/>
            </g>
            <rect x="0" y="218" width="100" height="3" fill="#FFFFFF" opacity="0.5"/>
            <rect x="0" y="262" width="100" height="3" fill="#FFFFFF" opacity="0.4"/>
            <rect x="0" y="306" width="100" height="3" fill="#FFFFFF" opacity="0.4"/>
            <rect x="0" y="350" width="100" height="3" fill="#FFFFFF" opacity="0.4"/>
          </g>
          <!-- Bay 5 -->
          <g transform="translate(650 0)">
            <rect x="0" y="350" width="100" height="42" rx="2" fill="url(#conOrange)"/>
            <rect x="0" y="306" width="100" height="42" rx="2" fill="url(#conBlue)"/>
            <rect x="0" y="262" width="100" height="42" rx="2" fill="url(#conRed)"/>
            <rect x="0" y="218" width="100" height="42" rx="2" fill="url(#conBlue)"/>
            <g stroke="#1A1F2E" stroke-width="0.8" opacity="0.4">
              <line x1="0" y1="218" x2="0" y2="392"/><line x1="100" y1="218" x2="100" y2="392"/>
              <line x1="0" y1="260" x2="100" y2="260"/><line x1="0" y1="304" x2="100" y2="304"/>
              <line x1="0" y1="348" x2="100" y2="348"/>
            </g>
            <rect x="0" y="218" width="100" height="3" fill="#FFFFFF" opacity="0.5"/>
            <rect x="0" y="262" width="100" height="3" fill="#FFFFFF" opacity="0.4"/>
            <rect x="0" y="306" width="100" height="3" fill="#FFFFFF" opacity="0.4"/>
            <rect x="0" y="350" width="100" height="3" fill="#FFFFFF" opacity="0.4"/>
          </g>
          <!-- Bay 6 -->
          <g transform="translate(770 0)">
            <rect x="0" y="350" width="100" height="42" rx="2" fill="url(#conPurple)"/>
            <rect x="0" y="306" width="100" height="42" rx="2" fill="url(#conGreen)"/>
            <rect x="0" y="262" width="100" height="42" rx="2" fill="url(#conBlue)"/>
            <rect x="0" y="218" width="100" height="42" rx="2" fill="url(#conRed)"/>
            <g stroke="#1A1F2E" stroke-width="0.8" opacity="0.4">
              <line x1="0" y1="218" x2="0" y2="392"/><line x1="100" y1="218" x2="100" y2="392"/>
              <line x1="0" y1="260" x2="100" y2="260"/><line x1="0" y1="304" x2="100" y2="304"/>
              <line x1="0" y1="348" x2="100" y2="348"/>
            </g>
            <rect x="0" y="218" width="100" height="3" fill="#FFFFFF" opacity="0.5"/>
            <rect x="0" y="262" width="100" height="3" fill="#FFFFFF" opacity="0.4"/>
            <rect x="0" y="306" width="100" height="3" fill="#FFFFFF" opacity="0.4"/>
            <rect x="0" y="350" width="100" height="3" fill="#FFFFFF" opacity="0.4"/>
          </g>

          <g clip-path="url(#stacksClip)">
            <rect class="sheen-band" x="170" y="174" width="200" height="220" fill="url(#sheen)"/>
          </g>
        </g>
      </g>

      <!-- BRIDGE / SUPERSTRUCTURE — aft -->
      <g filter="url(#rigShadow)">
        <rect x="900" y="220" width="120" height="170" rx="3" fill="url(#bridge)"/>
        <rect x="900" y="220" width="120" height="3" fill="#FFFFFF" opacity="0.6"/>

        <g class="bridge-window-pulse" fill="url(#windowGlass)">
          <rect x="908" y="232" width="104" height="14" rx="1.5"/>
          <rect x="908" y="252" width="104" height="14" rx="1.5"/>
          <rect x="908" y="272" width="104" height="14" rx="1.5"/>
          <rect x="908" y="292" width="104" height="14" rx="1.5"/>
          <rect x="908" y="312" width="104" height="14" rx="1.5"/>
          <rect x="908" y="332" width="104" height="14" rx="1.5"/>
          <rect x="908" y="352" width="104" height="14" rx="1.5"/>
        </g>
        <g stroke="#5A6378" stroke-width="0.6" opacity="0.65">
          <line x1="940" y1="232" x2="940" y2="366"/>
          <line x1="980" y1="232" x2="980" y2="366"/>
        </g>

        <rect x="950" y="170" width="32" height="55" rx="3" fill="#1A1F2E"/>
        <rect x="950" y="170" width="32" height="6" rx="3" fill="#3A3F4A"/>
        <rect x="950" y="190" width="32" height="6" fill="#0AC2C2" opacity="0.85"/>

        <!-- Smoke wisps -->
        <g filter="url(#smokeBlur)" opacity="0.55">
          <circle cx="966" cy="170" r="9" fill="#C8CDD8">
            <animate attributeName="cy" from="170" to="100" dur="4.5s" repeatCount="indefinite"/>
            <animate attributeName="r"  from="9" to="22" dur="4.5s" repeatCount="indefinite"/>
            <animate attributeName="opacity" values="0;0.55;0.55;0" keyTimes="0;0.15;0.7;1"
                     dur="4.5s" repeatCount="indefinite"/>
          </circle>
          <circle cx="970" cy="170" r="8" fill="#C8CDD8">
            <animate attributeName="cy" from="170" to="100" dur="4.5s" begin="-1.5s" repeatCount="indefinite"/>
            <animate attributeName="r"  from="8" to="20" dur="4.5s" begin="-1.5s" repeatCount="indefinite"/>
            <animate attributeName="opacity" values="0;0.55;0.55;0" keyTimes="0;0.15;0.7;1"
                     dur="4.5s" begin="-1.5s" repeatCount="indefinite"/>
          </circle>
          <circle cx="962" cy="170" r="7" fill="#C8CDD8">
            <animate attributeName="cy" from="170" to="100" dur="4.5s" begin="-3s" repeatCount="indefinite"/>
            <animate attributeName="r"  from="7" to="18" dur="4.5s" begin="-3s" repeatCount="indefinite"/>
            <animate attributeName="opacity" values="0;0.55;0.55;0" keyTimes="0;0.15;0.7;1"
                     dur="4.5s" begin="-3s" repeatCount="indefinite"/>
          </circle>
        </g>

        <!-- Antenna mast — tip arc gives the rolling-mast feel -->
        <g class="antenna-arc">
          <line x1="996" y1="220" x2="996" y2="155" stroke="#1A1F2E" stroke-width="2.5"
                stroke-linecap="round"/>
          <circle class="antenna-blink" cx="996" cy="155" r="3.5" fill="#FF4D55"/>
        </g>
      </g>

      <line class="bow-pulse" x1="113" y1="396" x2="100" y2="468"
            stroke="#0AC2C2" stroke-width="2"/>

    </g>
  </g>

  <!-- ========== MODE BADGE (VESSEL — cyan) ========== -->
  <g class="badge-pulse">
    <rect x="1052" y="58" width="100" height="32" rx="16" ry="16" fill="#0AC2C2"/>
    <g transform="translate(1066 70)" fill="#FFFFFF">
      <path d="M 0 8 L 2 4 L 16 4 L 18 8 Z"/>
      <rect x="6" y="0" width="8" height="4"/>
    </g>
    <text x="1115" y="79" text-anchor="middle" font-family="Inter, system-ui, sans-serif"
          font-weight="800" font-size="14" letter-spacing="1.8" fill="#FFFFFF">VESSEL</text>
  </g>

  <g>
    <rect x="1062" y="100" width="80" height="28" rx="14" ry="14"
          fill="#FFFFFF" stroke="#9B7FD9" stroke-width="1.5"/>
    <text x="1102" y="119" text-anchor="middle" font-family="Inter, system-ui, sans-serif"
          font-weight="800" font-size="13" letter-spacing="1.8" fill="#5B3FBF">TEU</text>
  </g>

  <g class="wordmark-breath">
    <text x="60" y="78" font-family="Inter, system-ui, sans-serif"
          font-weight="700" font-size="13" letter-spacing="2" fill="#5B3FBF">CONTAINER SHIP</text>
    <line x1="60" y1="86" x2="200" y2="86" stroke="#9B7FD9" stroke-width="2" stroke-linecap="round"/>
  </g>

  <g class="chevron-pulse">
    <path d="M 70 540 L 55 525 L 55 555 Z" fill="#9B7FD9"/>
  </g>
  <!-- ========== EUSOTRIP BRAND LOCKUP ========== -->
  <g class="brand-lockup" filter="url(#rigShadow)" transform="translate(490 26)">
    <!-- Iridescent E mark -->
    <g class="brand-mark">
      <circle cx="19" cy="19" r="18" fill="url(#brandIridescent)"/>
      <circle cx="19" cy="19" r="18" fill="none" stroke="#FFFFFF" stroke-width="1.5" opacity="0.4"/>
      <text x="19" y="26" text-anchor="middle" font-family="Inter, system-ui, sans-serif"
            font-weight="900" font-size="20" fill="#FFFFFF" letter-spacing="-1">E</text>
    </g>
    <!-- Wordmark -->
    <text class="brand-word" x="48" y="22" font-family="Inter, system-ui, sans-serif"
          font-weight="800" font-size="18" letter-spacing="2.5" fill="#5B3FBF">EUSOTRIP</text>
    <!-- Tagline -->
    <text x="48" y="36" font-family="Inter, system-ui, sans-serif"
          font-weight="500" font-size="8" letter-spacing="3" fill="#9B7FD9" opacity="0.55">BY EUSORONE</text>
  </g>
</svg>
