<?xml version="1.0" encoding="UTF-8"?>
<svg xmlns="http://www.w3.org/2000/svg"  width="1200" height="600" viewBox="0 50 1200 480" preserveAspectRatio="xMidYMid slice">
  <style><![CDATA[
    /* ========== HULL PITCH — ocean swell, bow rises and falls ========== */
    .hull-pitch {
      transform-origin: 600px 470px;
      animation: hull-pitch 7s ease-in-out infinite;
    }
    @keyframes hull-pitch {
      0%, 100% { transform: rotate(0deg);     }
      25%      { transform: rotate(-0.4deg);  }
      50%      { transform: rotate(0deg);     }
      75%      { transform: rotate(0.35deg);  }
    }
    .hull-roll {
      transform-origin: 600px 470px;
      animation: hull-roll 5.6s ease-in-out infinite;
    }
    @keyframes hull-roll {
      0%, 100% { transform: translateY(0)    skewX(0deg);   }
      50%      { transform: translateY(-1px) skewX(0.3deg); }
    }
    .stack-settle {
      animation: stack-settle 7s ease-in-out infinite -0.4s;
    }
    @keyframes stack-settle {
      0%, 100% { transform: translateY(0); }
      25%      { transform: translateY(0.6px); }
      75%      { transform: translateY(-0.6px); }
    }
    .antenna-arc {
      animation: antenna-arc 7s ease-in-out infinite;
    }
    @keyframes antenna-arc {
      0%, 100% { transform: translate(0,0); }
      25%      { transform: translate(-0.8px, 1px); }
      50%      { transform: translate(0,0); }
      75%      { transform: translate(0.8px, -1px); }
    }
    .bow-wave-1 { animation: bow-wave 2.4s ease-out infinite; }
    .bow-wave-2 { animation: bow-wave 2.4s ease-out infinite -0.8s; }
    .bow-wave-3 { animation: bow-wave 2.4s ease-out infinite -1.6s; }
    @keyframes bow-wave {
      0%   { opacity: 0;    transform: translateX(0)    scale(0.5); }
      15%  { opacity: 0.85; }
      100% { opacity: 0;    transform: translateX(-32px) scale(1.6); }
    }
    .bow-spray {
      animation: bow-spray 1.6s ease-out infinite;
    }
    @keyframes bow-spray {
      0%   { opacity: 0;   transform: translate(0,0)      scale(0.5); }
      20%  { opacity: 0.6; }
      100% { opacity: 0;   transform: translate(-22px,-14px) scale(1.3); }
    }
    .wake-1 { animation: wake-drift 3.2s linear infinite; }
    .wake-2 { animation: wake-drift 3.2s linear infinite -0.7s; }
    .wake-3 { animation: wake-drift 3.2s linear infinite -1.4s; }
    .wake-4 { animation: wake-drift 3.2s linear infinite -2.1s; }
    @keyframes wake-drift {
      0%   { opacity: 0;    transform: translateX(0)   scale(0.6); }
      15%  { opacity: 0.7;  }
      85%  { opacity: 0.3;  }
      100% { opacity: 0;    transform: translateX(85px) scale(1.4); }
    }

    /* ========== ORIGINAL VOCAB ========== */
    .sheen-band { animation: sheen-sweep 5s ease-in-out infinite; }
    @keyframes sheen-sweep {
      0%   { transform: translateX(-740px); }
      60%  { transform: translateX(740px); }
      100% { transform: translateX(740px); }
    }
    .wordmark-breath { animation: wordmark-breath 6s ease-in-out infinite; }
    @keyframes wordmark-breath {
      0%, 100% { opacity: 0.55; }
      50%      { opacity: 0.85; }
    }
    .badge-pulse {
      transform-box: fill-box; transform-origin: center;
      animation: badge-pulse 3.2s ease-in-out infinite;
    }
    @keyframes badge-pulse {
      0%, 100% { transform: scale(1);    opacity: 0.95; }
      50%      { transform: scale(1.04); opacity: 1; }
    }
    .chevron-pulse { animation: chevron-pulse 2.2s ease-in-out infinite; }
    @keyframes chevron-pulse {
      0%, 100% { opacity: 0.30; transform: translateX(0); }
      50%      { opacity: 0.65; transform: translateX(-4px); }
    }
    .sky-drift { animation: sky-drift 14s ease-in-out infinite; }
    @keyframes sky-drift {
      0%   { transform: translateX(-200px); }
      100% { transform: translateX(1400px); }
    }
    .bridge-window-pulse { animation: bridge-window-pulse 4s ease-in-out infinite; }
    @keyframes bridge-window-pulse {
      0%, 100% { opacity: 0.78; }
      50%      { opacity: 0.95; }
    }
    .antenna-blink {
      animation: antenna-blink 1.4s ease-in-out infinite;
      transform-box: fill-box; transform-origin: center;
    }
    @keyframes antenna-blink {
      0%, 65%, 100% { opacity: 0.35; transform: scale(1); }
      70%, 80%      { opacity: 1;    transform: scale(1.25); }
    }
    .bow-pulse { animation: bow-pulse 2.6s ease-in-out infinite; }
    @keyframes bow-pulse {
      0%, 100% { opacity: 0.55; }
      50%      { opacity: 0.95; }
    }
    .draft-fade { animation: draft-fade 7s ease-in-out infinite; }
    @keyframes draft-fade {
      0%, 100% { opacity: 0.55; }
      50%      { opacity: 0.78; }
    }
    /* ========== BRAND LOCKUP ========== */
    .brand-mark {
      transform-box: fill-box; transform-origin: center;
      animation: brand-pulse 3.6s ease-in-out infinite;
    }
    @keyframes brand-pulse {
      0%, 100% { transform: scale(1);    opacity: 0.92; }
      50%      { transform: scale(1.05); opacity: 1; }
    }
    .brand-word { animation: brand-word-breath 6s ease-in-out infinite; }
    @keyframes brand-word-breath {
      0%, 100% { opacity: 0.78; }
      50%      { opacity: 1; }
    }
    /* ========== REEFER RUNNING INDICATOR (matches loading/unloading 'gland-glow' vocab) ========== */
    .reefer-led {
      transform-box: fill-box; transform-origin: center;
      animation: reefer-led 2.4s ease-in-out infinite;
    }
    @keyframes reefer-led {
      0%, 100% { opacity: 0.55; transform: scale(1);    }
      50%      { opacity: 1;    transform: scale(1.18); }
    }
    /* Country-switchable set-point markings — renderer toggles visibility of
       .country-US / .country-MX / .country-CA (default: US visible, units °F;
       MX & CA use °C per SCT/NOM cold-chain + Transport Canada conventions). */
    .country-MX, .country-CA { display: none; }

    @media (prefers-reduced-motion: reduce) {
      .reefer-led { animation: none !important; opacity: 0.85 !important; }
      .hull-pitch, .hull-roll, .stack-settle, .antenna-arc,
      .bow-wave-1, .bow-wave-2, .bow-wave-3, .bow-spray,
      .wake-1, .wake-2, .wake-3, .wake-4,
      .sheen-band, .wordmark-breath, .badge-pulse, .chevron-pulse,
      .sky-drift, .bridge-window-pulse, .antenna-blink,
      .bow-pulse, .draft-fade, .brand-mark, .brand-word { animation: none !important; }
    }
  
    /* ========== DARK-MODE OVERRIDES (2026-05-16) ========== */
    @media (prefers-color-scheme: dark) {
      .sky-bg          { fill: url(#skyDark) !important; }
      .ground-line     { stroke: #5E4FC6 !important; opacity: 0.55 !important; }
      .ground-shadow   { fill: #060912 !important; opacity: 0.55 !important; }
      .brand-word      { fill: #C9B6FF !important; }
      .brand-tagline   { fill: #8B7FE3 !important; }
      .equipment-label { fill: #C9B6FF !important; }
      .equipment-sub   { fill: #8B7FE3 !important; }
      .equipment-rule  { stroke: #6E4DFF !important; }
    }
  ]]></style>

  <!-- 32 · Vessel · Reefer Container · VESSEL / TEU
       Container ship variant — visible reefer plug stacks (white containers
       with snowflake markings) interspersed with dry containers. Bow LEFT. -->
  <defs>
        <linearGradient id="skyDark" x1="0" y1="0" x2="0" y2="1">
      <stop offset="0%"  stop-color="#0A0F1F"/>
      <stop offset="55%" stop-color="#141A2E"/>
      <stop offset="100%" stop-color="#0B0F1B"/>
    </linearGradient>
    <linearGradient id="brandIridescent" x1="0" y1="0" x2="1" y2="1">
      <stop offset="0%" stop-color="#1473FF"/>
      <stop offset="50%" stop-color="#6E4DFF"/>
      <stop offset="100%" stop-color="#BE01FF"/>
    </linearGradient>
    <linearGradient id="sky" x1="0" y1="0" x2="0" y2="1"><stop offset="0%" stop-color="#EEF1FA"/><stop offset="55%" stop-color="#F5EEFC"/><stop offset="100%" stop-color="#EFF8FA"/></linearGradient>
    <linearGradient id="hull" x1="0" y1="0" x2="0" y2="1"><stop offset="0%" stop-color="#2A3045"/><stop offset="100%" stop-color="#0F1320"/></linearGradient>
    <linearGradient id="water" x1="0" y1="0" x2="0" y2="1"><stop offset="0%" stop-color="#0AC2C2" stop-opacity="0.35"/><stop offset="100%" stop-color="#1473FF" stop-opacity="0.08"/></linearGradient>
    <linearGradient id="conReefer" x1="0" y1="0" x2="0" y2="1">
      <stop offset="0%" stop-color="#FFFFFF"/>
      <stop offset="55%" stop-color="#E6F4FB"/>
      <stop offset="100%" stop-color="#A8C8D8"/>
    </linearGradient>
    <linearGradient id="conBlue" x1="0" y1="0" x2="0" y2="1"><stop offset="0%" stop-color="#7DBEEC"/><stop offset="100%" stop-color="#3D7CB8"/></linearGradient>
    <linearGradient id="conPurple" x1="0" y1="0" x2="0" y2="1"><stop offset="0%" stop-color="#A887E8"/><stop offset="100%" stop-color="#5B3FBF"/></linearGradient>
    <linearGradient id="bridge" x1="0" y1="0" x2="0" y2="1"><stop offset="0%" stop-color="#FAFBFD"/><stop offset="100%" stop-color="#C8CDD8"/></linearGradient>
    <linearGradient id="windowGlass" x1="0" y1="0" x2="0" y2="1"><stop offset="0%" stop-color="#BFD3FF"/><stop offset="100%" stop-color="#7E9DDB"/></linearGradient>
    <filter id="rigShadow" x="-10%" y="-10%" width="120%" height="130%"><feGaussianBlur in="SourceAlpha" stdDeviation="6"/><feOffset dx="0" dy="4" result="offsetBlur"/><feComponentTransfer><feFuncA type="linear" slope="0.18"/></feComponentTransfer><feMerge><feMergeNode/><feMergeNode in="SourceGraphic"/></feMerge></filter>
      <radialGradient id="foam" cx="0.5" cy="0.5" r="0.5">
      <stop offset="0%"   stop-color="#FFFFFF" stop-opacity="0.85"/>
      <stop offset="60%"  stop-color="#FFFFFF" stop-opacity="0.35"/>
      <stop offset="100%" stop-color="#FFFFFF" stop-opacity="0"/>
    </radialGradient>
    <filter id="foamBlur" x="-50%" y="-50%" width="200%" height="200%">
      <feGaussianBlur stdDeviation="2"/>
    </filter>
    <filter id="smokeBlur" x="-50%" y="-50%" width="200%" height="200%">
      <feGaussianBlur stdDeviation="3"/>
    </filter>
  </defs>
  <g class="hull-pitch">
    <g class="hull-roll">

  <rect class="sky-bg" width="1200" height="600" fill="url(#sky)"/>
  <rect x="0" y="380" width="1200" height="70" fill="#FFFFFF" opacity="0.18"/>
  <rect x="0" y="470" width="1200" height="80" fill="url(#water)"/>
  <g stroke="#0AC2C2" stroke-width="3" stroke-linecap="round" opacity="0.55">
    <line x1="60" y1="490" x2="160" y2="490" stroke-dasharray="14 9"/><line x1="200" y1="510" x2="320" y2="510" stroke-dasharray="14 9"/><line x1="380" y1="495" x2="490" y2="495" stroke-dasharray="14 9"/><line x1="540" y1="515" x2="660" y2="515" stroke-dasharray="14 9"/><line x1="710" y1="500" x2="820" y2="500" stroke-dasharray="14 9"/><line x1="870" y1="520" x2="980" y2="520" stroke-dasharray="14 9"/><line x1="1020" y1="495" x2="1140" y2="495" stroke-dasharray="14 9"/>
  </g>

  <!-- HULL -->
  <g filter="url(#rigShadow)">
    <ellipse cx="92" cy="487" rx="28" ry="9" fill="url(#hull)"/>
    <path d="M 100 470 L 110 408 Q 120 395 145 392 L 1090 392 Q 1110 392 1110 410 L 1110 470 Z" fill="url(#hull)"/>
    <path d="M 110 408 Q 120 395 145 392 L 1090 392 Q 1110 392 1110 410" stroke="#3A4258" stroke-width="2" fill="none" opacity="0.7"/>
    <line x1="120" y1="430" x2="1108" y2="430" stroke="#3A4258" stroke-width="1.5" opacity="0.5"/>
    <line x1="118" y1="395" x2="125" y2="465" stroke="#0AC2C2" stroke-width="2" opacity="0.7"/>
    <g transform="translate(135 425)"><line x1="0" y1="0" x2="0" y2="14" stroke="#0AC2C2" stroke-width="1.5"/><path d="M -4 12 L 4 12 L 0 18 Z" fill="#0AC2C2" opacity="0.9"/></g>
    <circle cx="148" cy="448" r="5" fill="#0F1320" stroke="#3A4258" stroke-width="1"/>
  </g>

  <!-- ========== CONTAINER STACKS — emphasis on REEFER (white w/ snowflake) ========== -->
  <g filter="url(#rigShadow)">
    <!-- Helper: each bay is a 4-tall stack with at least 2 reefer containers visible.
         Reefer containers are typically positioned where they can plug into deck power. -->

    <!-- Bay 1 -->
    <g transform="translate(170 0)">
      <rect x="0" y="350" width="100" height="42" rx="2" fill="url(#conReefer)" stroke="#A8C8D8" stroke-width="0.8"/>
      <rect x="0" y="306" width="100" height="42" rx="2" fill="url(#conReefer)" stroke="#A8C8D8" stroke-width="0.8"/>
      <rect x="0" y="262" width="100" height="42" rx="2" fill="url(#conBlue)"/>
      <rect x="0" y="218" width="100" height="42" rx="2" fill="url(#conPurple)"/>
      <!-- Snowflake on reefer containers -->
      <g transform="translate(50 371)" stroke="#0AC2C2" stroke-width="1.2" stroke-linecap="round" fill="none">
        <line x1="0" y1="-7" x2="0" y2="7"/><line x1="-7" y1="0" x2="7" y2="0"/>
        <line x1="-5" y1="-5" x2="5" y2="5"/><line x1="-5" y1="5" x2="5" y2="-5"/>
      </g>
      <g transform="translate(50 327)" stroke="#0AC2C2" stroke-width="1.2" stroke-linecap="round" fill="none">
        <line x1="0" y1="-7" x2="0" y2="7"/><line x1="-7" y1="0" x2="7" y2="0"/>
        <line x1="-5" y1="-5" x2="5" y2="5"/><line x1="-5" y1="5" x2="5" y2="-5"/>
      </g>
      <!-- Reefer plug indicator (small green dot — power connected) -->
      <circle class="reefer-led" cx="92" cy="392" r="3" fill="#5BD89F"/>
      <circle class="reefer-led" cx="92" cy="348" r="3" fill="#5BD89F"/>
      <!-- Top edge highlights -->
      <rect x="0" y="218" width="100" height="3" fill="#FFFFFF" opacity="0.5"/>
      <rect x="0" y="262" width="100" height="3" fill="#FFFFFF" opacity="0.4"/>
      <rect x="0" y="306" width="100" height="3" fill="#FFFFFF" opacity="0.4"/>
      <rect x="0" y="350" width="100" height="3" fill="#FFFFFF" opacity="0.4"/>
    </g>
    <!-- Bay 2 -->
    <g transform="translate(290 0)">
      <rect x="0" y="350" width="100" height="42" rx="2" fill="url(#conReefer)" stroke="#A8C8D8" stroke-width="0.8"/>
      <rect x="0" y="306" width="100" height="42" rx="2" fill="url(#conBlue)"/>
      <rect x="0" y="262" width="100" height="42" rx="2" fill="url(#conReefer)" stroke="#A8C8D8" stroke-width="0.8"/>
      <rect x="0" y="218" width="100" height="42" rx="2" fill="url(#conPurple)"/>
      <g transform="translate(50 371)" stroke="#0AC2C2" stroke-width="1.2" stroke-linecap="round" fill="none">
        <line x1="0" y1="-7" x2="0" y2="7"/><line x1="-7" y1="0" x2="7" y2="0"/>
        <line x1="-5" y1="-5" x2="5" y2="5"/><line x1="-5" y1="5" x2="5" y2="-5"/>
      </g>
      <g transform="translate(50 283)" stroke="#0AC2C2" stroke-width="1.2" stroke-linecap="round" fill="none">
        <line x1="0" y1="-7" x2="0" y2="7"/><line x1="-7" y1="0" x2="7" y2="0"/>
        <line x1="-5" y1="-5" x2="5" y2="5"/><line x1="-5" y1="5" x2="5" y2="-5"/>
      </g>
      <circle class="reefer-led" cx="92" cy="392" r="3" fill="#5BD89F"/>
      <circle class="reefer-led" cx="92" cy="304" r="3" fill="#5BD89F"/>
      <rect x="0" y="218" width="100" height="3" fill="#FFFFFF" opacity="0.5"/>
      <rect x="0" y="262" width="100" height="3" fill="#FFFFFF" opacity="0.4"/>
      <rect x="0" y="306" width="100" height="3" fill="#FFFFFF" opacity="0.4"/>
      <rect x="0" y="350" width="100" height="3" fill="#FFFFFF" opacity="0.4"/>
    </g>
    <!-- Bay 3 (5 high, signature reefer-heavy stack) -->
    <g transform="translate(410 0)">
      <rect x="0" y="350" width="100" height="42" rx="2" fill="url(#conReefer)" stroke="#A8C8D8" stroke-width="0.8"/>
      <rect x="0" y="306" width="100" height="42" rx="2" fill="url(#conReefer)" stroke="#A8C8D8" stroke-width="0.8"/>
      <rect x="0" y="262" width="100" height="42" rx="2" fill="url(#conReefer)" stroke="#A8C8D8" stroke-width="0.8"/>
      <rect x="0" y="218" width="100" height="42" rx="2" fill="url(#conBlue)"/>
      <rect x="0" y="174" width="100" height="42" rx="2" fill="url(#conPurple)"/>
      <g transform="translate(50 371)" stroke="#0AC2C2" stroke-width="1.2" stroke-linecap="round" fill="none">
        <line x1="0" y1="-7" x2="0" y2="7"/><line x1="-7" y1="0" x2="7" y2="0"/>
        <line x1="-5" y1="-5" x2="5" y2="5"/><line x1="-5" y1="5" x2="5" y2="-5"/>
      </g>
      <g transform="translate(50 327)" stroke="#0AC2C2" stroke-width="1.2" stroke-linecap="round" fill="none">
        <line x1="0" y1="-7" x2="0" y2="7"/><line x1="-7" y1="0" x2="7" y2="0"/>
        <line x1="-5" y1="-5" x2="5" y2="5"/><line x1="-5" y1="5" x2="5" y2="-5"/>
      </g>
      <g transform="translate(50 283)" stroke="#0AC2C2" stroke-width="1.2" stroke-linecap="round" fill="none">
        <line x1="0" y1="-7" x2="0" y2="7"/><line x1="-7" y1="0" x2="7" y2="0"/>
        <line x1="-5" y1="-5" x2="5" y2="5"/><line x1="-5" y1="5" x2="5" y2="-5"/>
      </g>
      <circle class="reefer-led" cx="92" cy="392" r="3" fill="#5BD89F"/>
      <circle class="reefer-led" cx="92" cy="348" r="3" fill="#5BD89F"/>
      <circle class="reefer-led" cx="92" cy="304" r="3" fill="#5BD89F"/>
      <!-- ISO 6346 size-type code + CSC-plated set-point (country-switchable units) -->
      <text x="8" y="324" font-family="Inter, system-ui, sans-serif" font-weight="800"
            font-size="7" letter-spacing="0.8" fill="#5B3FBF" opacity="0.7">45R1</text>
      <g class="country-US"><text x="8" y="343" font-family="Inter, system-ui, sans-serif"
            font-weight="700" font-size="6.5" letter-spacing="0.6" fill="#0AC2C2" opacity="0.85">SET +14&#176;F</text></g>
      <g class="country-MX"><text x="8" y="343" font-family="Inter, system-ui, sans-serif"
            font-weight="700" font-size="6.5" letter-spacing="0.6" fill="#0AC2C2" opacity="0.85">SET &#8722;10&#176;C</text></g>
      <g class="country-CA"><text x="8" y="343" font-family="Inter, system-ui, sans-serif"
            font-weight="700" font-size="6.5" letter-spacing="0.6" fill="#0AC2C2" opacity="0.85">SET &#8722;10&#176;C</text></g>
      <rect x="0" y="174" width="100" height="3" fill="#FFFFFF" opacity="0.55"/>
      <rect x="0" y="218" width="100" height="3" fill="#FFFFFF" opacity="0.45"/>
      <rect x="0" y="262" width="100" height="3" fill="#FFFFFF" opacity="0.4"/>
      <rect x="0" y="306" width="100" height="3" fill="#FFFFFF" opacity="0.4"/>
      <rect x="0" y="350" width="100" height="3" fill="#FFFFFF" opacity="0.4"/>
    </g>
    <!-- Bay 4 -->
    <g transform="translate(530 0)">
      <rect x="0" y="350" width="100" height="42" rx="2" fill="url(#conBlue)"/>
      <rect x="0" y="306" width="100" height="42" rx="2" fill="url(#conReefer)" stroke="#A8C8D8" stroke-width="0.8"/>
      <rect x="0" y="262" width="100" height="42" rx="2" fill="url(#conReefer)" stroke="#A8C8D8" stroke-width="0.8"/>
      <rect x="0" y="218" width="100" height="42" rx="2" fill="url(#conPurple)"/>
      <g transform="translate(50 327)" stroke="#0AC2C2" stroke-width="1.2" stroke-linecap="round" fill="none">
        <line x1="0" y1="-7" x2="0" y2="7"/><line x1="-7" y1="0" x2="7" y2="0"/>
        <line x1="-5" y1="-5" x2="5" y2="5"/><line x1="-5" y1="5" x2="5" y2="-5"/>
      </g>
      <g transform="translate(50 283)" stroke="#0AC2C2" stroke-width="1.2" stroke-linecap="round" fill="none">
        <line x1="0" y1="-7" x2="0" y2="7"/><line x1="-7" y1="0" x2="7" y2="0"/>
        <line x1="-5" y1="-5" x2="5" y2="5"/><line x1="-5" y1="5" x2="5" y2="-5"/>
      </g>
      <circle class="reefer-led" cx="92" cy="348" r="3" fill="#5BD89F"/>
      <circle class="reefer-led" cx="92" cy="304" r="3" fill="#5BD89F"/>
      <rect x="0" y="218" width="100" height="3" fill="#FFFFFF" opacity="0.5"/>
      <rect x="0" y="262" width="100" height="3" fill="#FFFFFF" opacity="0.4"/>
      <rect x="0" y="306" width="100" height="3" fill="#FFFFFF" opacity="0.4"/>
      <rect x="0" y="350" width="100" height="3" fill="#FFFFFF" opacity="0.4"/>
    </g>
    <!-- Bay 5 -->
    <g transform="translate(650 0)">
      <rect x="0" y="350" width="100" height="42" rx="2" fill="url(#conReefer)" stroke="#A8C8D8" stroke-width="0.8"/>
      <rect x="0" y="306" width="100" height="42" rx="2" fill="url(#conBlue)"/>
      <rect x="0" y="262" width="100" height="42" rx="2" fill="url(#conReefer)" stroke="#A8C8D8" stroke-width="0.8"/>
      <rect x="0" y="218" width="100" height="42" rx="2" fill="url(#conPurple)"/>
      <g transform="translate(50 371)" stroke="#0AC2C2" stroke-width="1.2" stroke-linecap="round" fill="none">
        <line x1="0" y1="-7" x2="0" y2="7"/><line x1="-7" y1="0" x2="7" y2="0"/>
        <line x1="-5" y1="-5" x2="5" y2="5"/><line x1="-5" y1="5" x2="5" y2="-5"/>
      </g>
      <g transform="translate(50 283)" stroke="#0AC2C2" stroke-width="1.2" stroke-linecap="round" fill="none">
        <line x1="0" y1="-7" x2="0" y2="7"/><line x1="-7" y1="0" x2="7" y2="0"/>
        <line x1="-5" y1="-5" x2="5" y2="5"/><line x1="-5" y1="5" x2="5" y2="-5"/>
      </g>
      <circle class="reefer-led" cx="92" cy="392" r="3" fill="#5BD89F"/>
      <circle class="reefer-led" cx="92" cy="304" r="3" fill="#5BD89F"/>
      <rect x="0" y="218" width="100" height="3" fill="#FFFFFF" opacity="0.5"/>
      <rect x="0" y="262" width="100" height="3" fill="#FFFFFF" opacity="0.4"/>
      <rect x="0" y="306" width="100" height="3" fill="#FFFFFF" opacity="0.4"/>
      <rect x="0" y="350" width="100" height="3" fill="#FFFFFF" opacity="0.4"/>
    </g>
    <!-- Bay 6 -->
    <g transform="translate(770 0)">
      <rect x="0" y="350" width="100" height="42" rx="2" fill="url(#conReefer)" stroke="#A8C8D8" stroke-width="0.8"/>
      <rect x="0" y="306" width="100" height="42" rx="2" fill="url(#conReefer)" stroke="#A8C8D8" stroke-width="0.8"/>
      <rect x="0" y="262" width="100" height="42" rx="2" fill="url(#conBlue)"/>
      <rect x="0" y="218" width="100" height="42" rx="2" fill="url(#conPurple)"/>
      <g transform="translate(50 371)" stroke="#0AC2C2" stroke-width="1.2" stroke-linecap="round" fill="none">
        <line x1="0" y1="-7" x2="0" y2="7"/><line x1="-7" y1="0" x2="7" y2="0"/>
        <line x1="-5" y1="-5" x2="5" y2="5"/><line x1="-5" y1="5" x2="5" y2="-5"/>
      </g>
      <g transform="translate(50 327)" stroke="#0AC2C2" stroke-width="1.2" stroke-linecap="round" fill="none">
        <line x1="0" y1="-7" x2="0" y2="7"/><line x1="-7" y1="0" x2="7" y2="0"/>
        <line x1="-5" y1="-5" x2="5" y2="5"/><line x1="-5" y1="5" x2="5" y2="-5"/>
      </g>
      <circle class="reefer-led" cx="92" cy="392" r="3" fill="#5BD89F"/>
      <circle class="reefer-led" cx="92" cy="348" r="3" fill="#5BD89F"/>
      <rect x="0" y="218" width="100" height="3" fill="#FFFFFF" opacity="0.5"/>
      <rect x="0" y="262" width="100" height="3" fill="#FFFFFF" opacity="0.4"/>
      <rect x="0" y="306" width="100" height="3" fill="#FFFFFF" opacity="0.4"/>
      <rect x="0" y="350" width="100" height="3" fill="#FFFFFF" opacity="0.4"/>
    </g>
  </g>

  
    </g>
  </g>
  <!-- BRIDGE — aft -->
  <g filter="url(#rigShadow)">
    <rect x="900" y="220" width="120" height="170" rx="3" fill="url(#bridge)"/>
    <rect x="900" y="220" width="120" height="3" fill="#FFFFFF" opacity="0.6"/>
    <g fill="url(#windowGlass)" opacity="0.85">
      <rect x="908" y="232" width="104" height="14" rx="1.5"/><rect x="908" y="252" width="104" height="14" rx="1.5"/><rect x="908" y="272" width="104" height="14" rx="1.5"/>
      <rect x="908" y="292" width="104" height="14" rx="1.5"/><rect x="908" y="312" width="104" height="14" rx="1.5"/><rect x="908" y="332" width="104" height="14" rx="1.5"/>
      <rect x="908" y="352" width="104" height="14" rx="1.5"/>
    </g>
    <g stroke="#5A6378" stroke-width="0.6" opacity="0.65"><line x1="940" y1="232" x2="940" y2="366"/><line x1="980" y1="232" x2="980" y2="366"/></g>
    <rect x="950" y="170" width="32" height="55" rx="3" fill="#1A1F2E"/>
    <rect x="950" y="170" width="32" height="6" rx="3" fill="#3A3F4A"/>
    <rect x="950" y="190" width="32" height="6" fill="#0AC2C2" opacity="0.85"/>
    <line x1="996" y1="220" x2="996" y2="155" stroke="#1A1F2E" stroke-width="2.5" stroke-linecap="round"/>
    <circle cx="996" cy="155" r="3.5" fill="#FFE680"/>
  </g>

  <line x1="113" y1="396" x2="100" y2="468" stroke="#0AC2C2" stroke-width="2" opacity="0.7"/>
  
  <g opacity="0.75">
  </g>
  <!-- ========== WAKE TRAIL (aft, drifts right) ========== -->
  <g filter="url(#foamBlur)">
    <ellipse class="wake-1" cx="1108" cy="488" rx="14" ry="4" fill="url(#foam)"/>
    <ellipse class="wake-2" cx="1108" cy="494" rx="12" ry="3" fill="url(#foam)"/>
    <ellipse class="wake-3" cx="1108" cy="482" rx="10" ry="3" fill="url(#foam)"/>
    <ellipse class="wake-4" cx="1108" cy="498" rx="13" ry="3" fill="url(#foam)"/>
  </g>

  <!-- ========== BOW WAVE (cutwater foam) ========== -->
  <g filter="url(#foamBlur)">
    <ellipse class="bow-wave-1" cx="100" cy="475" rx="22" ry="6" fill="url(#foam)"/>
    <ellipse class="bow-wave-2" cx="100" cy="482" rx="18" ry="5" fill="url(#foam)"/>
    <ellipse class="bow-wave-3" cx="100" cy="488" rx="16" ry="4" fill="url(#foam)"/>
  </g>

  <!-- ========== BOW SPRAY MIST ========== -->
  <g filter="url(#foamBlur)" opacity="0.6">
    <circle class="bow-spray" cx="115" cy="455" r="5" fill="#FFFFFF"/>
    <circle class="bow-spray" cx="118" cy="450" r="4" fill="#FFFFFF" style="animation-delay:-0.5s"/>
    <circle class="bow-spray" cx="112" cy="458" r="3" fill="#FFFFFF" style="animation-delay:-1s"/>
  </g>

  <!-- ========== EUSOTRIP BRAND LOCKUP ========== -->
  
  
  <!-- EUSOTRIP-FIX-2026-05-17 -->
</svg>
