<?xml version="1.0" encoding="UTF-8"?>
<svg xmlns="http://www.w3.org/2000/svg"  width="1200" height="600" viewBox="0 50 1200 480" preserveAspectRatio="xMidYMid slice">
  <style><![CDATA[
    /* ========== RAIL JOINT CLACK-CLACK ========== */
    /* Percussive: a fast bump up on the joint strike, slow settle back down
       (rail-joint impact is sharp on the way up, damped on the way down). */
    .rail-clack    { animation: rail-clack 0.6s cubic-bezier(0.3,0,0.2,1) infinite; }
    @keyframes rail-clack {
      0%             { transform: translateY(0); }
      18%            { transform: translateY(-1px); }
      50%            { transform: translateY(0); }
      68%            { transform: translateY(-0.6px); }
      100%           { transform: translateY(0); }
    }
    .rail-yaw      { transform-origin: 600px 470px;
                      animation: rail-yaw 2.8s ease-in-out infinite; }
    @keyframes rail-yaw {
      0%, 100% { transform: rotate(0deg); }
      50%      { transform: rotate(-0.35deg); }
    }
    .container-settle { animation: container-settle 0.6s ease-in-out infinite -0.08s; }
    @keyframes container-settle {
      0%, 50%, 100% { transform: translateY(0); }
      25%           { transform: translateY(-0.6px); }
      75%           { transform: translateY(-0.3px); }
    }
    .spray         { animation: spray-kick 0.7s ease-out infinite; }
    .spray.b       { animation-delay: -0.3s; }
    .spray.c       { animation-delay: -0.5s; }
    @keyframes spray-kick {
      0%   { opacity: 0;    transform: translate(0,0)    scale(0.4); }
      20%  { opacity: 0.55; }
      100% { opacity: 0;    transform: translate(28px,-6px) scale(1.1); }
    }

    /* ========== ORIGINAL VOCAB ========== */
    .sheen { animation: sheen-sweep 5s ease-in-out infinite; transform-box: fill-box; }
    @keyframes sheen-sweep {
      0%   { transform: translateX(-300px); opacity: 0; }
      30%  { opacity: 0.5; }
      70%  { opacity: 0.5; }
      100% { transform: translateX(300px); opacity: 0; }
    }
    .wordmark { animation: wordmark-breath 6s ease-in-out infinite; }
    @keyframes wordmark-breath {
      0%, 100% { opacity: 0.85; }
      50%      { opacity: 1; }
    }
    .twist-lock { animation: twist-pulse 2.4s ease-in-out infinite; }
    @keyframes twist-pulse {
      0%, 100% { opacity: 0.85; }
      50%      { opacity: 1; }
    }
    .reporting { animation: reporting-fade 7s ease-in-out infinite; }
    @keyframes reporting-fade {
      0%, 100% { opacity: 0.78; }
      50%      { opacity: 0.95; }
    }
    .iso-code { animation: iso-fade 5s ease-in-out infinite; }
    @keyframes iso-fade {
      0%, 100% { opacity: 0.7; }
      50%      { opacity: 0.9; }
    }
    .chevron { animation: chevron-pulse 2.2s ease-in-out infinite; }
    @keyframes chevron-pulse {
      0%, 100% { opacity: 0.3; }
      50%      { opacity: 0.65; }
    }
    .sky-shimmer { animation: sky-drift 14s linear infinite; transform-box: fill-box; }
    @keyframes sky-drift {
      from { transform: translateX(-40px); opacity: 0.12; }
      50%  { opacity: 0.22; }
      to   { transform: translateX(40px); opacity: 0.12; }
    }
    .rail-line { stroke-dasharray: 40 0;
                  animation: rail-scroll 1.2s linear infinite; }
    @keyframes rail-scroll {
      from { stroke-dashoffset: 0; }
      to   { stroke-dashoffset: -100; }
    }
    .ballast { animation: ballast-drift 3s ease-in-out infinite; transform-box: fill-box; }
    @keyframes ballast-drift {
      0%, 100% { transform: translateX(0); opacity: 0.25; }
      50%      { transform: translateX(-8px); opacity: 0.32; }
    }
    /* ========== BRAND LOCKUP ========== */
    .brand-mark {
      transform-box: fill-box; transform-origin: center;
      animation: brand-pulse 3.6s ease-in-out infinite;
    }
    @keyframes brand-pulse {
      0%, 100% { transform: scale(1);    opacity: 0.92; }
      50%      { transform: scale(1.05); opacity: 1; }
    }
    .brand-word { animation: brand-word-breath 6s ease-in-out infinite; }
    @keyframes brand-word-breath {
      0%, 100% { opacity: 0.78; }
      50%      { opacity: 1; }
    }

    @media (prefers-reduced-motion: reduce) {
      .rail-clack, .rail-yaw, .container-settle, .spray,
      .sheen, .wordmark, .twist-lock, .reporting, .iso-code,
      .chevron, .sky-shimmer, .rail-line, .ballast, .brand-mark, .brand-word { animation: none !important; }
    }
  
    /* ========== DARK-MODE OVERRIDES (2026-05-16) ========== */
    @media (prefers-color-scheme: dark) {
      .sky-bg          { fill: url(#skyDark) !important; }
      .ground-line     { stroke: #5E4FC6 !important; opacity: 0.55 !important; }
      .ground-shadow   { fill: #060912 !important; opacity: 0.55 !important; }
      .brand-word      { fill: #C9B6FF !important; }
      .brand-tagline   { fill: #8B7FE3 !important; }
      .equipment-label { fill: #C9B6FF !important; }
      .equipment-sub   { fill: #8B7FE3 !important; }
      .equipment-rule  { stroke: #6E4DFF !important; }
    }
  ]]></style>

  <!-- 26 · Rail · Gondola · Idle silhouette · RAIL / LBS
       Open-top low-side car. Used for: scrap metal, aggregate, pipe, steel coils. -->
  <defs>
        <linearGradient id="skyDark" x1="0" y1="0" x2="0" y2="1">
      <stop offset="0%"  stop-color="#0A0F1F"/>
      <stop offset="55%" stop-color="#141A2E"/>
      <stop offset="100%" stop-color="#0B0F1B"/>
    </linearGradient>
    <linearGradient id="brandIridescent" x1="0" y1="0" x2="1" y2="1">
      <stop offset="0%" stop-color="#1473FF"/>
      <stop offset="50%" stop-color="#6E4DFF"/>
      <stop offset="100%" stop-color="#BE01FF"/>
    </linearGradient>
    <linearGradient id="sky" x1="0" y1="0" x2="0" y2="1"><stop offset="0%" stop-color="#EEF1FA"/><stop offset="55%" stop-color="#F5EEFC"/><stop offset="100%" stop-color="#EFF8FA"/></linearGradient>
    <linearGradient id="gondola" x1="0" y1="0" x2="0" y2="1">
      <stop offset="0%" stop-color="#3A3F4A"/>
      <stop offset="100%" stop-color="#1A1F2E"/>
    </linearGradient>
    <linearGradient id="gondolaInner" x1="0" y1="0" x2="0" y2="1">
      <stop offset="0%" stop-color="#1A1F2E"/>
      <stop offset="100%" stop-color="#0A0F18"/>
    </linearGradient>
    <linearGradient id="tie" x1="0" y1="0" x2="0" y2="1"><stop offset="0%" stop-color="#7A5A40"/><stop offset="100%" stop-color="#3F2F22"/></linearGradient>
    <radialGradient id="rim" cx="0.5" cy="0.5" r="0.5"><stop offset="0%" stop-color="#5A606D"/><stop offset="80%" stop-color="#3A3F4A"/><stop offset="100%" stop-color="#1F2330"/></radialGradient>
    <filter id="rigShadow" x="-10%" y="-10%" width="120%" height="130%"><feGaussianBlur in="SourceAlpha" stdDeviation="6"/><feOffset dx="0" dy="4" result="offsetBlur"/><feComponentTransfer><feFuncA type="linear" slope="0.18"/></feComponentTransfer><feMerge><feMergeNode/><feMergeNode in="SourceGraphic"/></feMerge></filter>
      <radialGradient id="dustCloud" cx="0.5" cy="0.5" r="0.5">
      <stop offset="0%" stop-color="#C8B89A" stop-opacity="0.55"/>
      <stop offset="100%" stop-color="#C8B89A" stop-opacity="0"/>
    </radialGradient>
    <filter id="softBlur" x="-50%" y="-50%" width="200%" height="200%">
      <feGaussianBlur stdDeviation="3"/>
    </filter>
  </defs>
  <g class="rail-yaw">
    <g class="rail-clack">

  <rect class="sky-bg" width="1200" height="600" fill="url(#sky)"/>
  <rect x="0" y="380" width="1200" height="70" fill="#FFFFFF" opacity="0.18"/>
  <rect x="40" y="510" width="1120" height="20" fill="#9B7FD9" opacity="0.18"/>
  <g fill="#5B3FBF" opacity="0.25"><circle cx="80" cy="518" r="1.5"/><circle cx="160" cy="522" r="1.5"/><circle cx="240" cy="516" r="1.5"/><circle cx="320" cy="524" r="1.5"/><circle cx="400" cy="518" r="1.5"/><circle cx="480" cy="522" r="1.5"/><circle cx="560" cy="516" r="1.5"/><circle cx="640" cy="524" r="1.5"/><circle cx="720" cy="518" r="1.5"/><circle cx="800" cy="522" r="1.5"/><circle cx="880" cy="516" r="1.5"/><circle cx="960" cy="524" r="1.5"/><circle cx="1040" cy="518" r="1.5"/><circle cx="1120" cy="522" r="1.5"/></g>
  <g><rect x="80" y="498" width="40" height="14" rx="1" fill="url(#tie)"/><rect x="140" y="498" width="40" height="14" rx="1" fill="url(#tie)"/><rect x="200" y="498" width="40" height="14" rx="1" fill="url(#tie)"/><rect x="260" y="498" width="40" height="14" rx="1" fill="url(#tie)"/><rect x="320" y="498" width="40" height="14" rx="1" fill="url(#tie)"/><rect x="380" y="498" width="40" height="14" rx="1" fill="url(#tie)"/><rect x="440" y="498" width="40" height="14" rx="1" fill="url(#tie)"/><rect x="500" y="498" width="40" height="14" rx="1" fill="url(#tie)"/><rect x="560" y="498" width="40" height="14" rx="1" fill="url(#tie)"/><rect x="620" y="498" width="40" height="14" rx="1" fill="url(#tie)"/><rect x="680" y="498" width="40" height="14" rx="1" fill="url(#tie)"/><rect x="740" y="498" width="40" height="14" rx="1" fill="url(#tie)"/><rect x="800" y="498" width="40" height="14" rx="1" fill="url(#tie)"/><rect x="860" y="498" width="40" height="14" rx="1" fill="url(#tie)"/><rect x="920" y="498" width="40" height="14" rx="1" fill="url(#tie)"/><rect x="980" y="498" width="40" height="14" rx="1" fill="url(#tie)"/><rect x="1040" y="498" width="40" height="14" rx="1" fill="url(#tie)"/><rect x="1100" y="498" width="40" height="14" rx="1" fill="url(#tie)"/></g>
  <rect x="40" y="492" width="1120" height="6" rx="1" fill="#7A7F88"/><rect x="40" y="492" width="1120" height="2" fill="#C0C5CD"/>
  <ellipse cx="600" cy="488" rx="490" ry="6" fill="#1A1F2E" opacity="0.13"/>

  <!-- ========== GONDOLA BODY (open-top low-side car) ========== -->
  <g filter="url(#rigShadow)">
    <!-- End walls (taller than sides) -->
    <rect x="120" y="285" width="40" height="180" rx="2" fill="url(#gondola)"/>
    <rect x="1040" y="285" width="40" height="180" rx="2" fill="url(#gondola)"/>
    <!-- Side walls (low — ~half height of end walls) -->
    <rect x="160" y="320" width="880" height="145" rx="2" fill="url(#gondola)"/>
    <!-- Top edge highlight -->
    <rect x="120" y="285" width="40" height="3" fill="#FFFFFF" opacity="0.5"/>
    <rect x="1040" y="285" width="40" height="3" fill="#FFFFFF" opacity="0.5"/>
    <rect x="160" y="320" width="880" height="3" fill="#FFFFFF" opacity="0.5"/>
    <!-- Open top (showing dark interior) -->
    <rect x="160" y="285" width="880" height="35" fill="url(#gondolaInner)"/>
    <!-- Inner side walls (suggest the wall thickness) -->
    <rect x="160" y="285" width="6" height="35" fill="#0A0F18"/>
    <rect x="1034" y="285" width="6" height="35" fill="#0A0F18"/>
    <!-- Vertical exterior ribs -->
    <g stroke="#0A0F18" stroke-width="1.5" opacity="0.7">
      <line x1="220" y1="328" x2="220" y2="460"/><line x1="290" y1="328" x2="290" y2="460"/><line x1="360" y1="328" x2="360" y2="460"/>
      <line x1="430" y1="328" x2="430" y2="460"/><line x1="500" y1="328" x2="500" y2="460"/><line x1="570" y1="328" x2="570" y2="460"/>
      <line x1="640" y1="328" x2="640" y2="460"/><line x1="710" y1="328" x2="710" y2="460"/><line x1="780" y1="328" x2="780" y2="460"/>
      <line x1="850" y1="328" x2="850" y2="460"/><line x1="920" y1="328" x2="920" y2="460"/><line x1="990" y1="328" x2="990" y2="460"/>
    </g>
    <!-- Reporting marks -->
    <text x="240" y="395" font-family="Inter, system-ui, sans-serif" font-weight="800" font-size="22" fill="#FFFFFF" opacity="0.95" letter-spacing="2">EUSO 5532</text>
    <!-- ============================================================
         COUNTRY-SWITCHABLE CAPACITY STENCIL + INTERCHANGE BADGE
         Gondola for ferrous scrap is NOT hazmat → no DOT/SCT/TDG
         placards. The AAR/UMLER reporting-mark system is unified across
         US (STB) / Canada (Transport Canada) / Mexico (SCT) interchange,
         so the only true country differences are (a) the interchange
         origin badge and (b) the capacity-stencil UNITS:
           US  → CAPY in short tons / LD LMT in lb     (default visible)
           CA  → CAPY in tonnes      / LD LMT in kg     (Transport Canada)
           MX  → CAPY in toneladas   / CARGA in kg      (SCT / ARTF)
         Renderer: show exactly one of .country-US / .country-MX /
         .country-CA based on the shipment's origin/jurisdiction; the
         host toggles `display:none` on the two it is not using
         (default = US visible). -->
    <g class="country-US">
      <text x="240" y="425" font-family="Inter, system-ui, sans-serif" font-weight="600" font-size="11" fill="#FFFFFF" opacity="0.65" letter-spacing="2">CAPY 100T · LD LMT 198400 LB</text>
      <g transform="translate(960 392)"><rect x="-26" y="-12" width="52" height="20" rx="3" fill="#1A2A4A" opacity="0.85"/><text x="0" y="2" text-anchor="middle" font-family="Inter, system-ui, sans-serif" font-weight="900" font-size="9" fill="#FFFFFF" letter-spacing="1.4">US · AAR</text></g>
    </g>
    <g class="country-CA" style="display:none">
      <text x="240" y="425" font-family="Inter, system-ui, sans-serif" font-weight="600" font-size="11" fill="#FFFFFF" opacity="0.65" letter-spacing="2">CAPY 90 t · LD LMT 90 000 kg</text>
      <g transform="translate(960 392)"><rect x="-26" y="-12" width="52" height="20" rx="3" fill="#7A1320" opacity="0.85"/><text x="0" y="2" text-anchor="middle" font-family="Inter, system-ui, sans-serif" font-weight="900" font-size="9" fill="#FFFFFF" letter-spacing="1.4">CA · TC</text></g>
    </g>
    <g class="country-MX" style="display:none">
      <text x="240" y="425" font-family="Inter, system-ui, sans-serif" font-weight="600" font-size="11" fill="#FFFFFF" opacity="0.65" letter-spacing="2">CAP 90 t · CARGA 90 000 kg</text>
      <g transform="translate(960 392)"><rect x="-26" y="-12" width="52" height="20" rx="3" fill="#106B3F" opacity="0.85"/><text x="0" y="2" text-anchor="middle" font-family="Inter, system-ui, sans-serif" font-weight="900" font-size="9" fill="#FFFFFF" letter-spacing="1.4">MX · SCT</text></g>
    </g>
    <!-- Vague cargo suggestion (subtle aggregate texture peeking over the top) -->
    <g fill="#5A606D" opacity="0.35">
      <ellipse cx="300" cy="290" rx="50" ry="6"/>
      <ellipse cx="450" cy="288" rx="65" ry="7"/>
      <ellipse cx="620" cy="290" rx="55" ry="6"/>
      <ellipse cx="800" cy="288" rx="70" ry="7"/>
      <ellipse cx="950" cy="290" rx="50" ry="6"/>
    </g>
    <!-- End ladders -->
    <g stroke="#5A606D" stroke-width="1.5" opacity="0.85">
      <line x1="135" y1="295" x2="135" y2="455"/>
      <line x1="135" y1="320" x2="155" y2="320"/><line x1="135" y1="360" x2="155" y2="360"/>
      <line x1="135" y1="400" x2="155" y2="400"/><line x1="135" y1="440" x2="155" y2="440"/>
    </g>
  </g>

  <!-- Couplers + bogies -->
  <rect x="90" y="450" width="22" height="14" rx="2" fill="#3A3F4A"/><rect x="82" y="453" width="14" height="8" rx="1" fill="#1A1F2E"/>
  <rect x="1088" y="450" width="22" height="14" rx="2" fill="#3A3F4A"/><rect x="1104" y="453" width="14" height="8" rx="1" fill="#1A1F2E"/>
  
    </g>
  </g>
  <g filter="url(#rigShadow)"><rect x="160" y="468" width="100" height="22" rx="3" fill="#3A3F4A"/><rect x="160" y="468" width="100" height="3" fill="#FFFFFF" opacity="0.35"/></g>
  <g transform="translate(180 498)">
    <g>
      <circle cx="0" cy="0" r="22" fill="#1A1A1A"/>
      <circle cx="0" cy="0" r="14" fill="url(#rim)"/>
      <circle cx="0" cy="0" r="5" fill="#7A7F88"/>
      <ellipse cx="-4" cy="-7" rx="4" ry="2" fill="#FFFFFF" opacity="0.35"/>
      <animateTransform attributeName="transform" type="rotate" from="0" to="-360" dur="1.4s" repeatCount="indefinite"/>
    </g>
  </g>
  <g transform="translate(240 498)">
    <g>
      <circle cx="0" cy="0" r="22" fill="#1A1A1A"/>
      <circle cx="0" cy="0" r="14" fill="url(#rim)"/>
      <circle cx="0" cy="0" r="5" fill="#7A7F88"/>
      <ellipse cx="-4" cy="-7" rx="4" ry="2" fill="#FFFFFF" opacity="0.35"/>
      <animateTransform attributeName="transform" type="rotate" from="0" to="-360" dur="1.4s" repeatCount="indefinite"/>
    </g>
  </g>
  <g filter="url(#rigShadow)"><rect x="940" y="468" width="100" height="22" rx="3" fill="#3A3F4A"/><rect x="940" y="468" width="100" height="3" fill="#FFFFFF" opacity="0.35"/></g>
  <g transform="translate(960 498)">
    <g>
      <circle cx="0" cy="0" r="22" fill="#1A1A1A"/>
      <circle cx="0" cy="0" r="14" fill="url(#rim)"/>
      <circle cx="0" cy="0" r="5" fill="#7A7F88"/>
      <ellipse cx="-4" cy="-7" rx="4" ry="2" fill="#FFFFFF" opacity="0.35"/>
      <animateTransform attributeName="transform" type="rotate" from="0" to="-360" dur="1.4s" repeatCount="indefinite"/>
    </g>
  </g>
  <g transform="translate(1020 498)">
    <g>
      <circle cx="0" cy="0" r="22" fill="#1A1A1A"/>
      <circle cx="0" cy="0" r="14" fill="url(#rim)"/>
      <circle cx="0" cy="0" r="5" fill="#7A7F88"/>
      <ellipse cx="-4" cy="-7" rx="4" ry="2" fill="#FFFFFF" opacity="0.35"/>
      <animateTransform attributeName="transform" type="rotate" from="0" to="-360" dur="1.4s" repeatCount="indefinite"/>
    </g>
  </g>
  
  <g opacity="0.75">
  </g>
  <!-- ========== BALLAST SPRAY behind trailing bogie ========== -->
  <g filter="url(#softBlur)">
    <ellipse class="spray"   cx="1030" cy="500" rx="6" ry="3" fill="url(#dustCloud)"/>
    <ellipse class="spray b" cx="1030" cy="500" rx="5" ry="2.5" fill="url(#dustCloud)"/>
    <ellipse class="spray c" cx="1030" cy="500" rx="4" ry="2" fill="url(#dustCloud)"/>
  </g>

  <!-- ========== EUSOTRIP BRAND LOCKUP ========== -->
  
  
  <!-- EUSOTRIP-FIX-2026-05-17 -->
</svg>
