<?xml version="1.0" encoding="UTF-8"?>
<svg xmlns="http://www.w3.org/2000/svg"  width="1200" height="600" viewBox="0 50 1200 480" preserveAspectRatio="xMidYMid slice">
  <style><![CDATA[
    /* ========== RAIL JOINT CLACK-CLACK ========== */
    .rail-clack    { animation: rail-clack 0.6s ease-in-out infinite; }
    @keyframes rail-clack {
      0%,  50%, 100% { transform: translateY(0); }
      25%            { transform: translateY(-1px); }
      75%            { transform: translateY(-0.6px); }
    }
    .rail-yaw      { transform-origin: 600px 470px;
                      animation: rail-yaw 2.8s ease-in-out infinite; }
    @keyframes rail-yaw {
      0%, 100% { transform: rotate(0deg); }
      50%      { transform: rotate(-0.35deg); }
    }
    .container-settle { animation: container-settle 0.6s ease-in-out infinite -0.08s; }
    @keyframes container-settle {
      0%, 50%, 100% { transform: translateY(0); }
      25%           { transform: translateY(-0.6px); }
      75%           { transform: translateY(-0.3px); }
    }
    .spray         { animation: spray-kick 0.7s ease-out infinite; }
    .spray.b       { animation-delay: -0.3s; }
    .spray.c       { animation-delay: -0.5s; }
    @keyframes spray-kick {
      0%   { opacity: 0;    transform: translate(0,0)    scale(0.4); }
      20%  { opacity: 0.55; }
      100% { opacity: 0;    transform: translate(28px,-6px) scale(1.1); }
    }

    /* ========== ORIGINAL VOCAB ========== */
    .sheen { animation: sheen-sweep 5s ease-in-out infinite; transform-box: fill-box; }
    @keyframes sheen-sweep {
      0%   { transform: translateX(-300px); opacity: 0; }
      30%  { opacity: 0.5; }
      70%  { opacity: 0.5; }
      100% { transform: translateX(300px); opacity: 0; }
    }
    .wordmark { animation: wordmark-breath 6s ease-in-out infinite; }
    @keyframes wordmark-breath {
      0%, 100% { opacity: 0.85; }
      50%      { opacity: 1; }
    }
    .twist-lock { animation: twist-pulse 2.4s ease-in-out infinite; }
    @keyframes twist-pulse {
      0%, 100% { opacity: 0.85; }
      50%      { opacity: 1; }
    }
    .reporting { animation: reporting-fade 7s ease-in-out infinite; }
    @keyframes reporting-fade {
      0%, 100% { opacity: 0.78; }
      50%      { opacity: 0.95; }
    }
    .iso-code { animation: iso-fade 5s ease-in-out infinite; }
    @keyframes iso-fade {
      0%, 100% { opacity: 0.7; }
      50%      { opacity: 0.9; }
    }
    .chevron { animation: chevron-pulse 2.2s ease-in-out infinite; }
    @keyframes chevron-pulse {
      0%, 100% { opacity: 0.3; }
      50%      { opacity: 0.65; }
    }
    .sky-shimmer { animation: sky-drift 14s linear infinite; transform-box: fill-box; }
    @keyframes sky-drift {
      from { transform: translateX(-40px); opacity: 0.12; }
      50%  { opacity: 0.22; }
      to   { transform: translateX(40px); opacity: 0.12; }
    }
    .rail-line { stroke-dasharray: 40 0;
                  animation: rail-scroll 1.2s linear infinite; }
    @keyframes rail-scroll {
      from { stroke-dashoffset: 0; }
      to   { stroke-dashoffset: -100; }
    }
    .ballast { animation: ballast-drift 3s ease-in-out infinite; transform-box: fill-box; }
    @keyframes ballast-drift {
      0%, 100% { transform: translateX(0); opacity: 0.25; }
      50%      { transform: translateX(-8px); opacity: 0.32; }
    }
    /* ========== BRAND LOCKUP ========== */
    .brand-mark {
      transform-box: fill-box; transform-origin: center;
      animation: brand-pulse 3.6s ease-in-out infinite;
    }
    @keyframes brand-pulse {
      0%, 100% { transform: scale(1);    opacity: 0.92; }
      50%      { transform: scale(1.05); opacity: 1; }
    }
    .brand-word { animation: brand-word-breath 6s ease-in-out infinite; }
    @keyframes brand-word-breath {
      0%, 100% { opacity: 0.78; }
      50%      { opacity: 1; }
    }

    /* ========== COUNTRY-SWITCHABLE STENCIL ==========
       Auto racks carry finished automobiles — NON-HAZMAT, so NO hazard
       placards (DOT/PHMSA · SCT/NOM · TDG) apply (n/a). Only the capacity
       stencil UNIT differs by country of interchange. Renderer sets the
       root <svg> data-country attr (default US). Groups: .country-US /
       .country-CA / .country-MX. */
    .country-CA, .country-MX { display: none; }
    svg[data-country="CA"] .country-US, svg[data-country="CA"] .country-MX { display: none; }
    svg[data-country="CA"] .country-CA { display: inline; }
    svg[data-country="MX"] .country-US, svg[data-country="MX"] .country-CA { display: none; }
    svg[data-country="MX"] .country-MX { display: inline; }

    @media (prefers-reduced-motion: reduce) {
      .rail-clack, .rail-yaw, .container-settle, .spray,
      .sheen, .wordmark, .twist-lock, .reporting, .iso-code,
      .chevron, .sky-shimmer, .rail-line, .ballast, .brand-mark, .brand-word { animation: none !important; }
    }
  
    /* ========== DARK-MODE OVERRIDES (2026-05-16) ========== */
    @media (prefers-color-scheme: dark) {
      .sky-bg          { fill: url(#skyDark) !important; }
      .ground-line     { stroke: #5E4FC6 !important; opacity: 0.55 !important; }
      .ground-shadow   { fill: #060912 !important; opacity: 0.55 !important; }
      .brand-word      { fill: #C9B6FF !important; }
      .brand-tagline   { fill: #8B7FE3 !important; }
      .equipment-label { fill: #C9B6FF !important; }
      .equipment-sub   { fill: #8B7FE3 !important; }
      .equipment-rule  { stroke: #6E4DFF !important; }
    }
  ]]></style>

  <!-- 27 · Rail · Auto Rack · Idle silhouette · RAIL / VEH (vehicles)
       Multi-deck enclosed car for finished automobiles. Tall, perforated sides. -->
  <defs>
        <linearGradient id="skyDark" x1="0" y1="0" x2="0" y2="1">
      <stop offset="0%"  stop-color="#0A0F1F"/>
      <stop offset="55%" stop-color="#141A2E"/>
      <stop offset="100%" stop-color="#0B0F1B"/>
    </linearGradient>
    <linearGradient id="brandIridescent" x1="0" y1="0" x2="1" y2="1">
      <stop offset="0%" stop-color="#1473FF"/>
      <stop offset="50%" stop-color="#6E4DFF"/>
      <stop offset="100%" stop-color="#BE01FF"/>
    </linearGradient>
    <linearGradient id="sky" x1="0" y1="0" x2="0" y2="1"><stop offset="0%" stop-color="#EEF1FA"/><stop offset="55%" stop-color="#F5EEFC"/><stop offset="100%" stop-color="#EFF8FA"/></linearGradient>
    <linearGradient id="autoRack" x1="0" y1="0" x2="0" y2="1">
      <stop offset="0%" stop-color="#5B3FBF"/>
      <stop offset="55%" stop-color="#3D2580"/>
      <stop offset="100%" stop-color="#1F1240"/>
    </linearGradient>
    <linearGradient id="autoRackSheen" x1="0" y1="0" x2="1" y2="0"><stop offset="0%" stop-color="#FFFFFF" stop-opacity="0"/><stop offset="40%" stop-color="#FFFFFF" stop-opacity="0.3"/><stop offset="60%" stop-color="#FFFFFF" stop-opacity="0.3"/><stop offset="100%" stop-color="#FFFFFF" stop-opacity="0"/></linearGradient>
    <linearGradient id="tie" x1="0" y1="0" x2="0" y2="1"><stop offset="0%" stop-color="#7A5A40"/><stop offset="100%" stop-color="#3F2F22"/></linearGradient>
    <radialGradient id="rim" cx="0.5" cy="0.5" r="0.5"><stop offset="0%" stop-color="#5A606D"/><stop offset="80%" stop-color="#3A3F4A"/><stop offset="100%" stop-color="#1F2330"/></radialGradient>
    <filter id="rigShadow" x="-10%" y="-10%" width="120%" height="130%"><feGaussianBlur in="SourceAlpha" stdDeviation="6"/><feOffset dx="0" dy="4" result="offsetBlur"/><feComponentTransfer><feFuncA type="linear" slope="0.18"/></feComponentTransfer><feMerge><feMergeNode/><feMergeNode in="SourceGraphic"/></feMerge></filter>
      <radialGradient id="dustCloud" cx="0.5" cy="0.5" r="0.5">
      <stop offset="0%" stop-color="#C8B89A" stop-opacity="0.55"/>
      <stop offset="100%" stop-color="#C8B89A" stop-opacity="0"/>
    </radialGradient>
    <filter id="softBlur" x="-50%" y="-50%" width="200%" height="200%">
      <feGaussianBlur stdDeviation="3"/>
    </filter>
  </defs>
  <g class="rail-yaw">
    <g class="rail-clack">

  <rect class="sky-bg" width="1200" height="600" fill="url(#sky)"/>
  <rect x="0" y="380" width="1200" height="70" fill="#FFFFFF" opacity="0.18"/>
  <rect x="40" y="510" width="1120" height="20" fill="#9B7FD9" opacity="0.18"/>
  <g fill="#5B3FBF" opacity="0.25"><circle cx="80" cy="518" r="1.5"/><circle cx="160" cy="522" r="1.5"/><circle cx="240" cy="516" r="1.5"/><circle cx="320" cy="524" r="1.5"/><circle cx="400" cy="518" r="1.5"/><circle cx="480" cy="522" r="1.5"/><circle cx="560" cy="516" r="1.5"/><circle cx="640" cy="524" r="1.5"/><circle cx="720" cy="518" r="1.5"/><circle cx="800" cy="522" r="1.5"/><circle cx="880" cy="516" r="1.5"/><circle cx="960" cy="524" r="1.5"/><circle cx="1040" cy="518" r="1.5"/><circle cx="1120" cy="522" r="1.5"/></g>
  <g><rect x="80" y="498" width="40" height="14" rx="1" fill="url(#tie)"/><rect x="140" y="498" width="40" height="14" rx="1" fill="url(#tie)"/><rect x="200" y="498" width="40" height="14" rx="1" fill="url(#tie)"/><rect x="260" y="498" width="40" height="14" rx="1" fill="url(#tie)"/><rect x="320" y="498" width="40" height="14" rx="1" fill="url(#tie)"/><rect x="380" y="498" width="40" height="14" rx="1" fill="url(#tie)"/><rect x="440" y="498" width="40" height="14" rx="1" fill="url(#tie)"/><rect x="500" y="498" width="40" height="14" rx="1" fill="url(#tie)"/><rect x="560" y="498" width="40" height="14" rx="1" fill="url(#tie)"/><rect x="620" y="498" width="40" height="14" rx="1" fill="url(#tie)"/><rect x="680" y="498" width="40" height="14" rx="1" fill="url(#tie)"/><rect x="740" y="498" width="40" height="14" rx="1" fill="url(#tie)"/><rect x="800" y="498" width="40" height="14" rx="1" fill="url(#tie)"/><rect x="860" y="498" width="40" height="14" rx="1" fill="url(#tie)"/><rect x="920" y="498" width="40" height="14" rx="1" fill="url(#tie)"/><rect x="980" y="498" width="40" height="14" rx="1" fill="url(#tie)"/><rect x="1040" y="498" width="40" height="14" rx="1" fill="url(#tie)"/><rect x="1100" y="498" width="40" height="14" rx="1" fill="url(#tie)"/></g>
  <rect x="40" y="492" width="1120" height="6" rx="1" fill="#7A7F88"/><rect x="40" y="492" width="1120" height="2" fill="#C0C5CD"/>
  <ellipse cx="600" cy="488" rx="490" ry="6" fill="#1A1F2E" opacity="0.13"/>

  <!-- ========== AUTO RACK BODY (tri-level enclosed car — tall, perforated) ========== -->
  <g filter="url(#rigShadow)">
    <rect x="120" y="160" width="960" height="305" rx="6" fill="url(#autoRack)"/>
    <rect x="120" y="160" width="960" height="6" rx="3" fill="#FFFFFF" opacity="0.4"/>
    <rect x="122" y="162" width="956" height="301" rx="5" fill="url(#autoRackSheen)" opacity="0.35"/>

    <!-- Tri-level deck dividing lines (3 deck levels visible from outside) -->
    <line x1="120" y1="265" x2="1080" y2="265" stroke="#1F1240" stroke-width="2" opacity="0.5"/>
    <line x1="120" y1="365" x2="1080" y2="365" stroke="#1F1240" stroke-width="2" opacity="0.5"/>

    <!-- ========== PERFORATED SIDE PANELS (signature of modern auto rack — slotted/punched panels) ========== -->
    <!-- Top deck perforations -->
    <g fill="#1F1240" opacity="0.6">
      <!-- Row 1 (between top edge and 1st divider) — diagonal slot pattern -->
      <rect x="180" y="180" width="14" height="6" rx="1"/><rect x="220" y="180" width="14" height="6" rx="1"/><rect x="260" y="180" width="14" height="6" rx="1"/>
      <rect x="300" y="180" width="14" height="6" rx="1"/><rect x="340" y="180" width="14" height="6" rx="1"/><rect x="380" y="180" width="14" height="6" rx="1"/>
      <rect x="420" y="180" width="14" height="6" rx="1"/><rect x="460" y="180" width="14" height="6" rx="1"/><rect x="500" y="180" width="14" height="6" rx="1"/>
      <rect x="540" y="180" width="14" height="6" rx="1"/><rect x="580" y="180" width="14" height="6" rx="1"/><rect x="620" y="180" width="14" height="6" rx="1"/>
      <rect x="660" y="180" width="14" height="6" rx="1"/><rect x="700" y="180" width="14" height="6" rx="1"/><rect x="740" y="180" width="14" height="6" rx="1"/>
      <rect x="780" y="180" width="14" height="6" rx="1"/><rect x="820" y="180" width="14" height="6" rx="1"/><rect x="860" y="180" width="14" height="6" rx="1"/>
      <rect x="900" y="180" width="14" height="6" rx="1"/><rect x="940" y="180" width="14" height="6" rx="1"/><rect x="980" y="180" width="14" height="6" rx="1"/>
      <rect x="1020" y="180" width="14" height="6" rx="1"/>
      <!-- Row 2 (offset for diagonal pattern) -->
      <rect x="200" y="210" width="14" height="6" rx="1"/><rect x="240" y="210" width="14" height="6" rx="1"/><rect x="280" y="210" width="14" height="6" rx="1"/>
      <rect x="320" y="210" width="14" height="6" rx="1"/><rect x="360" y="210" width="14" height="6" rx="1"/><rect x="400" y="210" width="14" height="6" rx="1"/>
      <rect x="440" y="210" width="14" height="6" rx="1"/><rect x="480" y="210" width="14" height="6" rx="1"/><rect x="520" y="210" width="14" height="6" rx="1"/>
      <rect x="560" y="210" width="14" height="6" rx="1"/><rect x="600" y="210" width="14" height="6" rx="1"/><rect x="640" y="210" width="14" height="6" rx="1"/>
      <rect x="680" y="210" width="14" height="6" rx="1"/><rect x="720" y="210" width="14" height="6" rx="1"/><rect x="760" y="210" width="14" height="6" rx="1"/>
      <rect x="800" y="210" width="14" height="6" rx="1"/><rect x="840" y="210" width="14" height="6" rx="1"/><rect x="880" y="210" width="14" height="6" rx="1"/>
      <rect x="920" y="210" width="14" height="6" rx="1"/><rect x="960" y="210" width="14" height="6" rx="1"/><rect x="1000" y="210" width="14" height="6" rx="1"/>
      <rect x="1040" y="210" width="14" height="6" rx="1"/>
      <!-- Row 3 (240) -->
      <rect x="180" y="240" width="14" height="6" rx="1"/><rect x="220" y="240" width="14" height="6" rx="1"/><rect x="260" y="240" width="14" height="6" rx="1"/>
      <rect x="300" y="240" width="14" height="6" rx="1"/><rect x="340" y="240" width="14" height="6" rx="1"/><rect x="380" y="240" width="14" height="6" rx="1"/>
      <rect x="420" y="240" width="14" height="6" rx="1"/><rect x="460" y="240" width="14" height="6" rx="1"/><rect x="500" y="240" width="14" height="6" rx="1"/>
      <rect x="540" y="240" width="14" height="6" rx="1"/><rect x="580" y="240" width="14" height="6" rx="1"/><rect x="620" y="240" width="14" height="6" rx="1"/>
      <rect x="660" y="240" width="14" height="6" rx="1"/><rect x="700" y="240" width="14" height="6" rx="1"/><rect x="740" y="240" width="14" height="6" rx="1"/>
      <rect x="780" y="240" width="14" height="6" rx="1"/><rect x="820" y="240" width="14" height="6" rx="1"/><rect x="860" y="240" width="14" height="6" rx="1"/>
      <rect x="900" y="240" width="14" height="6" rx="1"/><rect x="940" y="240" width="14" height="6" rx="1"/><rect x="980" y="240" width="14" height="6" rx="1"/>
      <rect x="1020" y="240" width="14" height="6" rx="1"/>
      <!-- Mid deck perforations -->
      <rect x="200" y="290" width="14" height="6" rx="1"/><rect x="280" y="290" width="14" height="6" rx="1"/><rect x="360" y="290" width="14" height="6" rx="1"/>
      <rect x="440" y="290" width="14" height="6" rx="1"/><rect x="520" y="290" width="14" height="6" rx="1"/><rect x="600" y="290" width="14" height="6" rx="1"/>
      <rect x="680" y="290" width="14" height="6" rx="1"/><rect x="760" y="290" width="14" height="6" rx="1"/><rect x="840" y="290" width="14" height="6" rx="1"/>
      <rect x="920" y="290" width="14" height="6" rx="1"/><rect x="1000" y="290" width="14" height="6" rx="1"/>
      <rect x="240" y="320" width="14" height="6" rx="1"/><rect x="320" y="320" width="14" height="6" rx="1"/><rect x="400" y="320" width="14" height="6" rx="1"/>
      <rect x="480" y="320" width="14" height="6" rx="1"/><rect x="560" y="320" width="14" height="6" rx="1"/><rect x="640" y="320" width="14" height="6" rx="1"/>
      <rect x="720" y="320" width="14" height="6" rx="1"/><rect x="800" y="320" width="14" height="6" rx="1"/><rect x="880" y="320" width="14" height="6" rx="1"/>
      <rect x="960" y="320" width="14" height="6" rx="1"/><rect x="1040" y="320" width="14" height="6" rx="1"/>
      <!-- Bottom deck perforations -->
      <rect x="200" y="395" width="14" height="6" rx="1"/><rect x="280" y="395" width="14" height="6" rx="1"/><rect x="360" y="395" width="14" height="6" rx="1"/>
      <rect x="440" y="395" width="14" height="6" rx="1"/><rect x="520" y="395" width="14" height="6" rx="1"/><rect x="600" y="395" width="14" height="6" rx="1"/>
      <rect x="680" y="395" width="14" height="6" rx="1"/><rect x="760" y="395" width="14" height="6" rx="1"/><rect x="840" y="395" width="14" height="6" rx="1"/>
      <rect x="920" y="395" width="14" height="6" rx="1"/><rect x="1000" y="395" width="14" height="6" rx="1"/>
      <rect x="240" y="425" width="14" height="6" rx="1"/><rect x="320" y="425" width="14" height="6" rx="1"/><rect x="400" y="425" width="14" height="6" rx="1"/>
      <rect x="480" y="425" width="14" height="6" rx="1"/><rect x="560" y="425" width="14" height="6" rx="1"/><rect x="640" y="425" width="14" height="6" rx="1"/>
      <rect x="720" y="425" width="14" height="6" rx="1"/><rect x="800" y="425" width="14" height="6" rx="1"/><rect x="880" y="425" width="14" height="6" rx="1"/>
      <rect x="960" y="425" width="14" height="6" rx="1"/><rect x="1040" y="425" width="14" height="6" rx="1"/>
    </g>

    <!-- ========== END DOOR (visible at right end — bi-fold doors) ========== -->
    <rect x="1056" y="170" width="20" height="285" fill="#1F1240" opacity="0.85"/>
    <line x1="1056" y1="170" x2="1056" y2="455" stroke="#FFFFFF" stroke-width="0.5" opacity="0.4"/>

    <!-- Reporting marks + country-switchable capacity stencil (default US) -->
    <text x="180" y="158" font-family="Inter, system-ui, sans-serif" font-weight="800" font-size="14" fill="#5B3FBF" opacity="0.85" letter-spacing="2">EUSO ARC 7777 · TRI-LEVEL</text>
    <text class="country-US" x="640" y="158" font-family="Inter, system-ui, sans-serif" font-weight="700" font-size="9" fill="#5B3FBF" opacity="0.7" letter-spacing="1.4">CAPY 70 TON · 89' AAR PLATE F</text>
    <text class="country-CA" x="640" y="158" font-family="Inter, system-ui, sans-serif" font-weight="700" font-size="9" fill="#5B3FBF" opacity="0.7" letter-spacing="1.4">CAP 63,5 t · 27,1 m · GABARIT AAR F</text>
    <text class="country-MX" x="640" y="158" font-family="Inter, system-ui, sans-serif" font-weight="700" font-size="9" fill="#5B3FBF" opacity="0.7" letter-spacing="1.4">CAP 63,5 t · 27,1 m · GALIBO AAR F</text>
  </g>

  <!-- Couplers + bogies -->
  <rect x="90" y="450" width="22" height="14" rx="2" fill="#3A3F4A"/><rect x="82" y="453" width="14" height="8" rx="1" fill="#1A1F2E"/>
  <rect x="1088" y="450" width="22" height="14" rx="2" fill="#3A3F4A"/><rect x="1104" y="453" width="14" height="8" rx="1" fill="#1A1F2E"/>
  
    </g>
  </g>
  <g filter="url(#rigShadow)"><rect x="160" y="468" width="100" height="22" rx="3" fill="#3A3F4A"/><rect x="160" y="468" width="100" height="3" fill="#FFFFFF" opacity="0.35"/></g>
  <g transform="translate(180 498)">
    <g>
      <circle cx="0" cy="0" r="22" fill="#1A1A1A"/>
      <circle cx="0" cy="0" r="14" fill="url(#rim)"/>
      <circle cx="0" cy="0" r="5" fill="#7A7F88"/>
      <ellipse cx="-4" cy="-7" rx="4" ry="2" fill="#FFFFFF" opacity="0.35"/>
      <animateTransform attributeName="transform" type="rotate" from="0" to="-360" dur="1.4s" repeatCount="indefinite"/>
    </g>
  </g>
  <g transform="translate(240 498)">
    <g>
      <circle cx="0" cy="0" r="22" fill="#1A1A1A"/>
      <circle cx="0" cy="0" r="14" fill="url(#rim)"/>
      <circle cx="0" cy="0" r="5" fill="#7A7F88"/>
      <ellipse cx="-4" cy="-7" rx="4" ry="2" fill="#FFFFFF" opacity="0.35"/>
      <animateTransform attributeName="transform" type="rotate" from="0" to="-360" dur="1.4s" repeatCount="indefinite"/>
    </g>
  </g>
  <g filter="url(#rigShadow)"><rect x="940" y="468" width="100" height="22" rx="3" fill="#3A3F4A"/><rect x="940" y="468" width="100" height="3" fill="#FFFFFF" opacity="0.35"/></g>
  <g transform="translate(960 498)">
    <g>
      <circle cx="0" cy="0" r="22" fill="#1A1A1A"/>
      <circle cx="0" cy="0" r="14" fill="url(#rim)"/>
      <circle cx="0" cy="0" r="5" fill="#7A7F88"/>
      <ellipse cx="-4" cy="-7" rx="4" ry="2" fill="#FFFFFF" opacity="0.35"/>
      <animateTransform attributeName="transform" type="rotate" from="0" to="-360" dur="1.4s" repeatCount="indefinite"/>
    </g>
  </g>
  <g transform="translate(1020 498)">
    <g>
      <circle cx="0" cy="0" r="22" fill="#1A1A1A"/>
      <circle cx="0" cy="0" r="14" fill="url(#rim)"/>
      <circle cx="0" cy="0" r="5" fill="#7A7F88"/>
      <ellipse cx="-4" cy="-7" rx="4" ry="2" fill="#FFFFFF" opacity="0.35"/>
      <animateTransform attributeName="transform" type="rotate" from="0" to="-360" dur="1.4s" repeatCount="indefinite"/>
    </g>
  </g>
  
  <g opacity="0.75">
  </g>
  <!-- ========== BALLAST SPRAY behind trailing bogie ========== -->
  <g filter="url(#softBlur)">
    <ellipse class="spray"   cx="1030" cy="500" rx="6" ry="3" fill="url(#dustCloud)"/>
    <ellipse class="spray b" cx="1030" cy="500" rx="5" ry="2.5" fill="url(#dustCloud)"/>
    <ellipse class="spray c" cx="1030" cy="500" rx="4" ry="2" fill="url(#dustCloud)"/>
  </g>

  <!-- ========== EUSOTRIP BRAND LOCKUP ========== -->
  
  
  <!-- EUSOTRIP-FIX-2026-05-17 -->
</svg>
